<?xml version="1.0" encoding="UTF-8" standalone="no"?>
<svg
   width="1720.2"
   height="814.47"
   version="1.1"
   viewBox="0 0 1720.2 814.47"
   xml:space="preserve"
   id="svg596"
   sodipodi:docname="about.svg"
   inkscape:version="1.2.1 (9c6d41e410, 2022-07-14)"
   xmlns:inkscape="http://www.inkscape.org/namespaces/inkscape"
   xmlns:sodipodi="http://sodipodi.sourceforge.net/DTD/sodipodi-0.dtd"
   xmlns="http://www.w3.org/2000/svg"
   xmlns:svg="http://www.w3.org/2000/svg"><defs
     id="defs600" /><sodipodi:namedview
     id="namedview598"
     pagecolor="#505050"
     bordercolor="#eeeeee"
     borderopacity="1"
     inkscape:showpageshadow="0"
     inkscape:pageopacity="0"
     inkscape:pagecheckerboard="0"
     inkscape:deskcolor="#505050"
     showgrid="false"
     inkscape:zoom="0.77200328"
     inkscape:cx="852.32799"
     inkscape:cy="280.43922"
     inkscape:window-width="1920"
     inkscape:window-height="1001"
     inkscape:window-x="-9"
     inkscape:window-y="-9"
     inkscape:window-maximized="1"
     inkscape:current-layer="svg596" /><g
     transform="translate(41.256994,24.675313)"
     id="g502"><path
       d="m 812.66,351.01 -48.322,-14.792 c -1.0688,-0.32716 -2.1904,-0.4466 -3.3042,-0.3518 l -244.9,20.843 c -3.4918,0.29715 -4.3694,5.0069 -1.219,6.5418 l 7.8447,3.8218 h -0.20917 v 182.95 h 7.392 v -179.45 l 24.586,11.978 c 1.8812,0.91644 3.9805,1.2905 6.0623,1.0802 l 2.6159,-0.26422 v 166.66 h 7.392 v -167.41 l 189.42,-19.133 v 186.54 h 7.392 v -187.29 l 31.416,-3.1733 v 190.46 h 7.392 v -191.21 l 5.7314,-0.57891 c 4.0236,-0.40645 4.5792,-6.0458 0.71223,-7.2294 z"
       fill="#3f3d56"
       id="path474" /><path
       d="m 587.23,355.98 c 4.62,0 72.996,-8.316 72.996,-8.316 l 10.164,13.86 -71.148,13.86 z"
       fill="#e9ecef"
       id="path476" /><polygon
       points="650.39,542.9 644.82,497.06 662.35,497.1 662.27,542.92 "
       fill="#a0616a"
       id="polygon478" /><path
       d="m 621.57,542.58 c -0.37095,0.62232 -0.56957,2.6326 -0.57082,3.357 -0.004,2.2267 1.7982,4.035 4.025,4.0388 l 36.789,0.0632 c 1.5191,0.003 2.7527,-1.2267 2.7553,-2.7459 l 0.003,-1.5316 c 0,0 1.8278,-4.6003 -1.9093,-10.281 0,0 -4.6645,4.4348 -11.611,-2.5358 l -2.0456,-3.7209 -14.873,10.838 -8.235,0.9993 c -1.8016,0.21861 -3.3982,-0.0402 -4.3274,1.5187 h -1.4e-4 z"
       fill="#2f2e41"
       id="path480" /><polygon
       points="716.65,528.67 684.93,495.89 698.76,485.45 726.03,521.6 "
       fill="#a0616a"
       id="polygon482" /><path
       d="m 693.76,545.62 c 0.0789,0.71161 1.1216,2.414 1.5528,2.9856 1.3253,1.7568 3.8237,2.1066 5.5806,0.78132 l 29.024,-21.895 c 1.1985,-0.90409 1.4372,-2.6086 0.53302,-3.8071 l -0.91157,-1.2084 c 0,0 -1.3039,-4.715 -7.6369,-6.9614 0,0 -1.0299,6.2767 -10.661,4.9282 l -3.8314,-1.7115 -5.2534,17.411 -5.8924,5.6996 c -1.2892,1.247 -2.7015,1.9954 -2.5038,3.7779 l -1.1e-4,9e-5 z"
       fill="#2f2e41"
       id="path484" /><path
       d="m 701.2,284.74 c 0,10.955 -8.8806,19.835 -19.835,19.835 -10.9544,0 -19.835,-8.8806 -19.835,-19.835 0,-10.9544 8.8806,-19.835 19.835,-19.835 10.9544,0 19.835,8.8806 19.835,19.835 z"
       fill="#a0616a"
       id="path486" /><path
       d="m 699.33,399.11 c 0,0 -73.032,-4.1339 -77.166,4.1339 -4.134,8.2678 22.348,121.83 22.348,121.83 l 23.627,-4.9518 -11.526,-79.677 c 0,0 60.943,16.14 69.211,-3.1514 8.2678,-19.291 5.8877,-26.475 5.8877,-26.475 z"
       fill="#2f2e41"
       id="path488" /><path
       d="m 718.04,385.23 c 0,0 -71.524,15.333 -73.323,24.4 -1.799,9.067 53.781,111.58 53.781,111.58 l 21.475,-11.025 -32.192,-73.789 c 0,0 63.042,-0.55653 65.912,-21.348 2.87,-20.79147 -1.3256,-27.089 -1.3256,-27.089 l -34.327,-2.7292 z"
       fill="#2f2e41"
       id="path490" /><path
       d="m 726.2,307.47 h -34.362 l -23.512,38.583 c 0,0 -5.5118,24.933 0,27.624 5.5118,2.691 5.5118,31.628 5.5118,31.628 l 57.874,5.5118 c 0,0 8.2678,-86.812 5.5118,-95.079 -2.756,-8.267 -11.024,-8.2678 -11.024,-8.2678 z"
       fill="#f5365c"
       id="path492" /><path
       d="m 671.77,332.96 -3.4449,40.715 -38.747,-16.445 -9.2477,-4.6509 c -1.8113,-2.3619 -4.1618,-4.2556 -6.855,-5.5228 -6.6974,-3.264 -13.807,-2.4555 -15.884,1.8051 -2.0767,4.2606 1.6674,10.36 8.3628,13.622 2.6583,1.3409 5.5992,2.0253 8.5764,1.9963 l 27.058,15.368 0.0319,-0.0601 0.11996,0.21419 42.432,17.722 9.7631,-53.449 -22.165,-11.315 z"
       fill="#a0616a"
       id="path494" /><path
       d="m 695.2,317.81 c 0,0 -9.6457,-12.402 -16.536,-2.7559 -6.8903,9.6461 -12.402,22.047 -12.402,22.047 l 27.559,9.6457 1.378,-28.937 z"
       fill="#f5365c"
       id="path498" /><path
       d="m 799.84,547.28 -32.019,-101.77 0.005,-3.4e-4 h 0.0739 l -0.12937,-0.16637 -0.003,-0.004 -2.2806,-7.2488 10e-4,-9e-4 c 3.4742,-2.9938 5.8397,-7.2719 6.3109,-12.197 l -14.636,-80.499 c 1.0072,-10.571 -7.0963,-19.811 -17.713,-20.189 l -33.024,-0.0831 c -9.3878,-0.33263 -17.519,6.4495 -18.887,15.745 l -0.72994,4.9341 -10.118,68.829 c -0.36962,2.4762 -0.22175,4.9157 0.36037,7.198 l -7.2811,0.95175 -2.2084,0.29563 -8.7318,1.1365 -0.0277,0.009 -1.0903,0.13862 h -1.1828 v 29.568 h 0.0739 v 94.507 c 0,0.60976 0.49894,1.1088 1.1088,1.1088 0.61906,0 1.118,-0.499 1.118,-1.1088 v -94.507 h 12.954 l 12.927,94.396 c 0.0832,0.55449 0.55438,0.96099 1.1088,0.96099 0.0462,0 0.10163,0 0.14781,-0.009 0.60987,-0.0831 1.0349,-0.64675 0.95175,-1.2566 l -12.881,-94.091 h 62.157 c 6.1717,0 11.891,-1.9585 16.547,-5.3121 l 24.645,99.535 c 0.12825,0.50373 0.58088,0.83839 1.0778,0.83839 0.0907,0 0.18312,-0.0108 0.27527,-0.0342 0.59555,-0.15159 0.95558,-0.75752 0.80421,-1.3531 l -24.883,-100.5 c 0.33093,-0.27589 0.66192,-0.57005 0.97453,-0.87347 l 9.893,-0.58179 32.186,102.3 c 0.14939,0.47497 0.58821,0.77929 1.0613,0.77929 0.11059,0 0.22305,-0.0168 0.3342,-0.0517 0.58635,-0.18475 0.9121,-0.80974 0.72763,-1.396 z M 763.372,439.67 c 0.0831,-0.0463 0.15706,-0.10174 0.231,-0.14798 l 5.6e-4,-4.5e-4 0.23777,0.75571 z"
       fill="#3f3d56"
       id="path500" /><path
       d="m 667.64,287.49 c 0,0 -20.669,2.7559 -12.402,-15.158 0,0 -1.2606,-9.7108 4.8815,-10.367 6.1421,-0.6562 14.41,-11.68 14.41,-11.68 0,0 18.955,-9.6457 28.769,0 9.814,9.6457 38.751,66.142 38.751,66.142 l -19.291,20.669 c 0,0 -11.598,-30.489 -25.09,-26.957 -13.492,3.532 -25.894,14.062 -25.894,14.062 0,0 -13.693,-6.8525 -7.5354,-12.825 6.1576,-5.9725 3.4015,-23.886 3.4015,-23.886 z"
       fill="#2f2e41"
       id="path496" /></g><path
     d="m785.2 269.13h-690.09c-9.25 0-16.775-7.5254-16.775-16.776v-235.58c0-9.25 7.5254-16.775 16.775-16.775h690.09c9.25 0 16.775 7.5254 16.775 16.775v235.58c0 9.251-7.5254 16.776-16.775 16.776zm-690.09-267.13c-8.147 0-14.775 6.6284-14.775 14.775v235.58c0 8.1475 6.6284 14.776 14.775 14.776h690.09c8.147 0 14.775-6.6289 14.775-14.776v-235.58c0-8.147-6.6284-14.775-14.775-14.775z"
     fill="#3f3d56"
     id="path302" /><rect
     id="uuid-dac6dc9f-03bc-4283-a90c-97bcdcbf45dc"
     x="10.388"
     y="808.7"
     width="851.03"
     height="1.683"
     fill="#344767" /><rect
     id="uuid-2f9646f7-bb94-4523-8d2e-fd8f0877664c"
     y="464.56"
     width="851.03"
     height="1.683"
     fill="#344767" /><g
     transform="matrix(1.1425,0,-0.010034,1.0132,-27.673669,10.98223)"
     id="g364"><polygon
       points="193.11,361.07 201.88,366.36 171.57,401.18 171.57,374.77 "
       fill="#ffb6b6"
       id="polygon306" /><path
       d="m 142.1,321.73 c 0,0 -14.313,3.3678 -7.5775,22.732 6.7355,19.3642 28.626,59.778 35.361,57.252 6.735,-2.526 7.5775,-27.784 7.5775,-27.784 0,0 -0.84194,0.84194 -4.2097,-2.5258 -3.36776,-3.36774 -3.3678,-1.8297 -3.3678,-5.5455 0,-3.7158 -2.7545,-6.4703 -2.7545,-6.4703 l -3.139,-6.5068 c 0,0 0,-30.31 -12.629,-31.994 -12.629,-1.684 -9.2613,0.84194 -9.2613,0.84194 z"
       fill="#e6e6e6"
       id="path308" /><ellipse
       transform="rotate(-45,202.72,359.2)"
       cx="202.72"
       cy="359.20001"
       rx="14.313"
       ry="8.8403997"
       fill="#ffb6b6"
       id="ellipse310" /><g
       fill="#3f3d56"
       id="g318"><polygon
         points="101.05,457.63 186.74,452.56 163.92,423.15 86.348,433.29 "
         id="polygon312" /><path
         d="m 111.95,547.12 c -0.49911,0 -0.93386,-0.36839 -1.0034,-0.87642 l -25.605,-187.01 c -0.07601,-0.55507 0.31219,-1.0666 0.86701,-1.1423 0.55457,-0.0802 1.0661,0.31195 1.1423,0.86701 l 25.605,187.01 c 0.076,0.55507 -0.31219,1.0666 -0.86701,1.1423 -0.0468,0.006 -0.0931,0.009 -0.13889,0.009 z"
         id="path314" /><path
         d="m 86.348,547.36 c -0.56002,0 -1.0141,-0.45406 -1.0141,-1.0141 v -187.21 c 0,-0.56002 0.45406,-1.0141 1.0141,-1.0141 0.56002,0 1.0141,0.45406 1.0141,1.0141 v 187.21 c 0,0.56002 -0.45406,1.0141 -1.0141,1.0141 z"
         id="path316" /></g><path
       d="m 214.88,546.61 c -0.43103,0 -0.83087,-0.27729 -0.96703,-0.71005 l -60.591,-192.58 c -0.1681,-0.53427 0.12874,-1.1037 0.66301,-1.272 0.53402,-0.16736 1.1037,0.12924 1.2716,0.66301 l 60.591,192.58 c 0.1681,0.53427 -0.12874,1.1037 -0.66301,1.272 -0.10126,0.0317 -0.20376,0.047 -0.30452,0.047 z"
       fill="#e6e6e6"
       id="path320" /><path
       d="m 196.37,546.85 c -0.45282,0 -0.86528,-0.30501 -0.98214,-0.76402 l -42.084,-169.97 c -0.1379,-0.54269 0.19014,-1.0948 0.73283,-1.2329 0.54442,-0.13716 1.0948,0.19014 1.2329,0.73283 l 42.084,169.97 c 0.1379,0.54269 -0.19014,1.0948 -0.73283,1.2329 -0.0839,0.0213 -0.1681,0.0312 -0.2508,0.0312 z"
       fill="#e6e6e6"
       id="path322" /><polygon
       points="156.57,361.04 169.5,434.81 87.362,434.81 86.348,362.12 "
       fill="#3f3d56"
       id="polygon324" /><polygon
       points="176.57,501.75 197.12,506.28 205.68,484.12 194.27,470.6 "
       fill="#ffb6b6"
       id="polygon326" /><path
       d="m 182.92,495.87 c 0,0 -0.68769,-5.0813 -4.7307,-3.4688 -4.04301,1.6125 -15.711,7.605 -15.711,7.605 0,0 30.434,49.451 36.209,47.147 5.7757,-2.3035 -1.1383,-16.282 -1.1383,-16.282 l 1.526,-24.709 -16.155,-10.293 z"
       fill="#2f2e41"
       id="path328" /><path
       d="m 116,410.14 c 0,0 -6.3146,29.047 13.05,39.15 19.3646,10.103 85.457,-14.734 85.457,-14.734 l -30.31,45.415 21.048,8.4691 c 0,0 47.991,-63.146 44.623,-73.249 -3.368,-10.103 -26.1,-10.945 -26.1,-10.945 l -51.358,2.5258 -13.471,-4.2097 -42.939,7.5775 z"
       fill="#2f2e41"
       id="path330" /><polygon
       points="140.26,507.01 157.75,518.7 173.8,501.17 168.08,484.43 "
       fill="#ffb6b6"
       id="polygon332" /><path
       d="m 148.32,503.84 c 0,0 1.2084,-4.9832 -3.1441,-4.9524 -4.3526,0.0308 -17.402,1.3666 -17.402,1.3666 0,0 10.353,57.135 16.571,57.091 6.218,-0.0439 4.8645,-15.58 4.8645,-15.58 l 10.412,-22.459 -11.302,-15.466 z"
       fill="#2f2e41"
       id="path334" /><path
       d="m 117.18,399.63 c 0,0 -16.451,24.758 -2.0907,41.215 14.3603,16.457 84.96,17.372 84.96,17.372 l -44.758,31.272 16.524,15.548 c 0,0 67.678,-41.354 68.218,-51.99 0.53953,-10.636 -20.328,-19.692 -20.328,-19.692 l -48.757,-16.336 -11.016,-8.823 -42.753,-8.5668 z"
       fill="#2f2e41"
       id="path336" /><path
       d="m 159.44,342.28 c 0,0 -15.997,-5.8936 -23.574,-5.8936 -0.72406,0 -1.4397,0.0842 -2.1554,0.23572 -4.8496,1.0272 -9.3119,5.1948 -11.45,7.468 -0.83356,0.89245 -1.3134,1.4902 -1.3134,1.4902 0,0 0.0505,-0.58094 0.15154,-1.5997 0.49672,-5.3547 2.3321,-22.926 5.6242,-34.174 1.1787,-4.0161 2.5342,-7.2239 4.0918,-8.7814 3.6288,-3.6372 5.3042,-7.9984 6.0788,-11.248 0.65674,-2.7869 0.65674,-4.7486 0.65674,-4.7486 l -6.1377,-2.6437 -1.1366,-7.4259 c -0.20206,0.8756 -1.1366,2.5848 -4.277,5.8599 -0.26943,0.2778 -0.56414,0.51357 -0.87565,0.71563 -4.5296,2.8458 -13.766,-2.1048 -18.742,-5.22 2.0712,-7.1986 5.8263,-13.783 12.646,-14.86 15.997,-2.5258 15.997,-11.787 26.1,-1.6839 0.83351,0.83351 1.6754,1.6334 2.5174,2.4079 3.2331,6.1799 4.4118,14.465 4.8327,20.223 0.30314,4.0329 0.22734,6.8366 0.22734,6.8366 0,0 4.2097,25.258 10.945,30.31 6.7353,5.052 -4.2097,22.732 -4.2097,22.732 z"
       fill="#2f2e41"
       id="path338" /><polygon
       points="116.92,318.56 142.6,325.45 142.6,301.87 128.29,301.87 "
       fill="#ffb6b6"
       id="polygon340" /><polygon
       points="116.92,318.56 142.6,325.45 142.6,301.87 128.29,301.87 "
       opacity="0.1"
       id="polygon342" /><path
       d="m 144.2,317.94 -24.416,-10.103 c 0,0 -32.836,14.313 -30.31,42.097 2.526,27.784 26.1,75.775 26.1,75.775 l 47.149,-20.207 -5.0516,-53.884 -13.471,-33.678 z"
       fill="#f5365c"
       id="path344" /><circle
       cx="133.73"
       cy="287.78"
       r="21.541"
       fill="#ffb6b6"
       id="circle346" /><path
       d="m 162.81,279.98 c -4.2097,4.2097 -7.5775,8.4194 -7.5775,8.4194 l -1.6839,-6.7355 c 0,0 -0.38731,0.28623 -1.0693,0.74091 -2.6689,1.8186 -9.8339,6.3903 -15.584,7.3754 -2.5595,0.43777 -4.8327,0.15992 -6.3146,-1.3808 -3.1404,-3.2752 -4.075,-4.9843 -4.277,-5.8599 l -1.1366,7.4259 -6.1377,2.6437 c 0,0 0,9.2445 6.7355,15.997 0.32837,0.32837 0.64831,0.73248 0.95982,1.204 3.2162,4.8496 5.5231,16.721 6.9881,26.816 1.2966,8.9751 1.9196,16.536 1.9196,16.536 0,0 -6.3734,-7.9816 -13.37,-9.0677 -0.38731,-0.0589 -0.77462,-0.10103 -1.1619,-0.10946 -0.12631,-0.0168 -0.261,-0.0168 -0.38731,-0.0168 -7.5775,0 -23.574,5.8936 -23.574,5.8936 0,0 -10.945,-17.681 -4.2097,-22.732 6.7353,-5.051 10.945,-30.31 10.945,-30.31 0,0 -0.27785,-10.811 2.509,-20.501 2.0712,-7.1986 5.8263,-13.783 12.646,-14.86 15.997,-2.5258 15.997,-11.787 26.1,-1.6839 0.83351,0.83351 1.6754,1.6334 2.5174,2.4079 9.4129,8.6552 19.028,13.934 15.163,17.799 z"
       fill="#2f2e41"
       id="path348" /><rect
       x="60.334"
       y="393"
       width="8"
       height="158"
       fill="#3f3d56"
       id="rect350" /><rect
       x="254.33"
       y="393"
       width="8"
       height="158"
       fill="#3f3d56"
       id="rect352" /><rect
       x="158.33"
       y="326"
       width="53"
       height="53"
       fill="#e9ecef"
       id="rect354" /><polygon
       points="149.33,368.65 158.09,373.93 127.78,408.76 127.78,382.35 "
       fill="#ffb6b6"
       id="polygon356" /><path
       d="m 98.316,329.31 c 0,0 -14.313,3.3678 -7.5775,22.732 6.7355,19.3642 28.626,59.778 35.361,57.252 6.735,-2.526 7.5775,-27.784 7.5775,-27.784 0,0 -0.84194,0.84194 -4.2097,-2.5258 -3.36776,-3.36774 -3.3678,-1.8297 -3.3678,-5.5455 0,-3.7158 -2.7545,-6.4703 -2.7545,-6.4703 l -3.139,-6.5068 c 0,0 0,-30.31 -12.629,-31.994 -12.629,-1.684 -9.2613,0.84194 -9.2613,0.84194 z"
       fill="#f5365c"
       id="path358" /><ellipse
       transform="rotate(-45,158.94,366.78)"
       cx="158.94"
       cy="366.78"
       rx="14.313"
       ry="8.8403997"
       fill="#ffb6b6"
       id="ellipse360" /><rect
       x="36.334"
       y="387"
       width="242"
       height="18"
       fill="#3f3d56"
       id="rect362" /></g><rect
     x="890.3"
     y="1.4604"
     width="64.246"
     height="810.6"
     fill="#5e72e4"
     opacity=".94947"
     stroke-width="1.1905"
     id="rect370" /><g
     transform="matrix(.86183 0 0 .916 1002.2 77.413)"
     id="g430"><path
       d="m425.39 434.7a115.85 115.85 0 0 1-49.69 95.19 114.45 114.45 0 0 1-13.55 8.15c-1.5596 0.8-3.1299 1.56-4.7295 2.28-1.4404 0.66-2.8901 1.28-4.3604 1.87a116.42 116.42 0 0 1-57.57 7.68q-5.0698-0.6-10.01-1.65c-0.13964-0.03-0.29-0.06-0.42968-0.09a113.32 113.32 0 0 1-20.15-6.27 116.01 116.01 0 1 1 160.49-107.16z"
       fill="#f1f1f1"
       id="path372" /><path
       d="m330.75 413.05c-0.10009-0.12-0.21-0.23-0.31982-0.34a33.444 33.444 0 0 0-47.04-0.48c-0.0698 0.06-0.12988 0.12-0.18994 0.18-0.0801 0.07-0.1499 0.13995-0.22022 0.21a33.427 33.427 0 0 0-9.8198 23.68v21a4.5068 4.5068 0 0 0 4.5 4.5h58a4.5068 4.5068 0 0 0 4.5-4.5v-21a33.348 33.348 0 0 0-9.4102-23.25z"
       fill="#2f2e41"
       id="path374" /><circle
       cx="308"
       cy="437.03"
       r="24.561"
       fill="#ffb7b7"
       id="circle376" /><path
       d="m333.82 434.94-2.8999-20.26a2.537 2.537 0 0 0-0.89013-1.59 2.6268 2.6268 0 0 0-0.53028-0.33c-14.85-6.95-29.91-6.95-44.76-0.02a2.4484 2.4484 0 0 0-0.5503 0.35c-0.0596 0.05-0.11962 0.11-0.17968 0.17a2.5315 2.5315 0 0 0-0.7002 1.51l-1.9399 20.29a2.5054 2.5054 0 0 0 0.64014 1.92 2.4772 2.4772 0 0 0 1.4399 0.78 1.8384 1.8384 0 0 0 0.41015 0.04h4.9199a2.5226 2.5226 0 0 0 2.27-1.44l2.1299-4.56a1.4937 1.4937 0 0 1 2.8398 0.45l0.41992 3.36a2.5117 2.5117 0 0 0 2.4805 2.19h32.43a2.4042 2.4042 0 0 0 1.21-0.31995 2.5325 2.5325 0 0 0 0.68018-0.54 2.5064 2.5064 0 0 0 0.58005-2z"
       fill="#2f2e41"
       id="path378" /><path
       d="m368.74 506.59 6.96 23.3a114.45 114.45 0 0 1-13.55 8.15c-1.5596 0.8-3.1299 1.56-4.7295 2.28l-7.2104-30.91-2.7998-11.99 18-2z"
       fill="#ffb7b7"
       id="path380" /><path
       d="m285.91 502.72-0.6001 31.48-0.25976 13.93a113.32 113.32 0 0 1-20.15-6.27l2.3902-29.82 0.6001-7.52z"
       fill="#ffb7b7"
       id="path382" /><path
       d="m368.74 506.59-18.08 2.71 0.22021 2.97 2.1797 29.92a116.42 116.42 0 0 1-57.57 7.68q-5.0698-0.6-10.01-1.65c1.48-6.22 2.7603-11.82 1.1802-12.92a11.979 11.979 0 0 1-1.3501-1.1c-7.3701-7.03-4.6499-22.9-4.6499-22.9l-13.37 0.74001-4.6299 0.25995s2-32 11-32h11l53-5s15-5 19 2c2.1001 3.67 5.8398 11.45 8.9302 18.03 2.7998 5.98 5.0698 10.97 5.0698 10.97z"
       fill="#f5365c"
       id="path384" /><path
       d="m638.37 117.28a115.85 115.85 0 0 1-48.883 93.352c-0.25976 0.18-0.52978 0.37-0.7998 0.56-0.27979 0.2-0.56983 0.4-0.85986 0.59q-2.5203 1.74-5.1401 3.33-3.6899 2.25-7.5503 4.23c-0.0796 0.04-0.16993 0.08-0.25 0.12q-2.2192 1.1399-4.4795 2.16c-0.0503 0.02-0.0903 0.04-0.14013 0.06-0.3501 0.16-0.72022 0.33-1.0801 0.48-2.79 1.24-5.6401 2.37-8.54 3.37q-3.7053 1.305-7.52 2.34a113.73 113.73 0 0 1-15.85 3.18 115.59 115.59 0 0 1-13.76 0.94c-0.38037 0.01-0.76026 0.01-1.1401 0.01-2.5098 0-5.0098-0.08-7.48-0.24-2.1602-0.14-4.2998-0.33-6.4199-0.59-3.27-0.39-6.5-0.91-9.6802-1.59-0.13965-0.02-0.27978-0.05-0.41992-0.08-0.10986-0.02-0.23-0.05-0.33984-0.07-3.2002-0.67-6.3501-1.49-9.44-2.43q-4.3652-1.32-8.5703-2.98c-0.71972-0.28-1.4297-0.56-2.1401-0.86-1.7695-0.74-3.5195-1.51-5.2398-2.34-0.5-0.23-0.98975-0.47-1.48-0.71-1.6602-0.81-3.2998-1.66-4.8999-2.56q-2.8953-1.605-5.6899-3.37c-2.3501-1.48-4.6504-3.04-6.8804-4.69a116 116 0 0 1 70.33-209.48c63.608 0.88355 115.03 53.656 114.34 117.27z"
       fill="#f1f1f1"
       id="path386" /><path
       d="m498.04 229.43c-3.2002-0.67-6.3501-1.49-9.44-2.43l10.61-65.79 10.99-0.34 19.93-0.63 10.22-0.32s7.25 31.86 12.78 67.95a113.73 113.73 0 0 1-15.85 3.18 115.59 115.59 0 0 1-13.76 0.94c-0.38037 0.01-0.76026 0.01-1.1401 0.01-2.5098 0-5.0098-0.08-7.48-0.24-2.1602-0.14-4.2998-0.33-6.4199-0.59-3.27-0.39-6.5-0.91-9.6802-1.59-0.13965-0.02-0.27978-0.05-0.41992-0.08-0.10984-0.02-0.22996-0.05-0.33982-0.07z"
       fill="#cbcbcb"
       id="path388" /><g
       fill="#2f2e41"
       id="g398"><path
         d="m498.8 229.58c-0.13965-0.02-0.27978-0.05-0.41992-0.08-0.10986-0.02-0.23-0.05-0.33984-0.07-3.2002-0.67-6.3501-1.49-9.44-2.43q-4.3652-1.32-8.5703-2.98c-0.71972-0.28-1.4297-0.56-2.1401-0.86-1.7695-0.74-3.5195-1.51-5.2398-2.34-0.5-0.23-0.98975-0.47-1.48-0.71l-0.87988-49.26 27-11.57s0.0898 0.72 12.91 1.59c2.4399 7.96-11.4 68.71-11.4 68.71z"
         id="path390" /><path
         d="m579.5 168.52-5.0898 26.75 0.4795 24.19q-2.2192 1.1399-4.4795 2.16c-0.0503 0.02-0.0903 0.04-0.14013 0.06-0.3501 0.16-0.72022 0.33-1.0801 0.48-2.79 1.24-5.6401 2.37-8.54 3.37q-3.7053 1.305-7.52 2.34a113.73 113.73 0 0 1-15.85 3.18 115.59 115.59 0 0 1-13.76 0.94l-0.53028-42.87c-1.1196-13.82 2.5903-22.96 7.1401-28.88 24.25-3.24 23.71-3.53 23.71-3.53l25.71 11.57z"
         id="path392" /><path
         d="m481.86 174.71-1.8301 49.31c-0.71972-0.28-1.4297-0.56-2.1401-0.86-1.7695-0.74-3.5195-1.51-5.2398-2.34-0.5-0.23-0.98975-0.47-1.48-0.71-1.6602-0.81-3.2998-1.66-4.8999-2.56q-2.8953-1.605-5.6899-3.37l9.71-43.33z"
         id="path394" /><path
         d="m589.49 210.63c-0.25976 0.18-0.52978 0.37-0.7998 0.56-0.27979 0.2-0.56983 0.4-0.85986 0.59q-2.5203 1.74-5.1401 3.33-3.6899 2.25-7.5503 4.23c-0.0796 0.04-0.16993 0.08-0.25 0.12q-2.2865 1.1745-4.6168 2.2217l-3e-3 -2e-3 -1.8301-49.48 11.06-3.68 0.50976-0.17z"
         id="path396" /></g><ellipse
       transform="rotate(-73.66)"
       cx="36.957"
       cy="533.76"
       rx="28.603"
       ry="28.529"
       fill="#9f616a"
       id="ellipse400" /><path
       d="m493.87 121.88v-11.131s-8.9767-10.572 0.89767-13.236c0 0 2.693-26.632 26.032-14.204 0 0 32.316-5.3264 28.725 13.316 0 0 8.079-4.8669 5.386 7.5613l-5.2083 20.02s2.5154-13.224-5.5637-15l-4.4884-2.6632s-12.567 12.428-31.418-2.6632c0 0-8.079-1.9282-7.1814 6.0613s-7.1814 11.939-7.1814 11.939z"
       fill="#2f2e41"
       id="path402" /><path
       d="m229.04 123.98a112.88 108.76 0 0 1-48.415 89.365c-0.27262 0.18776-0.55521 0.37553-0.83779 0.5539q-2.4556 1.6335-5.0082 3.1262-3.5952 2.1123-7.3565 3.9712c-1.5195 0.75105-3.0496 1.4645-4.6081 2.1405-0.39011 0.16898-0.78927 0.34735-1.1889 0.50696-2.7184 1.1641-5.4954 2.225-8.3208 3.1638a111.27 107.22 0 0 1-22.77 5.1822 113.31 109.18 0 0 1-14.518 0.89187c-2.4454 0-4.8812-0.0751-7.288-0.22531-2.1047-0.13143-4.1895-0.30981-6.2552-0.5539-3.3226-0.38491-6.6063-0.90126-9.8409-1.5678-0.10704-0.0188-0.2241-0.0469-0.33112-0.0657a110.41 106.38 0 0 1-19.633-5.8863c-1.7241-0.69472-3.4292-1.4176-5.1053-2.1968q-3.1713-1.4364-6.2161-3.0699a113.03 108.91 0 1 1 167.69-95.336z"
       fill="#f1f1f1"
       stroke-width=".95641"
       id="path404" /><circle
       cx="112.83"
       cy="119.57"
       r="25.903"
       fill="#ffb8b8"
       id="circle406" /><path
       d="m102.12 232.05c-3.4102-0.41-6.7803-0.96-10.1-1.67l3.1499-70.88 0.4502-0.47 6.4497-6.81h20.51l7.5698 7.33 0.64014 0.63 16.19 15.51 7.3101 50.72a114.2 114.2 0 0 1-23.37 5.52 116.3 116.3 0 0 1-14.9 0.95c-2.5098 0-5.0098-0.08-7.48-0.24-2.1601-0.13999-4.2998-0.32999-6.4199-0.59z"
       fill="#cbcbcb"
       id="path408" /><g
       fill="#2f2e41"
       id="g420"><path
         d="m66.287 221.7q-3.2549-1.53-6.3799-3.27c-0.21-19.2-0.3501-31.95-0.3501-31.95l2.4399-1.49a0.80438 0.80438 0 0 1 0.0898-0.04l27.69-16.82 5.81-9.44 0.0303 0.34 1.71 19.9a346.74 346.74 0 0 1 11.21 53.71c-2.1602-0.14-4.2998-0.33-6.4199-0.59-3.4102-0.41-6.7803-0.96-10.1-1.67-0.10986-0.02-0.23-0.05-0.33984-0.07a113.32 113.32 0 0 1-20.15-6.27c-1.7696-0.74002-3.5196-1.51-5.2398-2.34z"
         id="path410" /><path
         d="m154.29 226.41a114.2 114.2 0 0 1-23.37 5.52 91.267 91.267 0 0 1-1.21-19.55c2.1602-34.53-2.8198-53.69-0.65967-53.69l1.0996 0.86 13.59 10.74 17.89 6.56h0.0103l12.31 4.51 2.1699 0.80005v1.03c0.01 3.56 0.0298 16.02 0.21 32.8q-3.6899 2.25-7.5503 4.23c-1.5596 0.8-3.1299 1.56-4.7295 2.28-0.40039 0.18-0.81006 0.37-1.2202 0.54-2.79 1.24-5.6401 2.37-8.54 3.37z"
         id="path412" /><path
         d="m88.325 127.67s2.2008-3.865 1.6892-16.776c-0.51164-12.911 19.15-5.6089 35.578-6.8406s12.951 21.556 12.951 21.556 1.1852-1.3546 3.7229-12.353-3.2241-21.958-3.2241-21.958c-1.6969-11.557-10.842-7.8529-10.842-7.8529 4.4042 1.7145 3.5583 5.3805 3.5583 5.3805-3.728-6.5362-12.873-2.8322-12.873-2.8322-12.197-7.6539-24.559 2.4253-24.559 2.4253-14.735 3.3441-6.0933 15.062-6.0933 15.062-14.818 7.4885 0.0913 24.189 0.0913 24.189z"
         id="path414" /><path
         d="m47.337 210.37c0.38038-8.79 0.5503-14.46 0.3501-15.25-1.0298-4.12 13.03-9.64 14.31-10.13a0.80438 0.80438 0 0 1 0.0898-0.04l2.8604 1.53 1.3398 35.22q-3.2549-1.53-6.3799-3.27a115.18 115.18 0 0 1-12.57-8.06z"
         id="path416" /><path
         d="m176.33 215.99q-3.6899 2.25-7.5503 4.23c-1.5596 0.8-3.1299 1.56-4.7295 2.28-0.40039 0.18-0.81006 0.37-1.2202 0.54l-4.5-44.43 2.6299-1.92s0.24024 0.06 0.66992 0.16h0.0103c2.1099 0.52 8.5898 2.2401 12.31 4.51a7.7139 7.7139 0 0 1 2.1699 1.83 2.2227 2.2227 0 0 1 0.50976 1.58c-0.11963 1.16 1.8804 12.16 4.8403 27.89q-2.5202 1.74-5.1401 3.33z"
         id="path418" /></g><circle
       cx="309.39"
       cy="554.48"
       r="26.436"
       fill="#5e72e4"
       id="circle422" /><polygon
       transform="translate(193.39 324.49)"
       points="130.8 222.86 113.48 241.14 105.57 230.97 110.17 227.39 113.92 232.21 126.57 218.85"
       fill="#fff"
       id="polygon424" /><circle
       cx="116.02"
       cy="232.87"
       r="26.436"
       fill="#5e72e4"
       id="circle426" /><polygon
       transform="translate(-204.98 -347.67)"
       points="335.8 574.86 318.48 593.14 310.57 582.97 315.17 579.39 318.92 584.21 331.57 570.85"
       fill="#fff"
       id="polygon428" /></g><g
     transform="translate(2241.5 628.09)"
     id="g472"><polygon
       transform="translate(-1210.5 -367.83)"
       points="479.89 539.42 467.13 539.42 461.06 490.22 479.89 490.22"
       fill="#ffb6b6"
       id="polygon432" /><path
       d="m-730.91 167.43-13.62-5.54-0.39-0.16-7.52 5.7a16.013 16.013 0 0 0-16.01 16.01v0.52h41.13v-16.53z"
       fill="#2f2e41"
       id="path434" /><polygon
       transform="translate(-1210.5 -367.83)"
       points="595.15 522.84 583.74 528.53 556.36 487.2 573.21 478.8"
       fill="#ffb6b6"
       id="polygon436" /><path
       d="m-614.25 149.83-2.92 1.45-0.3 0.15-14.64 1.13-0.44 0.03-4.19 8.45a16.002 16.002 0 0 0-7.18 21.47l0.23 0.46 36.81-18.34z"
       fill="#2f2e41"
       id="path438" /><path
       d="m-739.22-92.872 70.341 2.462 0.4901-0.71233s6 14 6 26c0 3.9898-2.7748 30.085-1.3642 35.022 0.17544 0.614-1.0316 2.1187-0.63578 4.978 0.25685 1.8553 1.6742 0.42823 2 3 0.23381 1.8458-2.261 2.8648-2 5 0.28513 2.3326 3.7169 9.8888 4.0258 12.484 3.2887 27.626 7.6674 67.648 7.6674 67.648s17.587 47.103 21.307 47.869c6.2446 1.2843 10.46 12.639 7 15-1.6478 1.1244-22.945 8.6886-22.945 8.6886-1.1702 0.21173-4.8309-1.6244-2.4988-5.9666 0.42932-0.79932-2.1311 1.2349-2.5566 0.278-0.45254-1.0176 0.43581-5.067-0.0825-6.1965-4.6543-10.143-11.8-24.2-18.572-31.418a68.601 68.601 0 0 1-18.085-38.765l-15.532-86.125-5.3235 24.152-4.4049 4.3528 1.2084 10.149-0.20845 9.8509-11 41s-1.6497 76.568 1 79c1.4351 1.3169 7.5245 17.538-4 19l-20.938-1.6154s-2.8212-5.9451-1.4106-8.061 1.326-1.5383-0.395-5.001-1.0156-9.33-1.0156-9.33a691.21 691.21 0 0 1-3.2405-82.993c1.0497-45.503 7.4104-97.777 7.4104-98.842a7.035 7.035 0 0 0-0.5859-3.173v-2.8721l2.7018-10.177z"
       fill="#2f2e41"
       id="path440" /><circle
       cx="-640.24"
       cy="-112.05"
       r="27.78"
       fill="#5e72e4"
       id="circle442" /><path
       d="m-644.03-97.592a3.0893 3.0893 0 0 1-2.4719-1.2363l-7.5788-10.105a3.0901 3.0901 0 1 1 4.9442-3.7079l4.9583 6.6106 12.735-19.102a3.0902 3.0902 0 1 1 5.1424 3.4283l-15.158 22.736a3.0915 3.0915 0 0 1-2.4854 1.3751c-0.0287 5e-4 -0.0573 1e-3 -0.086 1e-3z"
       fill="#fff"
       id="path444" /><path
       d="m-626.5-82.682a7.9881 7.9881 0 0 0-7.3119-9.827l-14.234-48.498-9.6294 11.175 15.32 45.409a8.0314 8.0314 0 0 0 15.856 1.7412z"
       fill="#ffb8b8"
       id="path446" /><path
       d="m-636.54-106.34-1.85-6.78 2.12-4.05-0.16-0.47-0.64-1.82-3.32-2.66 1.19-3.39-4.2-11.93-1.03-2.07-24.11-48.41-5.78-11.61-1.34-2.1-4.17-6.54-5.7-8.93a12.749 12.749 0 0 0-8.08-5.63 12.949 12.949 0 0 0-1.6201-0.25l-0.38995-0.03a12.871 12.871 0 0 0-2.91 0.17h-0.02a12.476 12.476 0 0 0-4.74 1.88 12.74 12.74 0 0 0-2.98 2.68 12.905 12.905 0 0 0-2.85 8.55l0.18 4.88 0.18 4.44 8.46 15.3 0.55 1 0.01 0.03 26.03 47.1 7.85 14.2 1.19 2.16 5.28 3.5-1.41 3.52 0.41 5.48 4.49 3.39 6.51 6.61 0.26 0.54 2-1.01 0.19-0.1 0.45-0.13 6.19-1.87 3.76-1.13 0.12-0.04 1.03-0.26z"
       fill="#e6e6e6"
       id="path448" /><path
       d="m-529.53 113.82a15.265 15.265 0 0 0-16.3-5.21l-0.64 0.19-5.74 22.41c-0.86-3.34-2.7-10.88-3.86-18.26l-0.1-0.61005-0.56995 0.25a77.842 77.842 0 0 0-16.79 10.12 80.525 80.525 0 0 0-30.11 60.64l-0.01 0.43-0.01 0.27 0.76-0.27 16.31-5.83a48.688 48.688 0 0 0 39.26-14.64c6.59-6.95 11.11-15.89 15.48-24.54 1.28-2.52 2.59-5.12 3.93-7.62a15.517 15.517 0 0 0-1.61-17.33z"
       fill="#344767"
       id="path450" /><circle
       cx="-783.24"
       cy="-340.05"
       r="27.78"
       fill="#5e72e4"
       id="circle452" /><path
       d="m-785.15-323.72a3.0893 3.0893 0 0 1-2.4719-1.2363l-7.5788-10.105a3.0901 3.0901 0 1 1 4.9442-3.7079l4.9583 6.6106 12.735-19.102a3.0902 3.0902 0 1 1 5.1424 3.4283l-15.158 22.736a3.0915 3.0915 0 0 1-2.4854 1.3751c-0.0287 5e-4 -0.0573 1e-3 -0.086 1e-3z"
       fill="#fff"
       id="path454" /><path
       d="m-661.39-68.312a18.113 18.113 0 0 1-1 6.19l-0.15-0.03c-17.761 3.0717-33.604 3.5746-40.933-7.3274-9.562-12.176-22.715-12.038-37.387-6.6925l-1.74-1.88-2.96-3.19 2.72-3.08-2.72-5.94 2.27-7.33 2.9-0.53004-0.78-6.31-1.22-3.69 3.58-3.93 3.04-9.81-2.19-20.53a136.76 136.76 0 0 1 16.62-81.22l8.31-7.46 3.45-3.1 4.63-8.64 4.89 0.57 13.24 1.53 0.45 1.08 3.25 7.84 17.12 18.39-0.77 7.76-0.34 3.42-0.25 2.46-1.18 11.84-4.81 48.37-0.36 2.57-3.87 27.81c6.29 6.08 11.85 17.79 14.52 28.49 0.3 1.19-0.55 2.4-0.33 3.56 0.31 1.64 1.66 3.2 1.81 4.73a36.372 36.372 0 0 1 0.19 4.08z"
       fill="#e6e6e6"
       id="path456" /><circle
       cx="-695.3"
       cy="-268.9"
       r="22.996"
       fill="#ffb6b6"
       id="circle458" /><path
       d="m-667.58-275.18c-1.3611-4.2431-5.0945-7.8332-9.5257-8.3023a15.512 15.512 0 0 0-22.738-15.503 4.8234 4.8234 0 0 0-4.4314-1.684 9.9457 9.9457 0 0 0-4.501 1.9721 22.321 22.321 0 0 0-8.9284 21.111c-0.0102-2.0277 0.88812 1.8953 3.4638 2.242a16.99 16.99 0 0 1 6.0172 2.482 17.505 17.505 0 0 0 6.0051 2.5171c2.1613 0.31613 2.7185 8.98 1.1748 14.56-0.29258 1.0575-0.4412 2.4764 0.53344 2.9803 1.2003 0.62066 2.4135-0.93974 3.7563-1.0919a2.3252 2.3252 0 0 1 2.3587 2.2068 3.7908 3.7908 0 0 1-1.5827 3.0891 11.202 11.202 0 0 1-3.2356 1.5675l0.38768 0.55043a3.0801 3.0801 0 0 0 3.6282 1.4788c1.5377 1.8549 17.385-3.2955 18.157-6.6811a37.403 37.403 0 0 0 8.1384-10.513 17.87 17.87 0 0 0 1.3218-12.983z"
       fill="#2f2e41"
       id="path460" /><path
       d="m-648.98-205.14c-0.31994 2.68-2.83 4.68-5.47 5.24a11.832 11.832 0 0 1-4.07 0.07 27.76 27.76 0 0 1-3.9-0.87q-2.37-0.675-4.69-1.52a74.341 74.341 0 0 1-12.72-5.95 75.232 75.232 0 0 1-8.76-5.98q-2.16-1.71-4.19-3.57l1.69 0.8q-2.265-3.045-4.53-6.09-2.19-2.94-4.37-5.88c-0.09-0.12-0.16-0.2-0.19-0.24v-0.01c-0.67-0.89-1.33-1.78-1.99-2.67-1.99-2.67-3.95-6.59-1.66-9a4.2923 4.2923 0 0 1 3.73-1.13 5.9393 5.9393 0 0 1 2.05 0.66 14.462 14.462 0 0 1 4.35 4.39c1.56-2.27 4.59-3.11 7.33-2.74 0.15 0.01 0.29 0.03 0.43 0.05 2.85 0.49 4.08-1.05 6.55 0.46 1.15 0.7 1.85 4.3 3 5 0.65 0.4 3.06 1 3.72 1.41 1.3 0.8 0.97 3.79 2.28 4.59 0.97 0.59 3.57-1 4.54-0.41 1.02 0.63 2.44 4.79 3.46 5.41 2.03 1.25 3.66-1.03 5.69 0.21 2.61 1.61 5.39 3.4 6.49 6.26 0.97 2.52-0.28 5.97-2.69 6.69a4.4662 4.4662 0 0 1 3.92 4.82z"
       fill="#e6e6e6"
       id="path462" /><path
       d="m-667.11-202.22-0.25 2.46a33.963 33.963 0 0 1-8.3-1.87 17.534 17.534 0 0 1-8.73-6.49c-1.36-2.04-2.78-4.07-4.2-6.03-2.36-3.28-4.7-6.34-6.64-8.83-2.37-3.01-4.15-5.19-4.76-5.91-0.09-0.12-0.16-0.2-0.19-0.24l-0.03-0.03 0.03 0.02c11.882 15.038 23.105 23.71 33.41 23.5 0 0 1.21 3.98-0.34 3.42z"
       opacity=".2"
       id="path464" /><path
       d="m-775.85-322.65a7.9882 7.9882 0 0 0 7.1204 9.9666l13.293 48.764 9.8439-10.986-14.439-45.697a8.0314 8.0314 0 0 0-15.819-2.0477z"
       fill="#ffb8b8"
       id="path466" /><path
       d="m-697.8-197.95-0.09-4.44-8.38-15.89-0.31-0.58-0.02-0.03-6.43-12.18-31.028-58.826-3.3325-1.224 0.1666-4.7784-0.1666-5.2216-4.0032-2.6839-1.7068-3.2361-2.42 0.69h-0.01l-0.07 0.02-10.58 2.97h-0.01l-2.2 1.24-2 6-0.43785 2.8406 0.43785 5.1594 5 1-1.6564 5.2904 5.0264 15.22c6.29 26.6 14.88 49.56 29.71 62.67l1.22 2 9.65 15.79a12.806 12.806 0 0 0 12.89 5.99h0.01a12.683 12.683 0 0 0 4.78-1.78 12.495 12.495 0 0 0 3.46-3.17 12.884 12.884 0 0 0 2.59-7.95z"
       fill="#e6e6e6"
       id="path468" /><path
       d="m-522.49 186.07-271.75 0.30733a1.1907 1.1907 0 0 1 0-2.3814l271.75-0.30733a1.1907 1.1907 0 0 1 0 2.3814z"
       fill="#344767"
       id="path470" /></g><g
     transform="translate(-171.72 213.57)"
     id="g544"><path
       d="m812.66 351.01-48.322-14.792c-1.0688-0.32716-2.1904-0.4466-3.3042-0.3518l-244.9 20.843c-3.4918 0.29715-4.3694 5.0069-1.219 6.5418l7.8447 3.8218h-0.20917v182.95h7.392v-179.45l24.586 11.978c1.8812 0.91644 3.9805 1.2905 6.0623 1.0802l2.6159-0.26422v166.66h7.392v-167.41l189.42-19.133v186.54h7.392v-187.29l31.416-3.1733v190.46h7.392v-191.21l5.7314-0.57891c4.0236-0.40645 4.5792-6.0458 0.71223-7.2294z"
       fill="#3f3d56"
       id="path504" /><path
       d="m587.23 355.98c4.62 0 72.996-8.316 72.996-8.316l10.164 13.86-71.148 13.86-12.012-19.404z"
       fill="#e9ecef"
       id="path506" /><path
       d="m819.42 589.42-32.019-101.77 5e-3 -3.4e-4h0.0739l-0.12937-0.16637-3e-3 -4e-3 -2.2806-7.2488 1e-3 -9e-4c3.4742-2.9938 5.8397-7.2719 6.3109-12.197l-14.636-80.499c1.0072-10.571-7.0963-19.811-17.713-20.189l-33.024-0.0831c-9.3878-0.33263-17.519 6.4495-18.887 15.745l-0.72994 4.9341-10.118 68.829c-0.36962 2.4762-0.22175 4.9157 0.36037 7.198l-7.2811 0.95175-2.2084 0.29563-8.7318 1.1365-0.0277 9e-3 -1.0903 0.13862h-1.1828v29.568h0.0739v94.507c0 0.60976 0.49894 1.1088 1.1088 1.1088 0.61906 0 1.118-0.499 1.118-1.1088v-94.507h12.954l12.927 94.396c0.0832 0.55449 0.55438 0.96099 1.1088 0.96099 0.0462 0 0.10163 0 0.14781-9e-3 0.60987-0.0831 1.0349-0.64675 0.95175-1.2566l-12.881-94.091h62.157c6.1717 0 11.891-1.9585 16.547-5.3121l24.645 99.535c0.12825 0.50373 0.58088 0.83839 1.0778 0.83839 0.0907 0 0.18312-0.0108 0.27527-0.0342 0.59555-0.15159 0.95558-0.75752 0.80421-1.3531l-24.883-100.5c0.33093-0.27589 0.66192-0.57005 0.97453-0.87347l9.893-0.58179 32.186 102.3c0.14939 0.47497 0.58821 0.77929 1.0613 0.77929 0.11059 0 0.22305-0.0168 0.3342-0.0517 0.58635-0.18475 0.9121-0.80974 0.72763-1.396zm-36.468-107.61c0.0831-0.0463 0.15706-0.10174 0.231-0.14798l5.6e-4 -4.5e-4 0.23777 0.75571z"
       fill="#3f3d56"
       id="path508" /><g
       transform="matrix(.81989 0 0 .90156 1263.8 1119.5)"
       id="g542"><g
         transform="matrix(.75384 .0059664 -.0067802 .72026 -931.15 -973.35)"
         id="g518"><polygon
           points="252.33 421.52 261.15 480.09 245.96 482.37 229.92 424.9"
           fill="#ffb6b6"
           id="polygon510" /><path
           d="m264.07 495.85-46.691 7.0319-0.0889-0.59042c-1.5113-10.037 5.3994-19.398 15.436-20.911l1e-3 -1.7e-4 7.554-7.7551 16.888 4.0742 4.0759-0.6139 2.8259 18.764z"
           fill="#2f2e41"
           id="path512" /><polygon
           points="361.13 414.74 387.37 467.84 373.61 474.64 340.82 424.78"
           fill="#ffb6b6"
           id="polygon514" /><path
           d="m394.95 481.96-42.33 20.921-0.26457-0.53527c-4.4968-9.0993-0.76636-20.121 8.3324-24.619l1e-3 -5e-4 4.8327-9.6876 17.326-1.2637 3.6952-1.8263 8.4076 17.012z"
           fill="#2f2e41"
           id="path516" /></g><g
         stroke-width=".73688"
         id="g528"><path
           d="m-616.76-747.34 0.82817-67.738 16.925-4.1371-5.5809 71.689c1.3815 1.0687 2.4677 2.5163 3.0522 4.2542 1.6012 4.7602-1.1406 9.8621-6.124 11.395-4.9833 1.5332-10.321-1.0828-11.922-5.843-1.1981-3.562 0.0363-7.3145 2.8213-9.6207z"
           fill="#ffb6b6"
           id="path520" /><path
           d="m-724.36-766.04 3.7389-67.65 17.088-3.4696-8.6573 71.412c1.3344 1.122 2.3574 2.6111 2.8667 4.3705 1.3952 4.8192-1.5635 9.8093-6.6085 11.146-5.0448 1.3364-10.265-1.4869-11.661-6.3061-1.0439-3.6061 0.35076-7.3071 3.2324-9.5022z"
           fill="#ffb6b6"
           id="path522" /><path
           d="m-677.48-741.4-44.103 13.439-25.834 7.8688c10.639 18.179 9.1612 73.845 8.2775 78.461l-22.498-0.17807c-0.17805-4.1553-15.6-58.606-20.084-83.249-5.8348-32.069 23.034-39.959 23.034-39.959l41.738-15.492 46.783-10.869c0.91871 1.6941 1.7151 3.3466 2.4032 4.9622 5e-3 4e-3 5e-3 0.0136 9e-3 0.0181 12.202 28.633-9.7277 44.998-9.7277 44.998z"
           fill="#2f2e41"
           id="path524" /><path
           d="m-619.89-766.59c-0.71975 9.2628-4.8192 15.504-4.8192 15.504l-58.177 42.784c11.509 9.5175 39.039 56.226 41.449 62.41l-25.204 3.4021c-2.7153-4.9061-46.027-52.22-50.279-59.321-5.5118-9.2039-6.2155-18.198-4.6632-26.142 3.2089-16.441 16.1-28.395 16.1-28.395l31.953-27.539 5.7259-2.503 0.0427-0.0178 32.123-14.039c5.4774 4.8332 9.1986 9.7022 11.656 14.403 2.7126 5.1902 3.8789 10.174 4.1387 14.668 0.0976 1.6695 0.0731 3.266-0.0451 4.785z"
           fill="#2f2e41"
           id="path526" /></g><g
         fill="#5e72e4"
         stroke-width=".73688"
         id="g536"><path
           d="m-646.85-910.71-31.616-1.1523-9.5422 10.749c-9.0876 0.93774-17.1 4.2373-23.703 10.637 0 0 5.0712 13.326 3.3856 41.521-0.87881 14.699 2.3644 41.81 1.8676 52.333-0.44253 9.3727 0.99636 13.566 1.2887 13.541 1.2499-0.10912 7.1099-3.1009 18.876 0.60042 11.766 3.7013 63.484-3.6031 63.484-3.6031l-3.2967-21.629 4.4918-13.531 2.451-72.108c-9.8741-4.1374-15.053-5.5314-24.494-5.6061l-3.1937-11.752z"
           id="path530" /><path
           d="m-628.99-887.85 9.3553-5.5044s17.018-2.5714 15.309 28.536c0 0 9.0995 22.491 8.3498 42.036-0.0465 1.2114-1.3322 2.9959-0.25748 3.5943 2.2828 1.271 1.182 2.4498-0.5308 3.5911l-21.382 4.3791c-1.887-1.7273-2.8403-3.3354-1.2938-4.6245-1.7222-0.61142-2.1526-1.4415-0.72361-2.5862-0.78955-0.14815-1.148-0.60667-0.50068-1.7895l-10.315-21.358 1.9893-46.273z"
           id="path532" /><path
           d="m-701.05-886.36-10.016-4.2985s-17.221-0.44016-11.348 30.195c0 0-5.3816 21.009-3.0931 39.615 0.0507 0.41196 0.44438 0.91781 0.16341 1.232-0.94778 1.06-1.0707 2.1126 0.53585 3.1557 0.55728 0.36185 0.74377 1.3295 0.40976 1.8811-1.0755 1.7759-0.33876 2.9441 1.0977 3.8628l25.066 8.5275 7.1341-50.224z"
           id="path534" /></g><ellipse
         transform="matrix(.99997 .0079145 -.0094132 .99996 0 0)"
         cx="-674.39"
         cy="-934.35"
         rx="26.747"
         ry="25.556"
         fill="#ffb6b6"
         stroke-width=".73688"
         id="ellipse538" /><path
         d="m-640.64-922.38c-0.3291 0.57714-1.2815 1.3518-2.5642 2.2089-1.4587 0.97401-3.3398 2.0504-5.2065 3.0783 0 0-6.7208-0.74911-4.0411-4.1325 0.30018-0.37531 0.58169-0.7931 0.83836-1.2326 0.93963-1.6245 1.408-3.5346 0.24981-4.9056-0.85775-1.0122-2.497-1.3232-3.695-0.69775-1.1958 0.61859-0.75672 0.61815-1.2134 0.49395-1.1043-1.2366-2.9162-0.68073-2.9162-0.68073s1.429-3.027 2.5489-4.3104c1.1272-1.2814 2.2865-2.6964 2.4153-4.3616 0.13198-1.597-0.70323-3.105-1.5093-4.5002-0.87349-1.5109-1.7418-3.0129-2.6153-4.5239-0.29533-0.50721-0.58853-1.0213-0.91181-1.5138-3.1331-4.8369-13.505-0.0245-19.456-0.28001-5.9492-0.26226-7.8901-7.2017-11.473-2.6559-0.82246-3.6242-1.4386-6.4433-2.2588-9.5501-0.74872-2.8478 2.6055-5.1564 5.1287-3.474 0.0196 0.0135 0.0322 0.0245 0.0519 0.0372 0.36019-0.41887 0.6272-0.89294 0.80406-1.4068 0.12208-0.35624 0.31249-0.67902 0.54333-0.95328 0.84517 0.58199 1.6924 1.1569 2.5304 1.7368-0.14743-0.97627-0.47706-1.9199-0.95372-2.791 0.74548-0.23927 1.5812-0.22922 2.3641 0.0888l1.4075 0.56255c0.42964-0.3625 0.7453-0.81602 0.95844-1.3198 0.57312-1.3946 2.0236-2.236 3.5842-2.0814 2.5195 0.25085-0.80453-0.30418 1.7147-0.84002 3.8591-0.82312 8.152-1.6031 11.56 0.31982 5.0999 2.8699 8.9568 4.9789 17.996 5.7707 4.4959 2.9168 6.3771 9.864 7.7329 13.356 1.079 2.7654 1.8524 8.2338 0.65321 10.964-3.0243 6.9001-0.54484 11.012-4.2662 17.596z"
         fill="#2f2e41"
         stroke-width=".73688"
         id="path540" /></g></g><g
     id="g4520"
     transform="matrix(3.5424504,0,0,2.9611478,1714.1558,2605.8535)"><path
       d="m -264.3811,-791.31532 h -190.2262 a 5.0058,5.0058 0 0 1 -5,-5 v -77.18554 a 5.0058,5.0058 0 0 1 5,-5 h 190.2262 a 5.00573,5.00573 0 0 1 5,5 v 77.18554 a 5.00573,5.00573 0 0 1 -5,5 z"
       fill="#5e72e4"
       id="path4420"
       style="fill:#ffffff;fill-opacity:1" /></g><g
     transform="translate(866.86 1388.9)"
     id="g594"><g
       transform="translate(-1.8767 35.657)"
       id="g592"><path
         d="m-433.4-1122.3-27.55-95.419c-6.1632-21.346-23.687-35.777-43.447-35.777h-1e-4c-21.978 0-40.848 17.778-44.932 42.333l-15.236 91.61c-2.1817 13.118 6.4183 25.274 18.025 25.816v62.635h4.2519v-62.609h89.292v62.609h4.2519v-62.857c11.487-1.9356 19.107-15.307 15.344-28.342z"
         fill="#3f3d56"
         stroke-width=".79542"
         id="path546" /><g
         transform="matrix(.9012 0 0 .93645 -74.228 -503.27)"
         id="g590"><polygon
           transform="matrix(.71653 0 0 .75125 -661.13 -984.47)"
           points="435.5 623.61 434.5 607.61 396.5 607.61 392.5 629.61 418.5 633.61"
           fill="#575a89"
           id="polygon548" /><path
           d="m-470.89-838.26s-1.4331 17.279-5.0157 18.03 7.8818 30.801 7.8818 30.801h17.197l13.614-3.7562-6.4488-16.527s-8.5984-12.02-2.1496-21.786-25.079-6.7612-25.079-6.7612z"
           fill="#a0616a"
           stroke-width=".73368"
           id="path550" /><path
           d="m-470.89-838.26s-1.4331 17.279-5.0157 18.03 7.8818 30.801 7.8818 30.801h17.197l13.614-3.7562-6.4488-16.527s-8.5984-12.02-2.1496-21.786-25.079-6.7612-25.079-6.7612z"
           opacity=".1"
           stroke-width=".73368"
           id="path552" /><g
           fill="#2f2e41"
           stroke-width=".73368"
           id="g560"><path
             d="m-506.72-706.04s-18.63 37.562-3.5826 45.075 18.63 6.7612 18.63 9.015c0 2.2538-2.8661 1.5025-1.4331 5.2587s-2.8661 18.781 1.4331 27.796c4.2992 9.015 2.8661 15.776 2.8661 15.776s0 0.75125 1.4331 3.7562c1.4331 3.005 2.1496 5.2587 1.4331 6.7612-0.71653 1.5025-5.0157 11.269-0.71653 13.522 4.2992 2.2537 26.512 3.7562 28.661 0 2.1496-3.7562-2.1496-6.01 0-8.2637s3.5826-3.005 2.1496-4.5075c-1.4331-1.5025-2.8661-20.284-2.8661-20.284s3.5826-21.786 2.1496-24.791c-1.4331-3.005-3.5826-6.01-2.1496-8.2637 1.4331-2.2538 2.8661-1.5025 3.5826-4.5075 0.71653-3.005 2.1496-9.7662 2.1496-9.7662l7.8818-0.75125 18.63 3.7562s20.779 24.04 43.708 31.552c0 0 6.4488 6.7612 8.5984 6.7612 2.1496 0 2.1496 0 1.433 1.5025-0.71653 1.5025-2.8661 1.5025-1.433 3.005 1.433 1.5025 3.5826-0.75124 2.1496 1.5025s-2.8661 2.2537-1.4331 3.7562c1.4331 1.5025-0.71652 9.7662-0.71652 10.517s-6.4488 71.369-4.2992 72.871c2.1496 1.5025 32.244 6.01 34.393 0 2.1496-6.01-1.433-13.522-1.433-13.522s10.748-90.15 7.8818-96.16c-2.8661-6.01-12.898-33.055-66.637-50.334 0 0-15.047-3.005-15.047-5.2587 0-2.2537-1.433-16.527-4.2992-17.279-2.8661-0.75124-19.346-1.5025-19.346-1.5025l-20.779 6.7612-28.661-5.2587z"
             id="path554" /><path
             d="m-481.64-579.83-3.5826 13.522s-2.8661 21.786 0.71653 27.045c2.8141 4.1306 7.8386 9.1882 17.157 10.076a11.515 12.073 0 0 0 12.022-8.3522 3.5873 3.7611 0 0 0 0.19847-0.97246c0-1.5025-2.1496-19.532-2.1496-19.532l-3.5826-18.781-0.71653-5.2587z"
             id="path556" /><path
             d="m-377.02-515.23s-3.5826-3.7562-4.2992 0-3.5826 19.532 1.4331 20.284c5.0157 0.75125 53.023 8.2637 58.039 5.2587s14.331-7.5125 8.5983-9.7662c-5.7322-2.2538-22.212-9.015-22.212-9.015s-9.3149-12.771-10.748-13.522-9.3149 0.75125-12.898 3.7562-17.913 3.005-17.913 3.005z"
             id="path558" /></g><ellipse
           cx="-453.69"
           cy="-845.78"
           rx="22.212"
           ry="23.289"
           fill="#a0616a"
           stroke-width=".73368"
           id="ellipse562" /><g
           fill="#575a89"
           stroke-width=".73368"
           id="g570"><path
             d="m-455.84-793.19-8.5984-9.7662-9.5309-19.532s-6.9493-2.2537-8.3823 1.5025-27.228 15.776-27.228 15.776 6.4488 63.105 3.5826 69.115c-2.8661 6.01-7.8818 30.05-3.5826 32.304 4.2992 2.2538 24.362 0 30.811 3.005 6.4488 3.005 25.078 3.005 30.094-0.75124 5.0157-3.7562 6.4488-6.7612 11.464-4.5075 4.27 1.9187 14.252-63.677 17.126-83.224a8.4866 8.8978 0 0 0-3.5168-8.6466c-6.4292-4.7282-18.008-12.876-20.058-11.802-2.8661 1.5025-12.181 16.527-12.181 16.527z"
             id="path564" /><path
             d="m-425.03-796.19a8.4977 8.9094 0 0 1 6.3847 7.6596l5.7963 54.694s-14.331 32.304-21.496 10.517 9.3149-72.871 9.3149-72.871z"
             id="path566" /><path
             d="m-426.47-728.58 15.764-4.5075s2.8661 21.035 5.7322 21.035c2.8661 0-10.031 12.02-16.48 10.517-6.4488-1.5025-15.764-6.7612-16.48-10.517-0.71653-3.7562 6.4488-19.532 6.4488-19.532z"
             id="path568" /></g><g
           stroke-width=".73368"
           id="g586"><path
             d="m-470.46-835.73c1.5104-3.4918 1.2482-7.5648 2.4968-11.168a12.702 13.317 0 0 1 19.313-6.296c1.6063 1.2008 3.2167 2.8879 5.1773 2.6587 2.1114-0.24685 3.9946-2.7165 5.9359-1.8114 2.1516 1.0032 1.5704 5.046 3.7502 5.9797 1.1474 0.49151 2.5032-0.26528 3.165-1.364a8.0427 8.4325 0 0 0 0.92134-3.7384c0.30077-3.2041 0.57257-6.5952-0.7528-9.4995a21.703 22.754 0 0 1-1.4533-3.0725 10.027 10.513 0 0 1-0.2763-3.0308c-0.0121-3.7661-0.2743-7.6944-2.082-10.949-2.006-3.6113-5.7139-5.9206-9.5823-6.9282s-7.9212-0.85312-11.893-0.50059c-6.5657 0.58277-13.413 1.832-18.586 6.1114a7.2708 7.6231 0 0 0-1.7866 1.9679 9.6911 10.161 0 0 0-0.95163 2.8859 56.928 59.686 0 0 1-4.9925 13.731 28.415 29.792 0 0 0-2.5762 5.8338c-0.54856 2.0693-0.51151 4.4274 0.63678 6.206 0.93489 1.448 2.4295 2.2197 3.6038 3.4035 1.1636 1.173 1.708 3.429 2.9969 4.3172 1.1252 0.7754 2.473 0.22805 3.6206 1.0499 1.4734 1.0552 1.5798 3.3687 3.3151 4.2141z"
             fill="#2f2e41"
             id="path572" /><path
             d="m-452.26-781.92 2.1496-4.5075s31.527 9.7662 37.976 18.781c0 0 15.764-10.517 24.362-9.015l8.5983 1.5025-26.512 24.791-33.677-3.005z"
             fill="#f2f2f2"
             id="path574" /><path
             d="m-453.69-786.43-29.378 42.821 42.275 21.786s3.9522 2.2537 6.9918 0l28.118-13.522 26.512-39.816-26.512 14.274s-2.8661-6.01-8.5984-3.005z"
             fill="#5e72e4"
             id="path576" /><path
             d="m-408.55-710.55 5.7322-15.776s12.898-17.279 5.7322-25.542c-7.1653-8.2637-15.047 24.04-15.047 24.04z"
             fill="#a0616a"
             id="path578" /><path
             d="m-474.69-713.07 12.508-10.632s19.425-8.1623 17.181-19.08c-2.2438-10.917-24.52 12.88-24.52 12.88z"
             fill="#a0616a"
             id="path580" /><path
             d="m-505.64-789.06h-0.71653s-11.106-13.898-13.256 4.8831c-2.1496 18.781-9.3149 81.135 9.3149 83.389 18.63 2.2538 31.886-9.3906 31.886-9.3906s13.614-21.786 8.5984-21.786c-2.4268 0-9.0271-1.1428-15.047-0.75125-6.422 0.4177-12.193 2.3144-11.823 0.37563 0.71652-3.7562 11.106-51.46-8.9566-56.719z"
             opacity=".1"
             id="path582" /><path
             d="m-506.72-803.71-2.8661-1.5025s-11.464 2.2538-13.614 21.035c-2.1496 18.781-9.3149 81.135 9.3149 83.389 18.63 2.2538 43.708-3.005 43.708-3.005s5.0157-28.547 0-28.547-30.811 3.7562-30.094 0c0.71653-3.7562 13.614-66.11-6.4488-71.369z"
             fill="#575a89"
             id="path584" /></g><polygon
           transform="matrix(.71653 0 0 .75125 -661.13 -984.47)"
           points="349.03 336.21 356 364.11 338 372.11 338 353.11"
           fill="#575a89"
           id="polygon588" /></g></g></g><rect
     x="483.33"
     y="243"
     width="46"
     height="25"
     rx="5.1299"
     ry="5.1299"
     fill="#3f3d56"
     id="rect366" /><rect
     x="558.33"
     y="257.74"
     width="46"
     height="10.26"
     rx="5.1299"
     ry="5.1299"
     fill="#5e72e4"
     id="rect368" /></svg>
