<?xml version="1.0" encoding="UTF-8"?>
<svg data-name="Layer 1" version="1.1" viewBox="0 0 574.17 411.08" xmlns="http://www.w3.org/2000/svg">
 <path transform="translate(-312.91 -244.46)" d="m870.11 364.92h-314.19a16.695 16.695 0 0 0-16.68 16.68v50.919a16.695 16.695 0 0 0 16.68 16.68h314.19a16.695 16.695 0 0 0 16.68-16.68v-50.919a16.695 16.695 0 0 0-16.68-16.68z" fill="#fff"/>
 <path d="m461.31 163.58h-49.943a7.0233 7.0233 0 1 1 0-14.047h49.943a7.0233 7.0233 0 0 1 0 14.047z" fill="#5e72e4"/>
 <path transform="translate(-312.91 -244.46)" d="m438.91 655.54h-125a1 1 0 1 1 0-2h125a1 1 0 0 1 0 2z" fill="#3f3d56"/>
 <path transform="translate(-312.91 -244.46)" d="m420.56 342.44a9.377 9.377 0 0 0-1.9221 14.249l-9.0875 19.406 10.446 8.3986 12.448-27.585a9.4278 9.4278 0 0 0-11.885-14.469z" fill="#ffb8b8"/>
 <path transform="translate(-312.91 -244.46)" d="m368.34 350.31a13.058 13.058 0 0 1 17.583 3.9416l18.595 27.842 6.4555-14.231a4 4 0 0 1 4.8354-2.1657l9.7433 3.0436a4 4 0 0 1 2.596 5.1011l-6.6696 19.694a17.019 17.019 0 0 1-25.758 8.5676 17.019 17.019 0 0 1-2.7874-2.3972l-27.402-29.279a13.058 13.058 0 0 1 2.8101-20.117z" fill="#fff"/>
 <path transform="translate(-312.91 -244.46)" d="m428.49 321.54a1.8824 1.8824 0 0 1 1.8351 1.9286l-0.16051 6.4627 0.32406 0.02952-0.11634 4.3894-0.31652-0.0395-0.57507 23.152a3.2645 3.2645 0 0 1-2.9217 3.1655l-14.722 1.5498a2.471 2.471 0 0 1-2.7241-2.6244l2.2328-32.967a3.0574 3.0574 0 0 1 2.5811-2.8146l14.212-2.2079a1.8804 1.8804 0 0 1 0.35114-0.02419z" fill="#3f3d56"/>
 <path transform="translate(-312.91 -244.46)" d="m417.1 324.97 7.4714-1.1607a0.61877 0.61877 0 0 0 0.52016-0.54421 0.70089 0.70089 0 0 1 0.58914-0.61644l1.5738-0.24449a1.4852 1.4852 0 0 1 1.7127 1.5033l-0.8089 33.567a1.6956 1.6956 0 0 1-1.545 1.6481l-14.711 1.3079a1.3093 1.3093 0 0 1-1.4228-1.3835l1.9849-32.663a2.1129 2.1129 0 0 1 1.7847-1.9597l1.659-0.25773a1.0577 1.0577 0 0 0 1.1919 0.80318z" fill="#fff"/>
 <polygon points="69.522 398.95 80.954 398.94 86.391 354.85 69.518 354.85" fill="#ffb8b8"/>
 <path transform="translate(483.05 1049.7) rotate(179.99)" d="m379.99 640.14h35.93v13.882h-22.048a13.882 13.882 0 0 1-13.882-13.882 0 0 0 0 1 0-2e-5z" fill="#2f2e41"/>
 <polygon points="34.386 398.95 45.818 398.94 51.255 354.85 34.382 354.85" fill="#ffb8b8"/>
 <path transform="translate(412.78 1049.7) rotate(179.99)" d="m344.85 640.14h35.93v13.882h-22.048a13.882 13.882 0 0 1-13.882-13.882 0 0 0 0 1 0-2e-5z" fill="#2f2e41"/>
 <circle cx="67.867" cy="66.306" r="24.561" fill="#ffb8b8"/>
 <g fill="#2f2e41">
  <path transform="translate(-312.91 -244.46)" d="m393.42 376.48a37.859 37.859 0 0 0-18.28-31.212c-6.3453-3.7391-13.291-5.1973-18.816 0.32839a38.354 38.354 0 0 0-7.836 11.761 50.505 50.505 0 0 0-0.934 37.49l13.152 36.334 30.439 3.2976a4 4 0 0 0 4.4276-4.1364z"/>
  <path transform="translate(-312.91 -244.46)" d="m362.64 426.7s-22.741 8.4897-16.796 44.439c5.3353 32.258 1.0954 139.33 0.16869 160.97a3.9963 3.9963 0 0 0 3.6643 4.1535l13.275 1.1062a4 4 0 0 0 4.3087-3.5533l6.8559-62.974a1 1 0 0 1 1.9906 0.02422l5.1087 60.595a4 4 0 0 0 4.1124 3.662l11.15-0.35279a4 4 0 0 0 3.8714-4.1295l-6.5682-199.74z"/>
  <path transform="translate(-312.91 -244.46)" d="m385.71 309.15c8.2143 3.3689 18.704-0.56649 22.676-8.507s0.82844-18.695-6.7942-23.247-18.581-2.2188-23.688 5.0436c-4.1544-7.4846-15.038-9.3927-22.51-5.2164s-11.543 12.924-12.025 21.471 2.1156 16.966 5.2853 24.918c5.1272 12.863 21.633 19.788 34.403 14.435-5.8462-8.7073-4.6921-21.449 2.6535-28.898z"/>
 </g>
 <path transform="translate(-312.91 -244.46)" d="m418.81 345.41a1.0078 1.0078 0 0 1-0.60629-0.20149l-0.01084-0.00814-2.2836-1.7469a1.0148 1.0148 0 0 1 1.2349-1.6107l1.4791 1.1343 3.4952-4.56a1.0144 1.0144 0 0 1 1.4222-0.18785l2.9e-4 2.2e-4 -0.02169 0.03012 0.02228-0.03012a1.0156 1.0156 0 0 1 0.18763 1.4225l-4.1112 5.3611a1.015 1.015 0 0 1-0.80718 0.39576z" fill="#5e72e4" data-name="Path 395"/>
 <path d="m557.84-0.22966h-314.19a16.695 16.695 0 0 0-16.68 16.68v50.919a16.695 16.695 0 0 0 16.68 16.68h314.19a16.695 16.695 0 0 0 16.68-16.68v-50.919a16.695 16.695 0 0 0-16.68-16.68z" fill="#fff"/>
 <path transform="translate(-312.91 -244.46)" d="m870.41 244.46h-314.19a16.695 16.695 0 0 0-16.68 16.68v50.919a16.695 16.695 0 0 0 16.68 16.68h314.19a16.695 16.695 0 0 0 16.68-16.68v-50.919a16.695 16.695 0 0 0-16.68-16.68zm14.924 67.599a14.946 14.946 0 0 1-14.924 14.924h-314.19a14.946 14.946 0 0 1-14.925-14.924v-50.919a14.946 14.946 0 0 1 14.924-14.924h314.19a14.946 14.946 0 0 1 14.924 14.924z" fill="#3f3d56"/>
 <path transform="translate(-312.91 -244.46)" d="m620.15 315.63a29.032 29.032 0 1 1 29.032-29.032 29.065 29.065 0 0 1-29.032 29.032z" fill="#5e72e4"/>
 <g>
  <path transform="translate(-312.91 -244.46)" d="m827.54 310.3h-150.9a7.0233 7.0233 0 1 1 0-14.047h150.9a7.0233 7.0233 0 0 1 0 14.047z" fill="#e9ecef"/>
  <path transform="translate(-312.91 -244.46)" d="m726.58 280.45h-49.943a7.0233 7.0233 0 1 1 0-14.047h49.943a7.0233 7.0233 0 0 1 0 14.047z" fill="#e9ecef"/>
  <path d="m522.9 192.64h-150.9a7.0233 7.0233 0 1 1 0-14.047h150.9a7.0233 7.0233 0 0 1 0 14.047z" fill="#5e72e4"/>
 </g>
 <path transform="translate(-312.91 -244.46)" d="m618.67 296.81a3.3208 3.3208 0 0 1-1.9978-0.66395l-0.03574-0.02681-7.5248-5.7562a3.344 3.344 0 1 1 4.069-5.3076l4.8739 3.7376 11.517-15.026a3.3425 3.3425 0 0 1 4.6864-0.619l1e-3 7.2e-4 -0.07148 0.09926 0.07342-0.09926a3.3466 3.3466 0 0 1 0.61828 4.6873l-13.547 17.666a3.3446 3.3446 0 0 1-2.6598 1.3041z" fill="#fff" data-name="Path 395"/>
 <path transform="translate(-312.91 -244.46)" d="m735.41 381.46h-314.19a16.695 16.695 0 0 0-16.68 16.68v50.919a16.695 16.695 0 0 0 16.68 16.68h314.19a16.695 16.695 0 0 0 16.68-16.68v-50.919a16.695 16.695 0 0 0-16.68-16.68z" fill="#e9ecef"/>
 <path transform="translate(-312.91 -244.46)" d="m735.41 381.46h-314.19a16.695 16.695 0 0 0-16.68 16.68v50.919a16.695 16.695 0 0 0 16.68 16.68h314.19a16.695 16.695 0 0 0 16.68-16.68v-50.919a16.695 16.695 0 0 0-16.68-16.68zm14.924 67.599a14.946 14.946 0 0 1-14.924 14.924h-314.19a14.946 14.946 0 0 1-14.925-14.924v-50.919a14.946 14.946 0 0 1 14.924-14.924h314.19a14.946 14.946 0 0 1 14.924 14.924z" fill="#5e72e4"/>
 <path transform="translate(-312.91 -244.46)" d="m485.15 452.63a29.032 29.032 0 1 1 29.032-29.032 29.065 29.065 0 0 1-29.032 29.032z" fill="#5e72e4"/>
 <g fill="#fff">
  <path transform="translate(-312.91 -244.46)" d="m692.54 447.3h-150.9a7.0233 7.0233 0 1 1 0-14.047h150.9a7.0233 7.0233 0 0 1 0 14.047z"/>
  <path transform="translate(-312.91 -244.46)" d="m591.58 417.45h-49.943a7.0233 7.0233 0 1 1 0-14.047h49.943a7.0233 7.0233 0 0 1 0 14.047z"/>
  <path transform="translate(-312.91 -244.46)" d="m483.67 433.81a3.3208 3.3208 0 0 1-1.9978-0.66395l-0.03574-0.02681-7.5248-5.7562a3.344 3.344 0 1 1 4.069-5.3076l4.8739 3.7376 11.517-15.026a3.3425 3.3425 0 0 1 4.6864-0.619l1e-3 7.2e-4 -0.07148 0.09926 0.07342-0.09926a3.3466 3.3466 0 0 1 0.61828 4.6873l-13.547 17.666a3.3446 3.3446 0 0 1-2.6598 1.3041z" data-name="Path 395"/>
 </g>
 <path transform="translate(-312.91 -244.46)" d="m411.02 392.94a9.3769 9.3769 0 0 0-12.796 6.5572l-21.12 3.6181-0.93165 13.371 29.754-5.5284a9.4278 9.4278 0 0 0 5.094-18.018z" fill="#ffb8b8"/>
 <path transform="translate(-312.91 -244.46)" d="m374.74 354.57a13.058 13.058 0 0 1 6.8023 16.686l-12.243 31.162 15.37-2.825a4 4 0 0 1 4.5387 2.7335l3.0639 9.737a4 4 0 0 1-2.706 5.0436l-19.977 5.768a17.019 17.019 0 0 1-21.74-16.256 17.019 17.019 0 0 1 0.37674-3.6571l8.394-39.214a13.058 13.058 0 0 1 18.12-9.1779z" fill="#fff"/>
</svg>
