<?xml version="1.0" encoding="UTF-8" standalone="no"?>
<svg
   width="1720.1855"
   height="814.46716"
   viewBox="0 0 1720.1856 814.46713"
   version="1.1"
   id="svg304"
   sodipodi:docname="class.svg"
   inkscape:version="1.2.1 (9c6d41e410, 2022-07-14)"
   xml:space="preserve"
   xmlns:inkscape="http://www.inkscape.org/namespaces/inkscape"
   xmlns:sodipodi="http://sodipodi.sourceforge.net/DTD/sodipodi-0.dtd"
   xmlns="http://www.w3.org/2000/svg"
   xmlns:svg="http://www.w3.org/2000/svg"><defs
     id="defs308"><inkscape:perspective
       sodipodi:type="inkscape:persp3d"
       inkscape:vp_x="0 : 462.04362 : 1"
       inkscape:vp_y="0 : 1000 : 0"
       inkscape:vp_z="864.30416 : 462.04362 : 1"
       inkscape:persp3d-origin="432.15209 : 344.56912 : 1"
       id="perspective4685" /></defs><sodipodi:namedview
     id="namedview306"
     pagecolor="#505050"
     bordercolor="#eeeeee"
     borderopacity="1"
     inkscape:showpageshadow="0"
     inkscape:pageopacity="0"
     inkscape:pagecheckerboard="0"
     inkscape:deskcolor="#505050"
     showgrid="false"
     inkscape:zoom="0.75357022"
     inkscape:cx="847.29994"
     inkscape:cy="319.14743"
     inkscape:window-width="1920"
     inkscape:window-height="1001"
     inkscape:window-x="-9"
     inkscape:window-y="-9"
     inkscape:window-maximized="1"
     inkscape:current-layer="svg304" /><path
     d="M 785.20402,269.12891 H 95.109286 c -9.249995,0 -16.775385,-7.52539 -16.775385,-16.77637 V 16.77539 C 78.333901,7.5253899 85.859291,0 95.109286,0 H 785.20402 c 9.25,0 16.77539,7.5253899 16.77539,16.77539 v 235.57715 c 0,9.25098 -7.52539,16.77637 -16.77539,16.77637 z M 95.109286,2 C 86.962316,2 80.333901,8.6284199 80.333901,16.77539 v 235.57715 c 0,8.14746 6.628415,14.77637 14.775385,14.77637 H 785.20402 c 8.14697,0 14.77539,-6.62891 14.77539,-14.77637 V 16.77539 C 799.97941,8.6284199 793.35099,2 785.20402,2 Z"
     fill="#3f3d56"
     id="path156" /><rect
     id="uuid-dac6dc9f-03bc-4283-a90c-97bcdcbf45dc"
     y="808.69757"
     width="851.034"
     height="1.683"
     fill="#e6e6e6"
     x="10.388451"
     style="fill:#344767;fill-opacity:1" /><rect
     id="uuid-2f9646f7-bb94-4523-8d2e-fd8f0877664c"
     y="464.5571"
     width="851.034"
     height="1.683"
     fill="#e6e6e6"
     x="0"
     style="fill:#344767;fill-opacity:1" /><g
     id="g298"
     transform="matrix(1.1424789,0,-0.01003406,1.0131741,-28.969363,0.6195771)"><g
       id="g238"><polygon
         points="171.56525,374.77477 193.11428,361.07087 201.87509,366.35537 171.56525,401.18319 "
         fill="#ffb6b6"
         id="polygon232" /><path
         d="m 142.09734,321.73254 c 0,0 -14.31298,3.36776 -7.57746,22.73238 6.73552,19.36462 28.62597,59.77775 35.36149,57.25193 6.73552,-2.52582 7.57746,-27.78403 7.57746,-27.78403 0,0 -0.84194,0.84194 -4.2097,-2.52582 -3.36776,-3.36776 -3.36776,-1.82973 -3.36776,-5.54554 0,-3.71581 -2.75454,-6.47034 -2.75454,-6.47034 l -3.13904,-6.50681 c 0,0 0,-30.30985 -12.6291,-31.99373 -12.6291,-1.68388 -9.26134,0.84194 -9.26134,0.84194 z"
         fill="#e6e6e6"
         id="path234" /><ellipse
         cx="202.71703"
         cy="359.19888"
         rx="14.31298"
         ry="8.8403702"
         transform="rotate(-45,202.71704,359.19888)"
         fill="#ffb6b6"
         id="ellipse236" /></g><g
       id="g252"><polygon
         points="86.34807,433.29001 101.05215,457.62779 186.74142,452.55742 163.92475,423.14927 "
         fill="#e6e6e6"
         id="polygon240"
         style="fill:#3f3d56;fill-opacity:1" /><path
         d="m 111.95221,547.11985 c -0.49911,0 -0.93386,-0.36839 -1.00343,-0.87642 L 85.3434,359.23635 c -0.07601,-0.55507 0.31219,-1.06656 0.86701,-1.14232 0.55457,-0.0802 1.06607,0.31195 1.14232,0.86701 l 25.60538,187.00708 c 0.076,0.55507 -0.31219,1.06656 -0.86701,1.14232 -0.0468,0.006 -0.0931,0.009 -0.13889,0.009 z"
         fill="#e6e6e6"
         id="path242"
         style="fill:#3f3d56;fill-opacity:1" /><path
         d="m 86.34807,547.35752 c -0.56002,0 -1.01407,-0.45406 -1.01407,-1.01407 V 359.13484 c 0,-0.56002 0.45406,-1.01407 1.01407,-1.01407 0.56002,0 1.01407,0.45406 1.01407,1.01407 v 187.20861 c 0,0.56002 -0.45406,1.01407 -1.01407,1.01407 z"
         fill="#e6e6e6"
         id="path244"
         style="fill:#3f3d56;fill-opacity:1" /><path
         d="m 214.88174,546.61331 c -0.43103,0 -0.83087,-0.27729 -0.96703,-0.71005 L 153.32377,353.31877 c -0.1681,-0.53427 0.12874,-1.1037 0.66301,-1.27205 0.53402,-0.16736 1.1037,0.12924 1.27155,0.66301 l 60.59094,192.58449 c 0.1681,0.53427 -0.12874,1.1037 -0.66301,1.27205 -0.10126,0.0317 -0.20376,0.047 -0.30452,0.047 z"
         fill="#e6e6e6"
         id="path246" /><path
         d="m 196.37439,546.85049 c -0.45282,0 -0.86528,-0.30501 -0.98214,-0.76402 L 153.30817,376.11712 c -0.1379,-0.54269 0.19014,-1.09478 0.73283,-1.23293 0.54442,-0.13716 1.09478,0.19014 1.23293,0.73283 l 42.08408,169.96935 c 0.1379,0.54269 -0.19014,1.09478 -0.73283,1.23293 -0.0839,0.0213 -0.1681,0.0312 -0.2508,0.0312 z"
         fill="#e6e6e6"
         id="path248" /><polygon
         points="86.34807,362.11717 156.57271,361.03722 169.50216,434.81112 87.36214,434.81112 "
         fill="#e6e6e6"
         id="polygon250"
         style="fill:#3f3d56;fill-opacity:1" /></g><g
       id="g260"><polygon
         points="194.26591,470.59655 176.56797,501.75497 197.11665,506.27891 205.68358,484.11776 "
         fill="#ffb6b6"
         id="polygon254" /><path
         d="m 182.92462,495.87253 c 0,0 -0.68769,-5.08127 -4.73068,-3.46879 -4.04299,1.61248 -15.71126,7.60503 -15.71126,7.60503 0,0 30.43363,49.4508 36.20933,47.14726 5.7757,-2.30353 -1.13827,-16.28208 -1.13827,-16.28208 l 1.52597,-24.70853 -16.1551,-10.29289 z"
         fill="#2f2e41"
         id="path256" /><path
         d="m 115.9972,410.13626 c 0,0 -6.31455,29.04694 13.05007,39.15022 19.36462,10.10328 85.45693,-14.73395 85.45693,-14.73395 l -30.30985,45.41505 21.0485,8.46912 c 0,0 47.99059,-63.14551 44.62283,-73.24879 -3.36776,-10.10328 -26.10015,-10.94522 -26.10015,-10.94522 l -51.35835,2.52582 -13.47104,-4.2097 -42.93895,7.57746 z"
         fill="#2f2e41"
         id="path258" /></g><g
       id="g268"><polygon
         points="168.08352,484.4253 140.26086,507.00768 157.75463,518.69879 173.79831,501.17426 "
         fill="#ffb6b6"
         id="polygon262" /><path
         d="m 148.32224,503.84158 c 0,0 1.20844,-4.98316 -3.14413,-4.9524 -4.35257,0.0308 -17.40151,1.36661 -17.40151,1.36661 0,0 10.35295,57.13496 16.57091,57.09102 6.21796,-0.0439 4.86453,-15.58006 4.86453,-15.58006 l 10.41237,-22.45936 -11.30217,-15.46582 z"
         fill="#2f2e41"
         id="path264" /><path
         d="m 117.181,399.62925 c 0,0 -16.45134,24.75786 -2.09067,41.21496 14.36067,16.4571 84.95984,17.37244 84.95984,17.37244 l -44.7577,31.27238 16.52375,15.54771 c 0,0 67.67815,-41.35361 68.21767,-51.98973 0.53953,-10.63612 -20.32807,-19.69226 -20.32807,-19.69226 l -48.75657,-16.33576 -11.01569,-8.82298 -42.75257,-8.56676 z"
         fill="#2f2e41"
         id="path266" /></g><path
       d="m 159.4433,342.28438 c 0,0 -15.99686,-5.89358 -23.57432,-5.89358 -0.72406,0 -1.43974,0.0842 -2.15536,0.23572 -4.84958,1.02719 -9.31186,5.19481 -11.45037,7.46801 -0.83356,0.89245 -1.31342,1.49025 -1.31342,1.49025 0,0 0.0505,-0.58094 0.15154,-1.59971 0.49672,-5.35473 2.33214,-22.92601 5.62415,-34.17432 1.17869,-4.01607 2.53425,-7.22386 4.09182,-8.78143 3.62876,-3.63719 5.30421,-7.99843 6.07878,-11.24831 0.65674,-2.78687 0.65674,-4.74855 0.65674,-4.74855 l -6.13773,-2.6437 -1.13665,-7.42592 c -0.20206,0.8756 -1.1366,2.58476 -4.27702,5.85992 -0.26943,0.2778 -0.56414,0.51357 -0.87565,0.71563 -4.52964,2.84576 -13.7657,-2.10485 -18.7416,-5.22004 2.07119,-7.19858 5.82626,-13.78256 12.64596,-14.86021 15.99686,-2.52582 15.99686,-11.78716 26.10015,-1.68388 0.83351,0.83351 1.67545,1.63337 2.51739,2.40794 3.23307,6.17986 4.41176,14.46453 4.83273,20.22342 0.30314,4.03287 0.22734,6.83655 0.22734,6.83655 0,0 4.2097,25.25821 10.94522,30.30985 6.73552,5.05164 -4.2097,22.73238 -4.2097,22.73238 z"
       fill="#2f2e41"
       id="path270" /><polygon
       points="128.29151,301.87125 116.91538,318.55786 142.6045,325.44557 142.6045,301.87125 "
       fill="#ffb6b6"
       id="polygon272" /><polygon
       points="128.29151,301.87125 116.91538,318.55786 142.6045,325.44557 142.6045,301.87125 "
       opacity="0.1"
       id="polygon274" /><path
       d="m 144.20219,317.94381 -24.41626,-10.10328 c 0,0 -32.83567,14.31298 -30.30985,42.09701 2.52582,27.78403 26.10015,75.77462 26.10015,75.77462 l 47.14865,-20.20656 -5.05164,-53.88417 -13.47104,-33.67761 z"
       fill="#e6e6e6"
       id="path276"
       style="fill:#f5365c;fill-opacity:1" /><circle
       cx="133.73351"
       cy="287.78009"
       r="21.54104"
       fill="#ffb6b6"
       id="circle278" /><path
       d="m 162.81106,279.9808 c -4.2097,4.2097 -7.57746,8.4194 -7.57746,8.4194 l -1.68388,-6.73552 c 0,0 -0.38731,0.28623 -1.06928,0.74091 -2.66894,1.81857 -9.83386,6.3903 -15.58432,7.3754 -2.55948,0.43777 -4.83273,0.15992 -6.31455,-1.38079 -3.14042,-3.27516 -4.07496,-4.98432 -4.27702,-5.85992 l -1.13665,7.42592 -6.13773,2.6437 c 0,0 0,9.24449 6.73552,15.99686 0.32837,0.32837 0.64831,0.73248 0.95982,1.20397 3.21622,4.84958 5.52313,16.72092 6.98809,26.81577 1.29657,8.97511 1.9196,16.53572 1.9196,16.53572 0,0 -6.37344,-7.98158 -13.36996,-9.06771 -0.38731,-0.0589 -0.77462,-0.10103 -1.16188,-0.10946 -0.12631,-0.0168 -0.261,-0.0168 -0.38731,-0.0168 -7.57746,0 -23.57432,5.89358 -23.57432,5.89358 0,0 -10.94522,-17.68074 -4.2097,-22.73238 6.73552,-5.05164 10.94522,-30.30985 10.94522,-30.30985 0,0 -0.27785,-10.81053 2.50897,-20.50127 2.07119,-7.19858 5.82626,-13.78256 12.64596,-14.86021 15.99686,-2.52582 15.99686,-11.78716 26.10015,-1.68388 0.83351,0.83351 1.67545,1.63337 2.51739,2.40794 9.41288,8.65517 19.02788,13.9341 15.16335,17.79863 z"
       fill="#2f2e41"
       id="path280" /><rect
       x="60.3339"
       y="393"
       width="8"
       height="158"
       fill="#3f3d56"
       id="rect282" /><rect
       x="254.33389"
       y="393"
       width="8"
       height="158"
       fill="#3f3d56"
       id="rect284" /><rect
       x="158.33389"
       y="326"
       width="53"
       height="53"
       fill="#5e72e4"
       id="rect286"
       style="fill:#e9ecef;fill-opacity:1" /><g
       id="g294"><polygon
         points="127.78436,382.35224 149.33339,368.64833 158.09421,373.93283 127.78436,408.76065 "
         fill="#ffb6b6"
         id="polygon288" /><path
         d="m 98.31645,329.31001 c 0,0 -14.31298,3.36776 -7.57746,22.73238 6.73552,19.36462 28.62597,59.77775 35.36149,57.25193 6.73552,-2.52582 7.57746,-27.78403 7.57746,-27.78403 0,0 -0.84194,0.84194 -4.2097,-2.52582 -3.36776,-3.36776 -3.36776,-1.82973 -3.36776,-5.54554 0,-3.71581 -2.75454,-6.47034 -2.75454,-6.47034 l -3.13904,-6.50681 c 0,0 0,-30.30985 -12.6291,-31.99373 -12.6291,-1.68388 -9.26134,0.84194 -9.26134,0.84194 z"
         fill="#e6e6e6"
         id="path290"
         style="fill:#f5365c;fill-opacity:1" /><ellipse
         cx="158.93616"
         cy="366.77634"
         rx="14.31298"
         ry="8.8403702"
         transform="rotate(-45,158.93615,366.77634)"
         fill="#ffb6b6"
         id="ellipse292" /></g><rect
       x="36.3339"
       y="387"
       width="242"
       height="18"
       fill="#3f3d56"
       id="rect296" /></g><rect
     x="483.33389"
     y="243"
     width="46"
     height="25"
     rx="5.12992"
     ry="5.12992"
     fill="#3f3d56"
     id="rect300" /><rect
     x="558.33392"
     y="257.74014"
     width="46"
     height="10.25985"
     rx="5.12992"
     ry="5.12992"
     fill="#5e72e4"
     id="rect302" /><rect
     style="opacity:0.949468;fill:#5e72e4;fill-opacity:1;stroke-width:1.19054"
     id="rect4774"
     width="64.246452"
     height="810.59546"
     x="890.30298"
     y="1.4603887" /><g
     id="g1087"
     transform="matrix(0.86183024,0,0,0.91600479,1002.2422,77.413399)"><path
       d="m 425.38785,434.69662 a 115.853,115.853 0 0 1 -49.68994,95.19 114.44983,114.44983 0 0 1 -13.55029,8.15 c -1.55957,0.8 -3.12989,1.56 -4.7295,2.28 -1.44043,0.66 -2.89013,1.28 -4.36035,1.87 a 116.42052,116.42052 0 0 1 -57.56982,7.68 q -5.06984,-0.6 -10.01026,-1.65 c -0.13964,-0.03 -0.29,-0.06 -0.42968,-0.09 a 113.3187,113.3187 0 0 1 -20.15039,-6.27 116.01241,116.01241 0 1 1 160.49023,-107.16 z"
       fill="#f1f1f1"
       id="path70" /><path
       d="m 330.74771,413.0466 c -0.10009,-0.12 -0.21,-0.23 -0.31982,-0.34 a 33.4444,33.4444 0 0 0 -47.04,-0.48 c -0.0698,0.06 -0.12988,0.12 -0.18994,0.18 -0.0801,0.07 -0.1499,0.13995 -0.22022,0.21 a 33.42692,33.42692 0 0 0 -9.81982,23.68 v 21 a 4.50677,4.50677 0 0 0 4.5,4.5 h 58 a 4.50677,4.50677 0 0 0 4.5,-4.5 v -21 a 33.34842,33.34842 0 0 0 -9.4102,-23.25 z"
       fill="#2f2e41"
       id="path72" /><circle
       cx="308.00201"
       cy="437.0275"
       r="24.561029"
       fill="#ffb7b7"
       id="circle74" /><path
       d="m 333.81803,434.93661 -2.89991,-20.26 a 2.537,2.537 0 0 0 -0.89013,-1.59 2.62681,2.62681 0 0 0 -0.53028,-0.33 c -14.85009,-6.95 -29.90966,-6.95 -44.75976,-0.02 a 2.4484,2.4484 0 0 0 -0.5503,0.35 c -0.0596,0.05 -0.11962,0.11 -0.17968,0.17 a 2.53154,2.53154 0 0 0 -0.7002,1.51 l -1.93994,20.29 a 2.50543,2.50543 0 0 0 0.64014,1.92 2.47719,2.47719 0 0 0 1.43994,0.78 1.83844,1.83844 0 0 0 0.41015,0.04 h 4.91993 a 2.52263,2.52263 0 0 0 2.27,-1.44 l 2.12988,-4.56 a 1.49369,1.49369 0 0 1 2.83984,0.45 l 0.41992,3.36 a 2.51167,2.51167 0 0 0 2.48047,2.19 h 32.4297 a 2.40424,2.40424 0 0 0 1.21,-0.31995 2.53246,2.53246 0 0 0 0.68018,-0.54 2.50641,2.50641 0 0 0 0.58005,-2.00005 z"
       fill="#2f2e41"
       id="path76" /><path
       d="m 368.73795,506.58664 6.96,23.3 a 114.44983,114.44983 0 0 1 -13.55029,8.15 c -1.55957,0.8 -3.12989,1.56 -4.7295,2.28 l -7.21045,-30.91 -2.7998,-11.99006 18,-2 z"
       fill="#ffb7b7"
       id="path78" /><path
       d="m 285.90787,502.71664 -0.6001,31.48 -0.25976,13.93 a 113.3187,113.3187 0 0 1 -20.15039,-6.27 l 2.39018,-29.81999 0.6001,-7.52 z"
       fill="#ffb7b7"
       id="path80" /><path
       d="m 368.73795,506.58664 -18.08008,2.71 0.22021,2.97 2.17969,29.92 a 116.42052,116.42052 0 0 1 -57.56982,7.68 q -5.06984,-0.6 -10.01026,-1.65 c 1.48,-6.22 2.76026,-11.82 1.18018,-12.92 a 11.97931,11.97931 0 0 1 -1.3501,-1.1 c -7.37012,-7.03 -4.6499,-22.9 -4.6499,-22.9 l -13.37007,0.74001 -4.62988,0.25995 c 0,0 2,-32 11,-32 h 11 l 53,-5 c 0,0 15,-5 19,2 2.1001,3.67 5.83984,11.45 8.93018,18.03 2.7998,5.98 5.06982,10.97 5.06982,10.97 z"
       fill="#2f2e41"
       id="path82"
       style="fill:#f5365c;fill-opacity:1" /><path
       d="m 638.36858,117.27785 a 115.8475,115.8475 0 0 1 -48.88325,93.35228 c -0.25976,0.18 -0.52978,0.37 -0.7998,0.56 -0.27979,0.2 -0.56983,0.4 -0.85986,0.59 q -2.52027,1.74 -5.14014,3.33 -3.68994,2.25 -7.55029,4.23 c -0.0796,0.04 -0.16993,0.08 -0.25,0.12 q -2.21925,1.13991 -4.4795,2.16 c -0.0503,0.02 -0.0903,0.04 -0.14013,0.06 -0.3501,0.16 -0.72022,0.33 -1.08008,0.48 -2.79,1.24 -5.64014,2.37005 -8.54,3.37005 q -3.70533,1.305 -7.52,2.34 a 113.72947,113.72947 0 0 1 -15.8501,3.18 115.58789,115.58789 0 0 1 -13.75976,0.94 c -0.38037,0.01 -0.76026,0.01 -1.14014,0.01 -2.50977,0 -5.00977,-0.08 -7.48,-0.24 -2.16016,-0.14 -4.29981,-0.33 -6.41992,-0.59 -3.27,-0.39 -6.5,-0.91 -9.68018,-1.59 -0.13965,-0.02 -0.27978,-0.05 -0.41992,-0.08 -0.10986,-0.02 -0.23,-0.05 -0.33984,-0.07 -3.2002,-0.67 -6.3501,-1.49 -9.43995,-2.43 q -4.36523,-1.32 -8.57031,-2.98 c -0.71972,-0.28 -1.42969,-0.56 -2.14013,-0.86 -1.76954,-0.74 -3.51954,-1.51 -5.23975,-2.34 -0.5,-0.23 -0.98975,-0.47 -1.48,-0.71 -1.66016,-0.81 -3.29981,-1.66 -4.8999,-2.56 q -2.89527,-1.605 -5.68994,-3.37 c -2.3501,-1.48 -4.6504,-3.04 -6.88038,-4.69 A 116.0049,116.0049 0 0 1 524.02517,0.01166099 C 587.63306,0.89521099 639.05488,53.667501 638.36858,117.27785 Z"
       fill="#f1f1f1"
       id="path84" /><path
       d="m 498.03563,229.43012 c -3.2002,-0.67 -6.3501,-1.49 -9.43995,-2.43 l 10.60987,-65.79 10.98974,-0.34 19.93018,-0.63 10.22021,-0.32 c 0,0 7.25,31.86 12.77979,67.95 a 113.72947,113.72947 0 0 1 -15.8501,3.18 115.58789,115.58789 0 0 1 -13.75976,0.94 c -0.38037,0.01 -0.76026,0.01 -1.14014,0.01 -2.50977,0 -5.00977,-0.08 -7.48,-0.24 -2.16016,-0.14 -4.29981,-0.33 -6.41992,-0.59 -3.27,-0.39 -6.5,-0.91 -9.68018,-1.59 -0.13965,-0.02 -0.27978,-0.05 -0.41992,-0.08 -0.10984,-0.02 -0.22996,-0.05 -0.33982,-0.07 z"
       fill="#cbcbcb"
       id="path86" /><path
       d="m 498.79542,229.58014 c -0.13965,-0.02 -0.27978,-0.05 -0.41992,-0.08 -0.10986,-0.02 -0.23,-0.05 -0.33984,-0.07 -3.2002,-0.67 -6.3501,-1.49 -9.43995,-2.43 q -4.36523,-1.32 -8.57031,-2.98 c -0.71972,-0.28 -1.42969,-0.56 -2.14013,-0.86 -1.76954,-0.74 -3.51954,-1.51 -5.23975,-2.34 -0.5,-0.23 -0.98975,-0.47 -1.48,-0.71 l -0.87988,-49.26 27,-11.56995 c 0,0 0.0898,0.72 12.90966,1.59 2.43994,7.95995 -11.39988,68.70995 -11.39988,68.70995 z"
       fill="#2f2e41"
       id="path88" /><path
       d="m 579.49559,168.52014 -5.08985,26.75 0.4795,24.19 q -2.21925,1.13991 -4.4795,2.16 c -0.0503,0.02 -0.0903,0.04 -0.14013,0.06 -0.3501,0.16 -0.72022,0.33 -1.08008,0.48 -2.79,1.24 -5.64014,2.37005 -8.54,3.37005 q -3.70533,1.305 -7.52,2.34 a 113.72947,113.72947 0 0 1 -15.8501,3.18 115.58789,115.58789 0 0 1 -13.75976,0.94 l -0.53028,-42.87 c -1.11963,-13.82 2.59034,-22.96 7.14014,-28.88 24.25,-3.24 23.71,-3.53 23.71,-3.53 l 25.71,11.57 z"
       fill="#2f2e41"
       id="path90" /><path
       d="m 481.85542,174.71015 -1.83008,49.31 c -0.71972,-0.28 -1.42969,-0.56 -2.14013,-0.86 -1.76954,-0.74 -3.51954,-1.51 -5.23975,-2.34 -0.5,-0.23 -0.98975,-0.47 -1.48,-0.71 -1.66016,-0.81 -3.29981,-1.66 -4.8999,-2.56 q -2.89527,-1.605 -5.68994,-3.37 l 9.71,-43.33 z"
       fill="#2f2e41"
       id="path92" /><path
       d="m 589.48533,210.63013 c -0.25976,0.18 -0.52978,0.37 -0.7998,0.56 -0.27979,0.2 -0.56983,0.4 -0.85986,0.59 q -2.52027,1.74 -5.14014,3.33 -3.68994,2.25 -7.55029,4.23 c -0.0796,0.04 -0.16993,0.08 -0.25,0.12 q -2.28651,1.17447 -4.61685,2.22169 l -0.003,-0.002 -1.83008,-49.48 11.06006,-3.68 0.50976,-0.17 z"
       fill="#2f2e41"
       id="path94" /><ellipse
       cx="36.956654"
       cy="533.76111"
       rx="28.60264"
       ry="28.52916"
       transform="rotate(-73.65991)"
       fill="#9f616a"
       id="ellipse96" /><path
       d="m 493.86742,121.875 v -11.13124 c 0,0 -8.97669,-10.57234 0.89767,-13.235519 0,0 2.693,-26.63179 26.03241,-14.20362 0,0 32.3161,-5.32636 28.72543,13.3159 0,0 8.079,-4.8669 5.386,7.561279 l -5.20833,20.01961 c 0,0 2.51535,-13.22444 -5.56367,-14.99989 l -4.48835,-2.66318 c 0,0 -12.56737,12.42817 -31.41843,-2.66318 0,0 -8.079,-1.92825 -7.18135,6.06129 0.89765,7.98954 -7.18138,11.93855 -7.18138,11.93855 z"
       fill="#2f2e41"
       id="path98" /><path
       d="m 232.01722,116.88259 a 115.853,115.853 0 0 1 -49.68994,95.19 c -0.27979,0.2 -0.56983,0.4 -0.85986,0.59 q -2.52027,1.74 -5.14014,3.33 -3.68994,2.25 -7.55029,4.23 c -1.55957,0.8 -3.12989,1.56 -4.7295,2.28 -0.40039,0.18 -0.81006,0.37 -1.22021,0.54 -2.79,1.24 -5.64014,2.37 -8.54,3.37 a 114.20394,114.20394 0 0 1 -23.37012,5.52 116.29626,116.29626 0 0 1 -14.8999,0.95 c -2.50977,0 -5.00977,-0.08 -7.48,-0.24 -2.16016,-0.14 -4.29981,-0.33 -6.41992,-0.59 -3.41016,-0.41 -6.780277,-0.96 -10.100097,-1.67 -0.10986,-0.02 -0.23,-0.05 -0.33984,-0.07 a 113.3187,113.3187 0 0 1 -20.15039,-6.27 c -1.76954,-0.74 -3.51954,-1.51 -5.23975,-2.34 q -3.25488,-1.53 -6.37988,-3.27 a 116.00862,116.00862 0 1 1 172.109857,-101.55 z"
       fill="#f1f1f1"
       id="path100" /><circle
       cx="112.83067"
       cy="119.56828"
       r="25.90295"
       fill="#ffb8b8"
       id="circle102" /><path
       d="m 102.11732,232.05258 c -3.41016,-0.41 -6.780277,-0.96 -10.100097,-1.67 l 3.1499,-70.88 0.4502,-0.47 6.449697,-6.81 h 20.51026 l 7.56982,7.33 0.64014,0.63 16.18994,15.51 7.31006,50.72 a 114.20394,114.20394 0 0 1 -23.37012,5.52 116.29626,116.29626 0 0 1 -14.8999,0.95 c -2.50977,0 -5.00977,-0.08 -7.48,-0.24 -2.16014,-0.13999 -4.29979,-0.32999 -6.4199,-0.59 z"
       fill="#cbcbcb"
       id="path104" /><path
       d="m 66.287243,221.7026 q -3.25488,-1.53 -6.37988,-3.27 c -0.21,-19.2 -0.3501,-31.95 -0.3501,-31.95 l 2.43994,-1.49 a 0.80438,0.80438 0 0 1 0.0898,-0.04 l 27.68995,-16.82 5.81005,-9.44 0.0303,0.34 1.709997,19.9 a 346.74389,346.74389 0 0 1 11.21,53.71 c -2.16016,-0.14 -4.29981,-0.33 -6.41992,-0.59 -3.41016,-0.41 -6.780277,-0.96 -10.100097,-1.67 -0.10986,-0.02 -0.23,-0.05 -0.33984,-0.07 a 113.3187,113.3187 0 0 1 -20.15039,-6.27 c -1.76962,-0.74002 -3.51962,-1.50998 -5.23983,-2.34 z"
       fill="#2f2e41"
       id="path106" /><path
       d="m 154.28724,226.41262 a 114.20394,114.20394 0 0 1 -23.37012,5.52 91.26716,91.26716 0 0 1 -1.21,-19.55 c 2.16016,-34.53 -2.81982,-53.69 -0.65967,-53.69 l 1.09961,0.86 13.59033,10.74 17.88965,6.56 h 0.0103 l 12.31006,4.51 2.16992,0.80005 v 1.03 c 0.01,3.56 0.0298,16.02 0.21,32.8 q -3.68994,2.25 -7.55029,4.23 c -1.55957,0.8 -3.12989,1.56 -4.7295,2.28 -0.40039,0.18 -0.81006,0.37 -1.22021,0.54 -2.79004,1.23995 -5.64011,2.36995 -8.54004,3.36995 z"
       fill="#2f2e41"
       id="path108" /><path
       d="m 88.325003,127.6724 c 0,0 2.2008,-3.865 1.68916,-16.77648 -0.51164,-12.911478 19.149507,-5.60893 35.578467,-6.84062 16.42896,-1.23169 12.95124,21.55611 12.95124,21.55611 0,0 1.18525,-1.35461 3.72286,-12.35267 2.53761,-10.99806 -3.22412,-21.958078 -3.22412,-21.958078 -1.69691,-11.5569 -10.8421,-7.85291 -10.8421,-7.85291 4.40421,1.71452 3.55833,5.38054 3.55833,5.38054 -3.728,-6.53621 -12.8732,-2.83221 -12.8732,-2.83221 -12.197,-7.65394 -24.558607,2.42534 -24.558607,2.42534 -14.73463,3.34409 -6.09333,15.061928 -6.09333,15.061928 -14.8182,7.48846 0.0913,24.18905 0.0913,24.18905 z"
       fill="#2f2e41"
       id="path110" /><path
       d="m 47.337043,210.37258 c 0.38038,-8.79 0.5503,-14.46 0.3501,-15.25 -1.02978,-4.12 13.03028,-9.64 14.31006,-10.13 a 0.80438,0.80438 0 0 1 0.0898,-0.04 l 2.86036,1.53 1.33984,35.22 q -3.25488,-1.53 -6.37988,-3.27 a 115.18056,115.18056 0 0 1 -12.57032,-8.06 z"
       fill="#2f2e41"
       id="path112" /><path
       d="m 176.32728,215.99258 q -3.68994,2.25 -7.55029,4.23 c -1.55957,0.8 -3.12989,1.56 -4.7295,2.28 -0.40039,0.18 -0.81006,0.37 -1.22021,0.54 l -4.5,-44.43 2.62988,-1.92 c 0,0 0.24024,0.06 0.66992,0.16 h 0.0103 c 2.10986,0.52 8.58984,2.24006 12.31006,4.51 a 7.71388,7.71388 0 0 1 2.16992,1.83 2.22274,2.22274 0 0 1 0.50976,1.58 c -0.11963,1.16 1.88037,12.16 4.84034,27.89 q -2.52025,1.74001 -5.14014,3.33 z"
       fill="#2f2e41"
       id="path114" /><circle
       cx="309.38785"
       cy="554.47534"
       r="26.436319"
       fill="#5e72e4"
       id="circle124" /><polygon
       points="130.805,222.857 113.481,241.144 105.568,230.97 110.17,227.391 113.916,232.208 126.573,218.848 "
       fill="#ffffff"
       id="polygon126"
       transform="translate(193.38785,324.4911)" /><circle
       cx="116.01722"
       cy="232.86684"
       r="26.436319"
       fill="#5e72e4"
       id="circle128" /><polygon
       points="335.805,574.857 318.481,593.144 310.568,582.97 315.17,579.391 318.916,584.208 331.573,570.848 "
       fill="#ffffff"
       id="polygon130"
       transform="translate(-204.98277,-347.66879)" /></g><g
     id="g823"
     transform="translate(2241.4848,628.09325)"><polygon
       points="479.89,539.425 467.133,539.424 461.065,490.221 479.892,490.221 "
       fill="#ffb6b6"
       id="polygon730"
       transform="translate(-1210.4615,-367.83017)" /><path
       d="m -730.91221,167.42816 -13.62,-5.54 -0.39,-0.16 -7.52,5.7 a 16.01266,16.01266 0 0 0 -16.01,16.01 v 0.52 h 41.13 v -16.53 z"
       fill="#2f2e41"
       id="path732" /><polygon
       points="595.153,522.84 583.736,528.53 556.355,487.2 573.206,478.802 "
       fill="#ffb6b6"
       id="polygon734"
       transform="translate(-1210.4615,-367.83017)" /><path
       d="m -614.25221,149.82816 -2.92,1.45 -0.3,0.15 -14.64,1.13 -0.44,0.03 -4.19,8.45 a 16.00178,16.00178 0 0 0 -7.18,21.47 l 0.23,0.46 36.81,-18.34 z"
       fill="#2f2e41"
       id="path736" /><path
       d="m -739.22349,-92.871508 70.34118,2.462 0.4901,-0.71233 c 0,0 6,14 6,26 0,3.98978 -2.77482,30.0849 -1.36422,35.022 0.17544,0.614 -1.03161,2.11871 -0.63578,4.978 0.25685,1.85534 1.67424,0.42823 2,3 0.23381,1.84584 -2.261,2.86483 -2,5 0.28513,2.33265 3.71686,9.8888396 4.02575,12.4836296 3.28871,27.6260904 7.66741,67.6478204 7.66741,67.6478204 0,0 17.58656,47.103408 21.30684,47.868548 6.24457,1.2843 10.46045,12.63861 7,15 -1.64777,1.12445 -22.94452,8.6886 -22.94452,8.6886 -1.17017,0.21173 -4.83093,-1.62445 -2.49884,-5.96655 0.42932,-0.79932 -2.1311,1.23489 -2.55664,0.278 -0.45254,-1.01764 0.43581,-5.067 -0.0825,-6.19651 -4.65427,-10.14333 -11.80011,-24.199718 -18.57183,-31.417688 a 68.60119,68.60119 0 0 1 -18.08478,-38.7651 l -15.53249,-86.12525 -5.32347,24.1517096 -4.40493,4.35279 1.20845,10.14911 -0.20845,9.8508904 -11,41 c 0,0 -1.64972,76.568418 1,78.999998 1.43506,1.31689 7.52454,17.5379 -4,19 l -20.93824,-1.61542 c 0,0 -2.8212,-5.94506 -1.4106,-8.061 1.4106,-2.11594 1.326,-1.53833 -0.395,-5.001 -1.721,-3.46267 -1.01563,-9.33 -1.01563,-9.33 a 691.2062,691.2062 0 0 1 -3.24053,-82.992578 c 1.04967,-45.5030004 7.41043,-97.777 7.41043,-98.84229 a 7.035,7.035 0 0 0 -0.5859,-3.173 v -2.87206 l 2.7018,-10.17686 z"
       fill="#2f2e41"
       id="path738" /><circle
       cx="-640.23651"
       cy="-112.05016"
       r="27.780001"
       fill="#5e72e4"
       id="circle740" /><path
       d="m -644.02629,-97.591968 a 3.08927,3.08927 0 0 1 -2.47187,-1.23631 l -7.57881,-10.105252 a 3.090072,3.090072 0 1 1 4.94424,-3.70792 l 4.95831,6.61058 12.7348,-19.10194 a 3.0902,3.0902 0 1 1 5.1424,3.42827 l -15.15762,22.736432 a 3.09148,3.09148 0 0 1 -2.48544,1.37513 c -0.0287,5e-4 -0.0573,0.001 -0.086,0.001 z"
       fill="#ffffff"
       id="path742" /><path
       d="m -626.49985,-82.681688 a 7.98812,7.98812 0 0 0 -7.3119,-9.827 l -14.23431,-48.498102 -9.62944,11.17489 15.3201,45.409002 a 8.03141,8.03141 0 0 0 15.85555,1.74121 z"
       fill="#ffb8b8"
       id="path744" /><path
       d="m -636.54221,-106.34184 -1.85,-6.78 2.12,-4.05 -0.16,-0.47 -0.64,-1.82 -3.32,-2.66 1.19,-3.39 -4.2,-11.93 -1.03,-2.07 -24.11,-48.40999 -5.78,-11.61 -1.34,-2.1 -4.17,-6.54 -5.7,-8.93 a 12.74945,12.74945 0 0 0 -8.08,-5.63 12.94873,12.94873 0 0 0 -1.62006,-0.25 l -0.38995,-0.03 a 12.87134,12.87134 0 0 0 -2.91,0.17 h -0.02 a 12.47555,12.47555 0 0 0 -4.74,1.88 12.74026,12.74026 0 0 0 -2.98,2.68 12.90512,12.90512 0 0 0 -2.85,8.55 l 0.18,4.88 0.18,4.44 8.46001,15.3 0.55,1 0.01,0.03 26.03,47.09999 7.85,14.2 1.19,2.16 5.28,3.5 -1.41,3.52 0.41,5.48 4.49,3.39 6.51,6.610002 0.26,0.54 2,-1.01 0.19,-0.1 0.45,-0.13 6.19,-1.870002 3.76,-1.13 0.12,-0.04 1.03,-0.26 z"
       fill="#e6e6e6"
       id="path746" /><path
       d="m -529.53221,113.81816 a 15.26465,15.26465 0 0 0 -16.3,-5.21 l -0.64,0.19 -5.74,22.41 c -0.86,-3.34 -2.7,-10.88 -3.86,-18.26 l -0.1,-0.61005 -0.56995,0.25 a 77.84167,77.84167 0 0 0 -16.79,10.12 80.525,80.525 0 0 0 -30.11,60.64 l -0.01,0.43 -0.01,0.27 0.76,-0.27 16.30995,-5.82995 a 48.6883,48.6883 0 0 0 39.26,-14.64 c 6.59,-6.95 11.11,-15.89 15.48,-24.54 1.28,-2.52 2.59,-5.12 3.93,-7.62 a 15.517,15.517 0 0 0 -1.61,-17.33 z"
       fill="#f2f2f2"
       id="path748"
       style="fill:#344767;fill-opacity:1" /><circle
       cx="-783.23651"
       cy="-340.05017"
       r="27.780001"
       fill="#5e72e4"
       id="circle752" /><path
       d="m -785.14961,-323.71528 a 3.08927,3.08927 0 0 1 -2.47187,-1.23631 l -7.57881,-10.10525 a 3.090072,3.090072 0 1 1 4.94424,-3.70792 l 4.95831,6.61058 12.7348,-19.10194 a 3.0902,3.0902 0 1 1 5.1424,3.42827 l -15.15762,22.73643 a 3.09148,3.09148 0 0 1 -2.48544,1.37513 c -0.0287,5e-4 -0.0573,0.001 -0.086,0.001 z"
       fill="#ffffff"
       id="path754" /><path
       d="m -661.39221,-68.311838 a 18.11307,18.11307 0 0 1 -1,6.19 l -0.15,-0.03 c -17.76081,3.07172 -33.604,3.57456 -40.93329,-7.32742 -9.562,-12.17578 -22.715,-12.038 -37.38666,-6.69254 l -1.74,-1.88 -2.96,-3.19 2.72,-3.08 -2.72,-5.94 2.27,-7.33 2.89995,-0.53004 -0.78,-6.310002 -1.22,-3.69 3.58,-3.93 3.04,-9.81 -2.19,-20.53 a 136.76057,136.76057 0 0 1 16.62,-81.21999 l 8.31,-7.46 3.45,-3.1 4.63,-8.64 4.89,0.57 13.24,1.53 0.45,1.08 3.25,7.84 17.12,18.39 -0.77,7.76 -0.34,3.42 -0.25,2.46 -1.18,11.84 -4.81,48.36999 -0.36,2.57 -3.87,27.81 c 6.29,6.08 11.85,17.790002 14.52,28.490002 0.3,1.19 -0.55,2.4 -0.33,3.56 0.31,1.64 1.66,3.2 1.81,4.73 a 36.37237,36.37237 0 0 1 0.19,4.08 z"
       fill="#e6e6e6"
       id="path762" /><circle
       cx="-695.30054"
       cy="-268.90488"
       r="22.99621"
       fill="#ffb6b6"
       id="circle764" /><path
       d="m -667.57931,-275.17852 c -1.36111,-4.24309 -5.09446,-7.83317 -9.5257,-8.30232 a 15.51161,15.51161 0 0 0 -22.738,-15.50289 4.82341,4.82341 0 0 0 -4.43137,-1.684 9.9457,9.9457 0 0 0 -4.501,1.97209 22.32129,22.32129 0 0 0 -8.92844,21.11147 c -0.0102,-2.02774 0.88812,1.8953 3.46377,2.242 a 16.98977,16.98977 0 0 1 6.01723,2.482 17.5052,17.5052 0 0 0 6.00511,2.51707 c 2.16133,0.31613 2.7185,8.98 1.17479,14.56008 -0.29258,1.05749 -0.4412,2.47639 0.53344,2.98032 1.20026,0.62066 2.41353,-0.93974 3.75632,-1.09191 a 2.32517,2.32517 0 0 1 2.35867,2.20684 3.79078,3.79078 0 0 1 -1.58272,3.08913 11.20227,11.20227 0 0 1 -3.23565,1.5675 l 0.38768,0.55043 a 3.08007,3.08007 0 0 0 3.62818,1.47875 c 1.53772,1.85489 17.38471,-3.2955 18.15747,-6.68106 a 37.4027,37.4027 0 0 0 8.13841,-10.51292 17.8695,17.8695 0 0 0 1.32181,-12.98258 z"
       fill="#2f2e41"
       id="path766" /><path
       d="m -648.98221,-205.14183 c -0.31994,2.68 -2.83,4.68 -5.47,5.24 a 11.83217,11.83217 0 0 1 -4.07,0.07 27.7599,27.7599 0 0 1 -3.9,-0.87 q -2.37,-0.675 -4.69,-1.52 a 74.34057,74.34057 0 0 1 -12.72,-5.95 75.23243,75.23243 0 0 1 -8.76,-5.98 q -2.16,-1.71 -4.19,-3.57 l 1.69,0.8 q -2.265,-3.045 -4.53,-6.09 -2.19,-2.94 -4.37,-5.88 c -0.09,-0.12 -0.16,-0.2 -0.19,-0.24 v -0.01 c -0.67,-0.89 -1.33,-1.78 -1.99,-2.67 -1.99,-2.67 -3.94995,-6.59 -1.66,-9 a 4.29232,4.29232 0 0 1 3.73,-1.13 5.9393,5.9393 0 0 1 2.05,0.66 14.46157,14.46157 0 0 1 4.35,4.39 c 1.56,-2.27 4.59,-3.11 7.33,-2.74 0.15,0.01 0.29,0.03 0.43,0.05 2.85,0.49 4.08,-1.05 6.55,0.46 1.15,0.7 1.85,4.3 3,5 0.65,0.4 3.06,1 3.72,1.41 1.30005,0.8 0.97,3.79 2.28,4.59 0.97,0.59 3.57,-1 4.54,-0.41 1.02,0.63 2.44,4.79 3.46,5.41 2.03,1.25 3.66,-1.03 5.69,0.21 2.61,1.61005 5.39,3.4 6.49,6.26 0.97,2.52 -0.28,5.97 -2.69,6.69 a 4.46616,4.46616 0 0 1 3.92,4.82 z"
       fill="#e6e6e6"
       id="path768" /><path
       d="m -667.11221,-202.22183 -0.25,2.46 a 33.96274,33.96274 0 0 1 -8.30005,-1.87 17.53448,17.53448 0 0 1 -8.72995,-6.49 c -1.36,-2.04 -2.78,-4.07 -4.2,-6.03 -2.36,-3.28 -4.7,-6.34 -6.64,-8.83 -2.37,-3.01 -4.15,-5.19 -4.76,-5.91 -0.09,-0.12 -0.16,-0.2 -0.19,-0.24 l -0.03,-0.03 0.03,0.02 c 11.882,15.03848 23.10535,23.71045 33.41,23.5 0,0 1.21,3.98 -0.34,3.42 z"
       opacity="0.2"
       id="path770" /><path
       d="m -775.84766,-322.65006 a 7.98815,7.98815 0 0 0 7.12039,9.96664 l 13.29325,48.76444 9.84386,-10.98648 -14.4386,-45.69692 a 8.03141,8.03141 0 0 0 -15.8189,-2.04768 z"
       fill="#ffb8b8"
       id="path772" /><path
       d="m -697.80221,-197.95183 -0.09,-4.44 -8.38,-15.89 -0.31,-0.58 -0.02,-0.03 -6.43,-12.18 -31.0275,-58.826 -3.3325,-1.224 0.1666,-4.77836 -0.1666,-5.22164 -4.00316,-2.68394 -1.70684,-3.23606 -2.42,0.69 h -0.01 l -0.07,0.02 -10.58,2.97 h -0.01 l -2.2,1.24 -2,6 -0.43785,2.84056 0.43785,5.15944 5,1 -1.65642,5.29044 5.02642,15.21956 c 6.29,26.6 14.88,49.56 29.71,62.67 l 1.22,2 9.65,15.79 a 12.80565,12.80565 0 0 0 12.89,5.99 h 0.01 a 12.68313,12.68313 0 0 0 4.78,-1.78 12.49451,12.49451 0 0 0 3.46,-3.17 12.88365,12.88365 0 0 0 2.59,-7.95 z"
       fill="#e6e6e6"
       id="path774" /><path
       d="m -522.48997,186.06656 -271.75,0.30733 a 1.190685,1.190685 0 0 1 0,-2.38137 l 271.75,-0.30733 a 1.190685,1.190685 0 0 1 0,2.38137 z"
       fill="#cacaca"
       id="path776"
       style="fill:#344767;fill-opacity:1" /></g><g
     id="g3371"
     transform="translate(37.370742,11.722164)"><path
       d="m 812.65719,351.00821 -48.32166,-14.79238 c -1.06882,-0.32716 -2.19038,-0.4466 -3.30415,-0.3518 l -244.90187,20.84269 c -3.49184,0.29715 -4.36942,5.00693 -1.21895,6.54176 l 7.84468,3.82176 h -0.20917 v 182.95168 h 7.39199 V 370.56958 l 24.58572,11.97763 c 1.88116,0.91644 3.98046,1.29052 6.06233,1.08022 l 2.61589,-0.26422 v 166.65871 h 7.39199 v -167.4054 l 189.41967,-19.13326 v 186.53866 h 7.39199 V 362.73657 l 31.41595,-3.17331 v 190.45866 h 7.39199 V 358.81657 l 5.7314,-0.57891 c 4.0236,-0.40645 4.57916,-6.04575 0.71223,-7.22945 z"
       fill="#3f3d56"
       id="path3339" /><path
       d="m 587.22595,355.98226 c 4.61999,0 72.99587,-8.31599 72.99587,-8.31599 l 10.16398,13.85998 -71.14788,13.85998 -12.01198,-19.40397 z"
       fill="#ffffff"
       id="path3341"
       style="fill:#e9ecef;fill-opacity:1" /><g
       id="g3347"><polygon
         points="662.26939,542.91667 650.39,542.89512 644.81757,497.06436 662.35045,497.09569 "
         fill="#a0616a"
         id="polygon3343" /><path
         d="m 621.56955,542.57731 v 0 c -0.37095,0.62232 -0.56957,2.63259 -0.57082,3.35703 v 0 c -0.004,2.22674 1.79818,4.03501 4.02499,4.03884 l 36.78911,0.0632 c 1.51907,0.003 2.7527,-1.22673 2.75531,-2.74587 l 0.003,-1.53165 c 0,0 1.82782,-4.60028 -1.90933,-10.28065 0,0 -4.66452,4.43479 -11.61116,-2.53575 l -2.04565,-3.72093 -14.87251,10.83785 -8.23501,0.9993 c -1.80165,0.21861 -3.39821,-0.0402 -4.32743,1.51866 h -1.4e-4 z"
         fill="#2f2e41"
         id="path3345" /></g><g
       id="g3353"><polygon
         points="726.02735,521.60456 716.65452,528.67376 684.92538,495.88695 698.75852,485.45309 "
         fill="#a0616a"
         id="polygon3349" /><path
         d="m 693.75683,545.61506 v 0 c 0.0789,0.71161 1.12159,2.41402 1.55275,2.98556 v 0 c 1.32526,1.75677 3.82374,2.10662 5.58057,0.78132 l 29.02444,-21.89533 c 1.19846,-0.90409 1.43715,-2.60858 0.53302,-3.80709 l -0.91157,-1.20838 c 0,0 -1.30394,-4.71495 -7.63691,-6.96136 0,0 -1.02986,6.27668 -10.66123,4.92822 l -3.83137,-1.71153 -5.2534,17.41094 -5.89241,5.69963 c -1.28915,1.24695 -2.70151,1.99536 -2.50376,3.77794 l -1.1e-4,9e-5 z"
         fill="#2f2e41"
         id="path3351" /></g><path
       d="m 701.20012,284.7398 c 0,10.95483 -8.88064,19.83547 -19.83547,19.83547 -10.95483,0 -19.83547,-8.88064 -19.83547,-19.83547 0,-10.95483 8.88064,-19.83547 19.83547,-19.83547 10.95483,0 19.83547,8.88064 19.83547,19.83547 z"
       fill="#a0616a"
       id="path3355" /><path
       d="m 699.33129,399.1067 c 0,0 -73.0319,-4.13388 -77.16578,4.13388 -4.13388,8.26776 22.34833,121.83338 22.34833,121.83338 l 23.62655,-4.95175 -11.52587,-79.6767 c 0,0 60.94342,16.14005 69.21118,-3.1514 8.26776,-19.29144 5.88766,-26.47475 5.88766,-26.47475 z"
       fill="#2f2e41"
       id="path3357" /><path
       d="m 718.04278,385.22869 c 0,0 -71.52378,15.33281 -73.3233,24.3996 -1.79952,9.06679 53.78128,111.58133 53.78128,111.58133 l 21.47498,-11.02537 -32.19248,-73.78934 c 0,0 63.04198,-0.55653 65.91197,-21.34785 2.86999,-20.79132 -1.32556,-27.08911 -1.32556,-27.08911 l -34.3269,-2.72925 z"
       fill="#2f2e41"
       id="path3359" /><path
       d="m 726.20152,307.47234 h -34.36221 l -23.51213,38.58289 c 0,0 -5.51184,24.93349 0,27.62431 5.51184,2.69082 5.51184,31.62799 5.51184,31.62799 l 57.87433,5.51184 c 0,0 8.26776,-86.8115 5.51184,-95.07926 -2.75592,-8.26776 -11.02368,-8.26776 -11.02368,-8.26776 z"
       fill="#5e72e4"
       id="path3361"
       style="fill:#f5365c;fill-opacity:1" /><path
       d="m 671.77208,332.96463 -3.44492,40.71481 -38.74748,-16.44473 -9.24771,-4.6509 c -1.81128,-2.36188 -4.16183,-4.25556 -6.85504,-5.52279 -6.69735,-3.264 -13.80747,-2.4555 -15.8841,1.80514 -2.07668,4.26063 1.66736,10.35956 8.36279,13.62153 2.6583,1.34088 5.59915,2.02531 8.57642,1.99632 l 27.05797,15.36813 0.0319,-0.0601 0.11996,0.21419 42.43185,17.72245 9.76312,-53.44911 -22.16474,-11.31492 z"
       fill="#a0616a"
       id="path3363" /><path
       d="m 667.63821,287.49192 c 0,0 -20.6694,2.75592 -12.40164,-15.15756 0,0 -1.2606,-9.71082 4.88154,-10.36725 6.14214,-0.65643 14.4099,-11.68011 14.4099,-11.68011 0,0 18.95509,-9.64572 28.76899,0 9.8139,9.64572 38.75106,66.14209 38.75106,66.14209 l -19.29144,20.6694 c 0,0 -11.59783,-30.48873 -25.09036,-26.95703 -13.49253,3.5317 -25.89417,14.06171 -25.89417,14.06171 0,0 -13.6928,-6.8525 -7.53538,-12.82513 6.15742,-5.97263 3.4015,-23.88612 3.4015,-23.88612 z"
       fill="#2f2e41"
       id="path3365" /><path
       d="m 695.19741,317.80704 c 0,0 -9.64572,-12.40164 -16.53552,-2.75592 -6.8898,9.64572 -12.40164,22.04736 -12.40164,22.04736 l 27.55921,9.64572 1.37796,-28.93717 z"
       fill="#5e72e4"
       id="path3367"
       style="fill:#f5365c;fill-opacity:1" /><path
       d="m 799.83575,547.27902 -32.01899,-101.77021 0.005,-3.4e-4 h 0.0739 l -0.12937,-0.16637 -0.003,-0.004 -2.28061,-7.24885 0.001,-9e-4 c 3.47424,-2.99375 5.83968,-7.27186 6.31092,-12.19685 l -14.63616,-80.49862 c 1.00718,-10.5706 -7.0963,-19.81058 -17.71303,-20.18945 l -33.02369,-0.0831 c -9.3878,-0.33263 -17.51903,6.44949 -18.88653,15.74497 l -0.72994,4.93412 -10.11779,68.82863 c -0.36962,2.47625 -0.22175,4.91573 0.36037,7.19798 l -7.28111,0.95175 -2.20837,0.29563 -8.7318,1.1365 -0.0277,0.009 -1.09031,0.13862 h -1.18275 v 29.56795 h 0.0739 v 94.50658 c 0,0.60976 0.49894,1.10875 1.10881,1.10875 0.61906,0 1.118,-0.499 1.118,-1.10875 v -94.50658 h 12.95448 l 12.92673,94.39559 c 0.0832,0.55449 0.55438,0.96099 1.10881,0.96099 0.0462,0 0.10163,0 0.14781,-0.009 0.60987,-0.0831 1.03487,-0.64675 0.95175,-1.25662 l -12.88054,-94.09072 h 62.15733 c 6.17174,0 11.89073,-1.95853 16.54743,-5.31209 l 24.64454,99.53455 c 0.12825,0.50373 0.58088,0.83839 1.07785,0.83839 0.0907,0 0.18312,-0.0108 0.27527,-0.0342 0.59555,-0.15159 0.95558,-0.75752 0.80421,-1.35306 l -24.8828,-100.49674 c 0.33093,-0.27589 0.66192,-0.57005 0.97453,-0.87347 l 9.89305,-0.58179 32.1857,102.30011 c 0.14939,0.47497 0.58821,0.77929 1.06127,0.77929 0.11059,0 0.22305,-0.0168 0.3342,-0.0517 0.58635,-0.18475 0.9121,-0.80974 0.72763,-1.39604 z M 763.36776,439.66885 c 0.0831,-0.0463 0.15706,-0.10174 0.231,-0.14798 l 5.6e-4,-4.5e-4 0.23777,0.75571 z"
       fill="#e6e6e6"
       id="path3369"
       style="fill:#3f3d56;fill-opacity:1" /></g><g
     id="g3897"
     transform="translate(-171.71859,213.5715)"><path
       d="m 812.65719,351.00821 -48.32166,-14.79238 c -1.06882,-0.32716 -2.19038,-0.4466 -3.30415,-0.3518 l -244.90187,20.84269 c -3.49184,0.29715 -4.36942,5.00693 -1.21895,6.54176 l 7.84468,3.82176 h -0.20917 v 182.95168 h 7.39199 V 370.56958 l 24.58572,11.97763 c 1.88116,0.91644 3.98046,1.29052 6.06233,1.08022 l 2.61589,-0.26422 v 166.65871 h 7.39199 v -167.4054 l 189.41967,-19.13326 v 186.53866 h 7.39199 V 362.73657 l 31.41595,-3.17331 v 190.45866 h 7.39199 V 358.81657 l 5.7314,-0.57891 c 4.0236,-0.40645 4.57916,-6.04575 0.71223,-7.22945 z"
       fill="#3f3d56"
       id="path3865" /><path
       d="m 587.22595,355.98226 c 4.61999,0 72.99587,-8.31599 72.99587,-8.31599 l 10.16398,13.85998 -71.14788,13.85998 -12.01198,-19.40397 z"
       fill="#ffffff"
       id="path3867"
       style="fill:#e9ecef;fill-opacity:1" /><path
       d="m 819.419,589.42155 -32.01899,-101.77021 0.005,-3.4e-4 h 0.0739 l -0.12937,-0.16637 -0.003,-0.004 -2.28061,-7.24885 10e-4,-9e-4 c 3.47424,-2.99375 5.83968,-7.27186 6.31092,-12.19685 l -14.63616,-80.49862 c 1.00718,-10.5706 -7.0963,-19.81058 -17.71303,-20.18945 l -33.02369,-0.0831 c -9.3878,-0.33263 -17.51903,6.44949 -18.88653,15.74497 l -0.72994,4.93412 -10.11779,68.82863 c -0.36962,2.47625 -0.22175,4.91573 0.36037,7.19798 l -7.28111,0.95175 -2.20837,0.29563 -8.7318,1.1365 -0.0277,0.009 -1.09031,0.13862 h -1.18275 v 29.56795 h 0.0739 v 94.50658 c 0,0.60976 0.49894,1.10875 1.10881,1.10875 0.61906,0 1.118,-0.499 1.118,-1.10875 v -94.50658 h 12.95448 l 12.92673,94.39559 c 0.0832,0.55449 0.55438,0.96099 1.10881,0.96099 0.0462,0 0.10163,0 0.14781,-0.009 0.60987,-0.0831 1.03487,-0.64675 0.95175,-1.25662 l -12.88054,-94.09072 h 62.15733 c 6.17174,0 11.89073,-1.95853 16.54743,-5.31209 l 24.64454,99.53455 c 0.12825,0.50373 0.58088,0.83839 1.07785,0.83839 0.0907,0 0.18312,-0.0108 0.27527,-0.0342 0.59555,-0.15159 0.95558,-0.75752 0.80421,-1.35306 L 774.24262,489.2451 c 0.33093,-0.27589 0.66192,-0.57005 0.97453,-0.87347 l 9.89305,-0.58179 32.1857,102.30011 c 0.14939,0.47497 0.58821,0.77929 1.06127,0.77929 0.11059,0 0.22305,-0.0168 0.3342,-0.0517 0.58635,-0.18475 0.9121,-0.80974 0.72763,-1.39604 z M 782.95101,481.81138 c 0.0831,-0.0463 0.15706,-0.10174 0.231,-0.14798 l 5.6e-4,-4.5e-4 0.23777,0.75571 z"
       fill="#e6e6e6"
       id="path3895"
       inkscape:transform-center-x="21.232262"
       inkscape:transform-center-y="-13.270164"
       style="fill:#3f3d56;fill-opacity:1" /><g
       id="g6040"
       transform="matrix(0.81988986,0,0,0.90156015,1263.784,1119.4717)"><g
         id="g5984"
         transform="matrix(0.75383647,0.00596644,-0.00678022,0.72025807,-931.15405,-973.35179)"><polygon
           points="252.32903,421.52214 261.1483,480.08779 245.96467,482.37354 229.91947,424.89638 "
           fill="#ffb6b6"
           id="polygon5980" /><path
           d="m 264.06881,495.84658 -46.69146,7.03187 -0.0889,-0.59042 c -1.51128,-10.0367 5.39935,-19.39843 15.43586,-20.91092 l 0.001,-1.7e-4 7.55402,-7.75508 16.88758,4.0742 4.07587,-0.6139 2.82594,18.76442 z"
           fill="#2f2e41"
           id="path5982" /></g><g
         id="g5990"
         transform="matrix(0.75383647,0.00596644,-0.00678022,0.72025807,-931.15405,-973.35179)"><polygon
           points="361.13201,414.74173 387.37228,467.83751 373.60654,474.63984 340.81533,424.78195 "
           fill="#ffb6b6"
           id="polygon5986" /><path
           d="m 394.9544,481.95772 -42.3304,20.92072 -0.26457,-0.53527 c -4.49681,-9.09934 -0.76636,-20.12125 8.33243,-24.61916 l 10e-4,-5e-4 4.83268,-9.68761 17.32607,-1.26368 3.69515,-1.82631 8.40761,17.0118 z"
           fill="#2f2e41"
           id="path5988" /></g><path
         d="m -616.76253,-747.33751 0.82817,-67.73777 16.92543,-4.13711 -5.58088,71.68923 c 1.38151,1.06868 2.46769,2.51631 3.0522,4.25419 1.60117,4.76021 -1.14063,9.86206 -6.12403,11.39523 -4.9833,1.53322 -10.32102,-1.08282 -11.92218,-5.84303 -1.19808,-3.56205 0.0363,-7.3145 2.82129,-9.62073 z"
         fill="#ffb6b6"
         id="path5992"
         style="stroke-width:0.736883" /><path
         d="m -724.35629,-766.0368 3.73892,-67.65012 17.08848,-3.46964 -8.65734,71.41186 c 1.3344,1.12204 2.3574,2.6111 2.8667,4.37049 1.39517,4.81916 -1.56353,9.80928 -6.60847,11.14567 -5.04484,1.33644 -10.26546,-1.48691 -11.66064,-6.30608 -1.04392,-3.60613 0.35076,-7.3071 3.23235,-9.50218 z"
         fill="#ffb6b6"
         id="path5994"
         style="stroke-width:0.736883" /><path
         d="m -677.47676,-741.3955 -44.10257,13.4387 -25.8338,7.86882 c 10.63878,18.17921 9.16125,73.8448 8.27753,78.46079 l -22.49811,-0.17807 c -0.17805,-4.15533 -15.5999,-58.6061 -20.08368,-83.24937 -5.83476,-32.06877 23.0345,-39.95868 23.0345,-39.95868 l 41.73807,-15.49152 26.13314,-6.07139 20.65011,-4.7978 c 0.91871,1.69409 1.71509,3.34663 2.40322,4.96221 0.005,0.004 0.005,0.0136 0.009,0.0181 12.20199,28.63275 -9.72768,44.99818 -9.72768,44.99818 z"
         fill="#2f2e41"
         id="path5996"
         style="stroke-width:0.736883" /><path
         d="m -619.88561,-766.59383 c -0.71975,9.26281 -4.81924,15.50408 -4.81924,15.50408 l -58.1768,42.78357 c 11.50865,9.51748 39.03876,56.22554 41.44935,62.4101 l -25.20446,3.40209 c -2.71533,-4.90608 -46.02697,-52.21956 -50.27939,-59.32072 -5.51185,-9.20392 -6.21548,-18.19835 -4.6632,-26.14208 3.20891,-16.44144 16.09981,-28.39527 16.09981,-28.39527 l 31.95262,-27.53908 5.7259,-2.50296 0.0427,-0.0178 32.12291,-14.03865 c 5.47745,4.83323 9.19858,9.70215 11.65618,14.40321 2.71263,5.19017 3.87889,10.17419 4.1387,14.66845 0.0976,1.66952 0.0731,3.26597 -0.0451,4.78497 z"
         fill="#2f2e41"
         id="path5998"
         style="stroke-width:0.736883" /><path
         d="m -646.85188,-910.71046 -31.61644,-1.15229 -9.54217,10.74901 c -9.08759,0.93774 -17.10042,4.23727 -23.70257,10.63694 0,0 5.07119,13.32601 3.38556,41.52084 -0.87881,14.69916 2.36445,41.81029 1.86759,52.33339 -0.44253,9.37274 0.99636,13.56641 1.28868,13.54087 1.24992,-0.10912 7.10993,-3.10087 18.87632,0.60042 11.76637,3.70131 63.48442,-3.60313 63.48442,-3.60313 l -3.29669,-21.62877 4.49181,-13.53137 2.451,-72.10794 c -9.87409,-4.13735 -15.05349,-5.53141 -24.49377,-5.60613 l -3.19371,-11.75186 z"
         fill="#5e72e4"
         id="path6000"
         style="stroke-width:0.736883" /><path
         d="m -628.99169,-887.85185 9.35529,-5.50435 c 0,0 17.01796,-2.57144 15.30898,28.53558 0,0 9.09954,22.49121 8.34975,42.03591 -0.0465,1.21143 -1.33221,2.99592 -0.25748,3.5943 2.2828,1.27099 1.18204,2.44981 -0.5308,3.59106 l -21.38198,4.3791 c -1.88697,-1.7273 -2.84029,-3.33542 -1.29382,-4.62452 -1.72225,-0.61142 -2.15259,-1.44152 -0.72361,-2.58624 -0.78955,-0.14815 -1.14799,-0.60667 -0.50068,-1.78951 l -10.3149,-21.3579 1.98926,-46.27343 z"
         fill="#5e72e4"
         id="path6002"
         style="stroke-width:0.736883" /><path
         d="m -701.04682,-886.35857 -10.01644,-4.29853 c 0,0 -17.22108,-0.44016 -11.34782,30.19487 0,0 -5.38162,21.00852 -3.09306,39.61549 0.0507,0.41196 0.44438,0.91781 0.16341,1.23203 -0.94778,1.05996 -1.07066,2.11256 0.53585,3.15574 0.55728,0.36185 0.74377,1.32953 0.40976,1.88106 -1.07547,1.77591 -0.33876,2.94411 1.09766,3.86281 l 25.06637,8.52752 7.13413,-50.22364 z"
         fill="#5e72e4"
         id="path6004"
         style="stroke-width:0.736883" /><ellipse
         cx="-674.39288"
         cy="-934.35242"
         fill="#ffb6b6"
         id="circle6006"
         rx="26.747122"
         ry="25.556047"
         style="stroke-width:0.736884"
         transform="matrix(0.99996868,0.00791452,-0.00941317,0.9999557,0,0)" /><path
         d="m -640.64018,-922.38486 c -0.3291,0.57714 -1.28149,1.3518 -2.56418,2.20891 -1.45867,0.97401 -3.33982,2.05041 -5.20647,3.07829 0,0 -6.7208,-0.74911 -4.04109,-4.13254 0.30018,-0.37531 0.58169,-0.7931 0.83836,-1.23263 0.93963,-1.62454 1.40804,-3.53455 0.24981,-4.90564 -0.85775,-1.01225 -2.49705,-1.32323 -3.69495,-0.69775 -1.19578,0.61859 -0.75672,0.61815 -1.21342,0.49395 -1.10432,-1.23659 -2.91625,-0.68073 -2.91625,-0.68073 0,0 1.42895,-3.02698 2.5489,-4.31035 1.12723,-1.2814 2.28649,-2.6964 2.4153,-4.36165 0.13198,-1.59702 -0.70323,-3.10496 -1.50934,-4.50018 -0.87349,-1.51087 -1.7418,-3.01293 -2.61526,-4.52387 -0.29533,-0.50721 -0.58853,-1.02126 -0.91181,-1.51381 -3.13312,-4.83689 -13.5052,-0.0245 -19.4564,-0.28001 -5.94915,-0.26226 -7.89014,-7.20171 -11.47348,-2.6559 -0.82246,-3.62422 -1.43857,-6.44332 -2.25876,-9.55013 -0.74872,-2.84775 2.60552,-5.15636 5.12866,-3.47403 0.0196,0.0135 0.0322,0.0245 0.0519,0.0372 0.36019,-0.41887 0.6272,-0.89294 0.80406,-1.40681 0.12208,-0.35624 0.31249,-0.67902 0.54333,-0.95328 0.84517,0.58199 1.69245,1.15689 2.53041,1.73685 -0.14743,-0.97627 -0.47706,-1.91991 -0.95372,-2.79104 0.74548,-0.23927 1.58116,-0.22922 2.36412,0.0888 l 1.40746,0.56255 c 0.42964,-0.3625 0.7453,-0.81602 0.95844,-1.31984 0.57312,-1.39463 2.02362,-2.23601 3.58417,-2.08143 2.5195,0.25085 -0.80453,-0.30418 1.71468,-0.84002 3.85908,-0.82312 8.15203,-1.60314 11.55961,0.31982 5.09989,2.86989 8.95685,4.97888 17.99611,5.77073 4.49589,2.9168 6.3771,9.86403 7.73287,13.35606 1.07897,2.76535 1.8524,8.2338 0.65321,10.96374 -3.02431,6.90008 -0.54484,11.01241 -4.26617,17.59558 z"
         fill="#2f2e41"
         id="path6008"
         style="stroke-width:0.736883" /></g></g><g
     id="g6690"
     transform="translate(866.86177,1388.9231)"><g
       id="g6627"
       transform="translate(-1.8766845,35.657006)"><path
         d="m -433.39569,-1122.2537 -27.5495,-95.4189 c -6.1632,-21.3463 -23.6874,-35.7769 -43.4466,-35.7769 h -10e-5 c -21.9782,0 -40.8476,17.7783 -44.9315,42.3333 l -15.2362,91.6105 c -2.18171,13.1181 6.4183,25.2735 18.0249,25.8164 v 62.6352 h 4.2519 v -62.6091 h 89.2915 v 62.6091 h 4.2519 v -62.8574 c 11.4873,-1.9356 19.1073,-15.307 15.3437,-28.3422 z"
         fill="#cccccc"
         id="path6539"
         style="stroke-width:0.795417;fill:#3f3d56;fill-opacity:1" /><g
         id="g6581" /><g
         id="g6848"
         transform="matrix(0.90120106,0,0,0.93644874,-74.227729,-503.27121)"><polygon
           points="435.5,623.614 434.5,607.614 396.5,607.614 392.5,629.614 418.5,633.614 "
           fill="#575a89"
           id="polygon6766"
           transform="matrix(0.71652877,0,0,0.75124785,-661.12839,-984.46559)" /><path
           d="m -470.89001,-838.26259 c 0,0 -1.43306,17.2787 -5.0157,18.02995 -3.58264,0.75125 7.88182,30.80116 7.88182,30.80116 h 17.19669 l 13.61404,-3.75624 -6.44875,-16.52745 c 0,0 -8.59835,-12.01997 -2.14959,-21.78619 6.44876,-9.76622 -25.07851,-6.76123 -25.07851,-6.76123 z"
           fill="#a0616a"
           id="path6768"
           style="stroke-width:0.733683" /><path
           d="m -470.89001,-838.26259 c 0,0 -1.43306,17.2787 -5.0157,18.02995 -3.58264,0.75125 7.88182,30.80116 7.88182,30.80116 h 17.19669 l 13.61404,-3.75624 -6.44875,-16.52745 c 0,0 -8.59835,-12.01997 -2.14959,-21.78619 6.44876,-9.76622 -25.07851,-6.76123 -25.07851,-6.76123 z"
           opacity="0.1"
           id="path6770"
           style="stroke-width:0.733683" /><path
           d="m -506.71645,-706.04297 c 0,0 -18.62974,37.56239 -3.58264,45.07487 15.0471,7.51248 18.62975,6.76123 18.62975,9.01497 0,2.25375 -2.86612,1.5025 -1.43306,5.25874 1.43306,3.75624 -2.86612,18.7812 1.43306,27.79617 4.29917,9.01497 2.86611,15.7762 2.86611,15.7762 0,0 0,0.75125 1.43306,3.75624 1.43306,3.005 2.14959,5.25874 1.43306,6.76123 -0.71653,1.5025 -5.0157,11.26872 -0.71653,13.52247 4.29917,2.25374 26.51156,3.75623 28.66115,0 2.14959,-3.75624 -2.14959,-6.00999 0,-8.26373 2.14959,-2.25374 3.58264,-3.00499 2.14959,-4.50749 -1.43306,-1.50249 -2.86612,-20.28369 -2.86612,-20.28369 0,0 3.58264,-21.78619 2.14959,-24.79118 -1.43306,-3.00499 -3.58265,-6.00998 -2.14959,-8.26372 1.43306,-2.25375 2.86612,-1.5025 3.58264,-4.50749 0.71653,-3.00499 2.14959,-9.76622 2.14959,-9.76622 l 7.88182,-0.75125 18.62975,3.75624 c 0,0 20.77933,24.03993 43.70825,31.55241 0,0 6.44876,6.76123 8.59835,6.76123 2.14958,0 2.14958,0 1.43305,1.50249 -0.71653,1.5025 -2.86611,1.5025 -1.43305,3.00499 1.43305,1.5025 3.58264,-0.75124 2.14958,1.5025 -1.43306,2.25374 -2.86611,2.25374 -1.43306,3.75624 1.43306,1.5025 -0.71652,9.76622 -0.71652,10.51747 0,0.75125 -6.44876,71.36854 -4.29918,72.87104 2.14959,1.5025 32.2438,6.00998 34.39338,0 2.14959,-6.00998 -1.43305,-13.52246 -1.43305,-13.52246 0,0 10.74793,-90.14974 7.88181,-96.15972 -2.86611,-6.00999 -12.89751,-33.05491 -66.63717,-50.33361 0,0 -15.04711,-3.00499 -15.04711,-5.25874 0,-2.25374 -1.43305,-16.52745 -4.29917,-17.2787 -2.86611,-0.75124 -19.34628,-1.50249 -19.34628,-1.50249 l -20.77933,6.76123 -28.66115,-5.25874 z"
           fill="#2f2e41"
           id="path6772"
           style="stroke-width:0.733683" /><path
           d="m -481.63794,-579.83333 -3.58264,13.52246 c 0,0 -2.86612,21.78619 0.71653,27.04492 2.81408,4.13062 7.83857,9.18824 17.15691,10.07589 a 11.515441,12.073417 0 0 0 12.02232,-8.35218 3.5873228,3.7611449 0 0 0 0.19847,-0.97246 c 0,-1.5025 -2.14958,-19.53244 -2.14958,-19.53244 l -3.58265,-18.7812 -0.71653,-5.25874 z"
           fill="#2f2e41"
           id="path6774"
           style="stroke-width:0.733683" /><path
           d="m -377.02474,-515.22602 c 0,0 -3.58264,-3.75624 -4.29917,0 -0.71653,3.75624 -3.58265,19.53245 1.43306,20.28369 5.0157,0.75125 53.02313,8.26373 58.03883,5.25874 5.0157,-3.00499 14.33057,-7.51248 8.59834,-9.76622 -5.73223,-2.25375 -22.21239,-9.01498 -22.21239,-9.01498 0,0 -9.31487,-12.77121 -10.74793,-13.52246 -1.43306,-0.75125 -9.31488,0.75125 -12.89752,3.75624 -3.58264,3.00499 -17.91322,3.00499 -17.91322,3.00499 z"
           fill="#2f2e41"
           id="path6776"
           style="stroke-width:0.733683" /><ellipse
           cx="-453.6933"
           cy="-845.77509"
           fill="#a0616a"
           id="circle6778"
           rx="22.212393"
           ry="23.288683"
           style="stroke-width:0.733683" /><path
           d="m -455.8429,-793.18772 -8.59835,-9.76622 -9.53089,-19.53245 c 0,0 -6.94927,-2.25374 -8.38233,1.5025 -1.43306,3.75624 -27.22809,15.7762 -27.22809,15.7762 0,0 6.44876,63.10482 3.58264,69.11481 -2.86611,6.00998 -7.88181,30.04991 -3.58264,32.30365 4.29917,2.25375 24.36198,0 30.81074,3.00499 6.44875,3.005 25.0785,3.005 30.0942,-0.75124 5.01571,-3.75624 6.44876,-6.76123 11.46446,-4.50749 4.26999,1.91869 14.2523,-63.67652 17.12622,-83.22399 a 8.4865668,8.8977795 0 0 0 -3.51678,-8.64664 c -6.42924,-4.72824 -18.00835,-12.87613 -20.05819,-11.80154 -2.86612,1.50246 -12.18099,16.52742 -12.18099,16.52742 z"
           fill="#575a89"
           id="path6780"
           style="stroke-width:0.733683" /><path
           d="m -425.03217,-796.19271 v 0 a 8.4976873,8.9094388 0 0 1 6.38473,7.65955 l 5.79626,54.69402 c 0,0 -14.33058,32.30366 -21.49587,10.51747 -7.16529,-21.78619 9.31488,-72.87104 9.31488,-72.87104 z"
           fill="#575a89"
           id="path6782"
           style="stroke-width:0.733683" /><path
           d="m -426.46522,-728.58041 15.76363,-4.50748 c 0,0 2.86611,21.03494 5.73223,21.03494 2.86611,0 -10.0314,12.01996 -16.48016,10.51747 -6.44876,-1.5025 -15.76364,-6.76123 -16.48016,-10.51747 -0.71653,-3.75624 6.44875,-19.53245 6.44875,-19.53245 z"
           fill="#575a89"
           id="path6784"
           style="stroke-width:0.733683" /><path
           d="m -470.46132,-835.72865 c 1.51039,-3.4918 1.24815,-7.56481 2.49684,-11.16845 a 12.70202,13.317491 0 0 1 19.31271,-6.29599 c 1.6063,1.2008 3.2167,2.88792 5.17734,2.65866 2.1114,-0.24685 3.99465,-2.71646 5.93587,-1.81138 2.15157,1.00317 1.57044,5.04596 3.75025,5.97973 1.14737,0.49151 2.50323,-0.26528 3.16501,-1.36404 a 8.0427489,8.4324566 0 0 0 0.92134,-3.73838 c 0.30077,-3.20413 0.57257,-6.5952 -0.7528,-9.49948 a 21.70289,22.754493 0 0 1 -1.45333,-3.07254 10.026996,10.51285 0 0 1 -0.2763,-3.03083 c -0.0121,-3.76607 -0.2743,-7.69439 -2.08201,-10.94881 -2.00595,-3.61133 -5.71393,-5.92058 -9.58232,-6.92821 -3.86839,-1.00763 -7.92123,-0.85312 -11.893,-0.50059 -6.56572,0.58277 -13.41289,1.83197 -18.58572,6.1114 a 7.2708181,7.6231222 0 0 0 -1.78656,1.96791 9.6910517,10.160627 0 0 0 -0.95163,2.88591 56.92791,59.686326 0 0 1 -4.99252,13.73067 28.414858,29.791687 0 0 0 -2.57623,5.83377 c -0.54856,2.06926 -0.51151,4.42743 0.63678,6.20595 0.93489,1.44799 2.4295,2.21966 3.60375,3.40348 1.16355,1.17305 1.70797,3.42898 2.99689,4.31722 1.12519,0.7754 2.47296,0.22805 3.62055,1.04989 1.47337,1.05515 1.57979,3.36872 3.31509,4.21411 z"
           fill="#2f2e41"
           id="path6786"
           style="stroke-width:0.733683" /><path
           d="m -452.26026,-781.919 2.14959,-4.50749 c 0,0 31.52726,9.76622 37.97602,18.7812 0,0 15.76363,-10.51747 24.36198,-9.01498 l 8.59834,1.5025 -26.51156,24.79118 -33.67685,-3.00499 z"
           fill="#f2f2f2"
           id="path6788"
           style="stroke-width:0.733683" /><path
           d="m -453.69332,-786.42649 -29.37768,42.82113 42.2752,21.78619 c 0,0 3.95217,2.25374 6.99179,0 l 28.11812,-13.52247 26.51156,-39.81613 -26.51156,14.27371 c 0,0 -2.86611,-6.00999 -8.59835,-3.00499 z"
           fill="#5e72e4"
           id="path6790"
           style="stroke-width:0.733683" /><path
           d="m -408.552,-710.55046 5.73223,-15.7762 c 0,0 12.89751,-17.2787 5.73223,-25.54243 -7.16529,-8.26373 -15.04711,24.03993 -15.04711,24.03993 z"
           fill="#a0616a"
           id="path6792"
           style="stroke-width:0.733683" /><path
           d="m -474.68927,-713.06805 12.5079,-10.63166 c 0,0 19.42509,-8.1623 17.18129,-19.07978 -2.24381,-10.91748 -24.52,12.88024 -24.52,12.88024 z"
           fill="#a0616a"
           id="path6794"
           style="stroke-width:0.733683" /><path
           d="m -505.64165,-789.05586 h -0.71653 c 0,0 -11.1062,-13.89808 -13.25578,4.88311 -2.14959,18.7812 -9.31488,81.13477 9.31487,83.38851 18.62975,2.25375 31.88553,-9.39059 31.88553,-9.39059 0,0 13.61405,-21.78619 8.59835,-21.78619 -2.42682,0 -9.02709,-1.14277 -15.04711,-0.75125 -6.42205,0.4177 -12.19256,2.31443 -11.82272,0.37563 0.71652,-3.75624 11.10619,-51.46048 -8.95661,-56.71922 z"
           opacity="0.1"
           id="path6796"
           style="stroke-width:0.733683" /><path
           d="m -506.71645,-803.70519 -2.86611,-1.5025 c 0,0 -11.46446,2.25375 -13.61405,21.03494 -2.14958,18.7812 -9.31487,81.13477 9.31488,83.38851 18.62974,2.25375 43.70825,-3.00499 43.70825,-3.00499 0,0 5.0157,-28.54741 0,-28.54741 -5.0157,0 -30.81074,3.75623 -30.09421,0 0.71653,-3.75624 13.61405,-66.10982 -6.44876,-71.36855 z"
           fill="#575a89"
           id="path6798"
           style="stroke-width:0.733683" /><polygon
           points="349.027,336.213 356,364.114 338,372.114 338,353.114 "
           fill="#575a89"
           id="polygon6800"
           transform="matrix(0.71652877,0,0,0.75124785,-661.12839,-984.46559)" /></g></g></g></svg>
