<?xml version="1.0" encoding="UTF-8" standalone="no"?>
<svg
   data-name="Layer 1"
   width="257.81497"
   height="271.08752"
   viewBox="0 0 257.81497 271.08752"
   version="1.1"
   id="svg90"
   sodipodi:docname="download.svg"
   inkscape:version="1.2.1 (9c6d41e410, 2022-07-14)"
   xmlns:inkscape="http://www.inkscape.org/namespaces/inkscape"
   xmlns:sodipodi="http://sodipodi.sourceforge.net/DTD/sodipodi-0.dtd"
   xmlns="http://www.w3.org/2000/svg"
   xmlns:svg="http://www.w3.org/2000/svg">
  <defs
     id="defs94" />
  <sodipodi:namedview
     id="namedview92"
     pagecolor="#505050"
     bordercolor="#eeeeee"
     borderopacity="1"
     inkscape:showpageshadow="0"
     inkscape:pageopacity="0"
     inkscape:pagecheckerboard="0"
     inkscape:deskcolor="#505050"
     showgrid="false"
     inkscape:zoom="1.5878944"
     inkscape:cx="122.48925"
     inkscape:cy="117.45114"
     inkscape:window-width="1920"
     inkscape:window-height="1001"
     inkscape:window-x="-9"
     inkscape:window-y="-9"
     inkscape:window-maximized="1"
     inkscape:current-layer="svg90" />
  <g
     id="a8ec7779-81bc-4fb5-bea3-5b8fa1590d68"
     data-name="Group 28"
     transform="translate(-179.73618)">
    <path
       id="a61284fa-5c43-4b2c-a220-e074c1426ed7-1588"
       data-name="Path 410"
       d="m 681.50659,197.34473 a 5.982,5.982 0 0 0 -5.468,-3.659 H 566.8776 a 5.92,5.92 0 0 0 -5.917,5.917 v 138.095 a 5.92,5.92 0 0 0 5.917,5.917 h 109.161 a 5.925,5.925 0 0 0 5.917,-5.917 v -138.093 a 5.80986,5.80986 0 0 0 -0.44901,-2.26 z m -0.865,140.352 a 4.609,4.609 0 0 1 -4.6,4.6 H 566.8776 a 4.6,4.6 0 0 1 -4.6,-4.6 v 0 -138.092 a 4.609,4.609 0 0 1 4.6,-4.6 h 109.161 a 4.62606,4.62606 0 0 1 4.273,2.9 5.11465,5.11465 0 0 1 0.173,0.519 4.55869,4.55869 0 0 1 0.158,1.188 z"
       transform="translate(-381.22442,-193.68573)"
       fill="#cccccc" />
    <path
       id="f058fc04-be1a-4760-b4ca-1d7d0096a0b4-1589"
       data-name="Path 411"
       d="m 658.7236,226.29175 h -32.88 a 2.6305,2.6305 0 0 1 0,-5.261 h 32.879 a 2.631,2.631 0 0 1 0,5.261 z"
       transform="translate(-381.22442,-193.68573)"
       fill="#cccccc" />
    <path
       id="b7b03d80-c54f-4ac7-a733-77e3791388e5-1590"
       data-name="Path 412"
       d="m 658.7236,240.10175 h -32.88 a 2.6305,2.6305 0 0 1 0,-5.261 h 32.879 a 2.631,2.631 0 0 1 0,5.261 z"
       transform="translate(-381.22442,-193.68573)"
       fill="#cccccc" />
    <path
       id="bbd645bb-3528-4838-b3c9-db478370a388-1591"
       data-name="Path 413"
       d="m 608.97759,247.96475 h -24.033 a 2.962,2.962 0 0 1 -2.959,-2.959 v -28.355 a 2.962,2.962 0 0 1 2.959,-2.959 h 24.033 a 2.963,2.963 0 0 1 2.959,2.959 v 28.355 a 2.962,2.962 0 0 1 -2.959,2.959 z"
       transform="translate(-381.22442,-193.68573)"
       fill="#cccccc" />
    <path
       id="a70c21c1-6213-4b7f-bc14-591f551ac782-1592"
       data-name="Path 414"
       d="m 658.4946,268.37775 h -74.307 a 2.6305,2.6305 0 0 1 0,-5.261 h 74.307 a 2.6305,2.6305 0 0 1 0,5.261 z"
       transform="translate(-381.22442,-193.68573)"
       fill="#cccccc" />
    <path
       id="af88612c-f069-4016-a622-4620c9d6e9ee-1593"
       data-name="Path 415"
       d="m 658.4946,282.19174 h -74.307 a 2.6305,2.6305 0 0 1 0,-5.261 h 74.307 a 2.6305,2.6305 0 1 1 0,5.261 z"
       transform="translate(-381.22442,-193.68573)"
       fill="#cccccc" />
    <path
       id="b4028583-530b-4323-a807-42e8359c25be-1594"
       data-name="Path 416"
       d="m 658.4946,295.99673 h -74.307 a 2.6305,2.6305 0 0 1 0,-5.261 h 74.307 a 2.6305,2.6305 0 0 1 0,5.261 z"
       transform="translate(-381.22442,-193.68573)"
       fill="#cccccc" />
    <path
       id="eea2a91b-a87e-450d-ac84-b33fc6ad943a-1595"
       data-name="Path 417"
       d="m 658.4946,309.80975 h -74.307 a 2.6305,2.6305 0 0 1 0,-5.261 h 74.307 a 2.6305,2.6305 0 0 1 0,5.261 z"
       transform="translate(-381.22442,-193.68573)"
       fill="#cccccc" />
    <path
       id="f69f5fd9-c3c3-49bc-9ead-71d5a754157a-1596"
       data-name="Path 418"
       d="m 658.4946,323.61575 h -74.307 a 2.6305,2.6305 0 0 1 0,-5.261 h 74.307 a 2.6305,2.6305 0 0 1 0,5.261 z"
       transform="translate(-381.22442,-193.68573)"
       fill="#cccccc" />
  </g>
  <path
     id="b052e332-5d61-4357-af09-a12de450e4ae-1597"
     data-name="Path 336"
     d="m 186.47396,85.19753 a 7.6,7.6 0 0 0 -6.95,-4.65 h -138.725 a 7.524,7.524 0 0 0 -7.52,7.52 v 175.5 a 7.524,7.524 0 0 0 7.52,7.52 h 138.73 a 7.53,7.53 0 0 0 7.52,-7.52 v -175.5 a 7.38544,7.38544 0 0 0 -0.57,-2.87 z"
     fill="#e6e6e6" />
  <path
     d="M 175.17807,261.23419 H 45.53354 c -1.86816,-0.002 -3.33105,-2.0459 -3.33105,-4.65283 V 93.78156 c 0.002,-2.60938 1.46582,-4.65284 3.33105,-4.65284 h 129.64453 c 1.86914,0.002 3.332,2.0459 3.332,4.65284 v 162.7998 c -0.002,2.60891 -1.46579,4.65283 -3.332,4.65283 z"
     fill="#ffffff"
     id="path75" />
  <path
     id="a0e2f6aa-04b8-4ab3-a7b0-0f19b8b6a28a-1598"
     data-name="Path 336"
     d="m 186.47396,85.19753 a 7.6,7.6 0 0 0 -6.95,-4.65 h -138.725 a 7.524,7.524 0 0 0 -7.52,7.52 v 175.5 a 7.524,7.524 0 0 0 7.52,7.52 h 138.73 a 7.53,7.53 0 0 0 7.52,-7.52 v -175.5 a 7.38544,7.38544 0 0 0 -0.57,-2.87 z m -1.1,178.37 a 5.857,5.857 0 0 1 -5.85,5.85 h -138.725 a 5.851,5.851 0 0 1 -5.85,-5.848 v -175.501 a 5.858,5.858 0 0 1 5.85,-5.85 h 138.73 a 5.879,5.879 0 0 1 5.43,3.68 6.48151,6.48151 0 0 1 0.22,0.66 5.80007,5.80007 0 0 1 0.2,1.51 z"
     fill="#3f3d56" />
  <path
     id="f7f5684e-e384-4873-9fc1-6b481c0c3185-1599"
     data-name="Path 337"
     d="m 157.52395,121.98254 h -41.786 a 3.343,3.343 0 0 1 0,-6.686 h 41.786 a 3.343,3.343 0 1 1 0,6.686 z"
     fill="#3f3d56"
     style="fill:#5e72e4;fill-opacity:1" />
  <path
     id="a0d63c63-f814-470b-a777-b0a1c00c2ac9-1600"
     data-name="Path 338"
     d="m 157.52395,139.53255 h -41.786 a 3.343,3.343 0 0 1 0,-6.686 h 41.786 a 3.343,3.343 0 1 1 0,6.686 z"
     fill="#3f3d56"
     style="fill:#5e72e4;fill-opacity:1" />
  <path
     id="ff5e0da0-ae1b-43c5-a91c-4cd72feaad08-1601"
     data-name="Path 339"
     d="m 94.29796,149.52554 h -30.537 a 3.765,3.765 0 0 1 -3.761,-3.761 v -36.036 a 3.765,3.765 0 0 1 3.761,-3.761 h 30.537 a 3.765,3.765 0 0 1 3.761,3.761 v 36.036 a 3.765,3.765 0 0 1 -3.761,3.761 z"
     fill="#6c63ff"
     style="fill:#3f3d56;fill-opacity:1" />
  <path
     id="ad4ed544-ba1f-4890-b966-6cbda7ed2ca0-1602"
     data-name="Path 340"
     d="m 157.23397,175.46853 h -94.436 a 3.343,3.343 0 0 1 0,-6.686 h 94.436 a 3.343,3.343 0 1 1 0,6.686 z"
     fill="#e6e6e6" />
  <path
     id="bb4cdd45-0f85-4a7a-88d0-4f1a9d7bd917-1603"
     data-name="Path 341"
     d="m 157.23397,193.01852 h -94.436 a 3.3430129,3.3430129 0 0 1 -0.0186,-6.686 h 94.45456 a 3.343,3.343 0 0 1 0,6.686 z"
     fill="#e6e6e6" />
  <path
     id="a6089264-0f27-4995-b04f-a5be86198b98-1604"
     data-name="Path 342"
     d="m 157.23397,210.56857 h -94.436 a 3.343,3.343 0 0 1 0,-6.686 h 94.436 a 3.3430129,3.3430129 0 1 1 0.0186,6.686 z"
     fill="#e6e6e6" />
  <path
     id="a4f00200-1086-48db-adf1-de08956240d5-1605"
     data-name="Path 343"
     d="m 157.23397,228.11855 h -94.436 a 3.3430129,3.3430129 0 1 1 -0.0186,-6.686 h 94.45456 a 3.343,3.343 0 0 1 0,6.686 z"
     fill="#e6e6e6" />
  <path
     id="b49f179d-0424-4766-955e-eb78e4d9d5b3-1606"
     data-name="Path 344"
     d="m 157.23397,245.66854 h -94.436 a 3.3430129,3.3430129 0 1 1 -0.0186,-6.686 h 94.45456 a 3.343,3.343 0 0 1 0,6.686 z"
     fill="#e6e6e6" />
  <circle
     id="ba183dc1-a597-4106-bea7-eb7523e98551"
     data-name="Ellipse 44"
     cx="203.81497"
     cy="67.62854"
     r="54"
     fill="#6c63ff"
     style="fill:#5e72e4;fill-opacity:1" />
  <path
     id="a4d5b786-8a25-41ee-bd38-08ceac89f4c5-1607"
     data-name="Path 692"
     d="m 212.31997,69.41953 v -29.791 h -15.342 v 29.791 h -7.163 l 7.416,12.845 7.418,12.847 7.418,-12.847 7.417,-12.847 z"
     fill="#ffffff" />
</svg>
