<svg width="500" height="500" version="1.1" viewBox="0 0 132.29 132.29" xml:space="preserve" xmlns="http://www.w3.org/2000/svg"><g transform="matrix(.26458 0 0 .26458 -21.769 -72.33)" fill="#5e72e4" stroke="currentColor" stroke-linejoin="round" stroke-width="32"><rect x="250.83" y="458.29" width="160" height="64" rx="26.13" ry="26.13"/><path d="m402.82 328.59h32a48 48 0 0 1 48 48v320a48 48 0 0 1-48 48h-224a48 48 0 0 1-48-48v-320a48 48 0 0 1 48-48h32"/><rect x="242.82" y="296.59" width="160" height="64" rx="26.13" ry="26.13"/></g><rect x="30.761" y="21.214" width="67.179" height="95.464" rx="4.1217" fill="#e6e6e6" opacity=".94947" stroke-width=".2473"/><g transform="matrix(.26458 0 0 .26458 100.92 -88.594)"><rect x="-220.89" y="359.4" width="160" height="64" rx="26.13" ry="26.13" fill="none" stroke="currentColor" stroke-linejoin="round" stroke-width="32"/><g><ellipse cx="-142.9" cy="529.28" rx="70.157" ry="64.812" fill="#fff" opacity=".94947" stroke-width=".97058"/><rect x="-233.1" y="610.13" width="192.43" height="18.709" rx="19.267" fill="#5e72e4" opacity=".94947" stroke-width="1.0472"/><rect x="-195.68" y="639.53" width="114.92" height="17.372" rx="11.781" fill="#5e72e4" opacity=".94947" stroke-width=".76513"/><g transform="translate(-654.02 119.72)" fill="#2dce89"><g transform="matrix(2.2807 0 0 1.7238 474.4 445)"><path d="m0 0h24v24h-24z" fill="none"/><path d="m-14.144 93.771v9.5674h-12.609a11.208 9.6421 0 0 1 12.609-9.5674zm-1.401-1.28c-4.6445 0-8.4063-3.2361-8.4063-7.2316 0-3.9955 3.7618-7.2316 8.4063-7.2316s8.4063 3.2361 8.4063 7.2316c0 3.9955-3.7618 7.2316-8.4063 7.2316zm8.1162 8.3332 4.9527-4.2606 1.9825 1.7042-6.9352 5.9661-4.9541-4.2618 1.9825-1.7042 2.9702 2.5564z" stroke-width="1.2995"/><g transform="matrix(2.0254 0 0 2.0013 135.07 -34.015)"><path d="m0 0h24v24h-24z" fill="none"/><path d="m-41.302 64.639v5.0195h-6.2477a4.9982 5.1828 0 0 1 6.2477-5.0195zm-1.2495-0.8111c-2.0711 0-3.7486-1.7395-3.7486-3.8871s1.6775-3.8871 3.7486-3.8871c2.0711 0 3.7486 1.7395 3.7486 3.8871s-1.6775 3.8871-3.7486 3.8871zm4.3734 2.3232 1.3251-1.3747 0.88406 0.9167-1.3258 1.3741 1.3258 1.3741-0.88406 0.9167-1.3251-1.3747-1.3251 1.3747-0.88406-0.9167 1.3258-1.3741-1.3258-1.3741 0.88406-0.9167z" fill="#f5365c" stroke-width=".63621"/></g><g transform="matrix(1.4052 0 0 1.6536 -4.2568 -59.734)"><path d="m0 0h24v24h-24z" fill="none"/><g transform="matrix(1.2457 0 0 .82044 129.73 68.952)"><path d="m0 0h24v24h-24z" fill="none"/><path d="m-104.64-38.203a12.26 13.233 0 1 1 24.521 0zm12.26-14.888c-5.0804 0-9.1953-4.4415-9.1953-9.925 0-5.4836 4.1149-9.925 9.1953-9.925 5.0804 0 9.1953 4.4415 9.1953 9.925 0 5.4836-4.1149 9.925-9.1953 9.925z" fill="#5e72e4" stroke-width="1.5922"/></g></g></g></g></g></g></svg>
