<svg width="500" height="500" version="1.1" viewBox="0 0 132.29 132.29" xml:space="preserve" xmlns="http://www.w3.org/2000/svg"><g transform="matrix(.26458 0 0 .26458 -21.769 -72.33)" fill="#5e72e4" stroke="currentColor" stroke-linejoin="round" stroke-width="32"><rect x="250.83" y="458.29" width="160" height="64" rx="26.13" ry="26.13"/><path d="m402.82 328.59h32a48 48 0 0 1 48 48v320a48 48 0 0 1-48 48h-224a48 48 0 0 1-48-48v-320a48 48 0 0 1 48-48h32"/><rect x="242.82" y="296.59" width="160" height="64" rx="26.13" ry="26.13"/></g><rect x="30.761" y="21.214" width="67.179" height="95.464" rx="4.1217" fill="#e6e6e6" opacity=".94947" stroke-width=".2473"/><g transform="matrix(.26458 0 0 .26458 100.92 -88.594)"><rect x="-220.89" y="359.4" width="160" height="64" rx="26.13" ry="26.13" fill="none" stroke="currentColor" stroke-linejoin="round" stroke-width="32"/><g><ellipse cx="-142.9" cy="529.28" rx="70.157" ry="64.812" fill="#fff" opacity=".94947" stroke-width=".97058"/><rect x="-233.1" y="610.13" width="192.43" height="18.709" rx="19.267" fill="#5e72e4" opacity=".94947" stroke-width="1.0472"/><rect x="-195.68" y="639.53" width="114.92" height="17.372" rx="11.781" fill="#5e72e4" opacity=".94947" stroke-width=".76513"/><g transform="translate(-654.02 119.72)" fill="#2dce89"><g transform="matrix(2.2807 0 0 1.7238 474.4 445)"><path d="m0 0h24v24h-24z" fill="none"/><path d="m-15.786 98.158v10.568h-10.222a9.0862 10.651 0 0 1 10.222-10.568zm-1.1358-1.4139c-3.7651 0-6.8147-3.5746-6.8147-7.9879 0-4.4133 3.0496-7.9879 6.8147-7.9879 3.7651 0 6.8147 3.5746 6.8147 7.9879 0 4.4133-3.0496 7.9879-6.8147 7.9879zm6.5795 9.2048 4.015-4.7062 1.6071 1.8825-5.6221 6.59-4.0161-4.7076 1.6071-1.8825 2.4078 2.8237z" stroke-width="1.2297"/><g transform="matrix(2.0254 0 0 2.0013 135.07 -34.015)"><path d="m0 0h24v24h-24z" fill="none"/><path d="m-39.62 66.455v5.1206h-5.4752a4.3802 5.2871 0 0 1 5.4752-5.1206zm-1.095-0.82743c-1.815 0-3.2851-1.7745-3.2851-3.9653 0-2.1908 1.4701-3.9653 3.2851-3.9653 1.815 0 3.2851 1.7745 3.2851 3.9653 0 2.1908-1.4701 3.9653-3.2851 3.9653zm3.8327 2.3699 1.1613-1.4024 0.77474 0.93516-1.1618 1.4017 1.1618 1.4017-0.77474 0.93516-1.1613-1.4024-1.1613 1.4024-0.77474-0.93516 1.1618-1.4017-1.1618-1.4017 0.77474-0.93516z" fill="#f5365c" stroke-width=".60154"/></g><g transform="matrix(1.4052 0 0 1.6536 -4.2568 -59.734)"><path d="m0 0h24v24h-24z" fill="none"/><g transform="matrix(1.2457 0 0 .82044 129.73 68.952)"><path d="m0 0h24v24h-24z" fill="none"/><path d="m-104.17-36.587a11.669 15.234 0 1 1 23.337 0zm11.669-17.139c-4.8352 0-8.7515-5.113-8.7515-11.426 0-6.3128 3.9163-11.426 8.7515-11.426s8.7515 5.113 8.7515 11.426c0 6.3128-3.9163 11.426-8.7515 11.426z" fill="#5e72e4" stroke-width="1.6666"/></g></g></g></g></g></g></svg>
