<svg width="832.85" height="618.59" data-name="Layer 1" version="1.1" viewBox="0 0 832.85 618.59" xml:space="preserve" xmlns="http://www.w3.org/2000/svg"><path d="m491.32 355.75c-0.1133 0-0.1846-3e-3 -0.2095-4e-3l-13.564 1e-3v-2h13.614c0.3152 0.0112 6.7458 0.19287 12.671-6.9966 8.8295-10.715 16.08-37.24 0.4814-102.76-20.975-88.096-3.481-165.92 5.0139-195.3a9.7524 9.7524 0 0 0-9.383-12.452h-202.58a9.7962 9.7962 0 0 0-7.8997 4.021c-3.5986 4.9502-8.5371 14.46-11.627 31.655l-1.9683-0.35351c3.1572-17.569 8.2564-27.358 11.978-32.478a11.801 11.801 0 0 1 9.5174-4.8452h202.58a11.753 11.753 0 0 1 11.304 15.007c-8.4511 29.22-25.855 106.64-4.9894 194.28 15.818 66.438 8.2138 93.537-0.9507 104.57-6.045 7.2778-12.705 7.6465-13.987 7.6465z" fill="#e6e6e6"/><path d="m454.82 392.25c-0.1133 0-0.1846-3e-3 -0.2095-4e-3l-13.564 1e-3v-2h13.614c0.3169 0.01 6.7458 0.19287 12.671-6.9966 8.8295-10.715 16.08-37.24 0.4814-102.76-20.975-88.096-3.481-165.92 5.0139-195.3a9.7524 9.7524 0 0 0-9.383-12.452h-202.58a9.7962 9.7962 0 0 0-7.8997 4.021c-3.5986 4.9502-8.5371 14.46-11.627 31.655l-1.9685-0.35351c3.1573-17.569 8.2565-27.358 11.978-32.478a11.801 11.801 0 0 1 9.5174-4.8452h202.58a11.753 11.753 0 0 1 11.304 15.007c-8.4511 29.22-25.855 106.64-4.9894 194.28 15.818 66.438 8.2138 93.537-0.9507 104.57-6.045 7.2778-12.705 7.6465-13.987 7.6465z" fill="#ccc"/><path d="m418.32 428.75c-0.1133 0-0.1846-3e-3 -0.2095-4e-3l-199.45 1e-3a11.75 11.75 0 0 1-10.928-16.102c7.2368-18.081 16.981-61.459 0.9315-148.84-18.951-103.18-1.9849-140.47 6.1893-151.71a11.801 11.801 0 0 1 9.5176-4.8452h202.58a11.753 11.753 0 0 1 11.304 15.007c-8.4512 29.22-25.855 106.64-4.9895 194.28 15.818 66.438 8.2141 93.537-0.9507 104.57-6.045 7.2778-12.705 7.6465-13.987 7.6465zm-193.95-319.5a9.7964 9.7964 0 0 0-7.8999 4.021c-8.0226 11.035-24.652 47.757-5.84 150.18 15.332 83.474 7.896 127.61-1.0419 149.94a9.5872 9.5872 0 0 0 0.9771 9.0644 9.7629 9.7629 0 0 0 8.0946 4.2944h199.5c0.3149 0.0151 6.7458 0.19335 12.671-6.9966 8.8295-10.715 16.08-37.24 0.4814-102.76-20.975-88.096-3.481-165.92 5.0139-195.3a9.7524 9.7524 0 0 0-9.383-12.452z" fill="#3f3d56"/><path d="m392.48 197.24h-159a8 8 0 1 1 0-16h159a8 8 0 0 1 0 16z" fill="#5e72e4"/><g fill="#e9ecef"><path d="m392.48 231.24h-159a8 8 0 1 1 0-16h159a8 8 0 0 1 0 16z"/><path d="m392.48 265.24h-159a8 8 0 1 1 0-16h159a8 8 0 0 1 0 16z"/><path d="m404.48 299.24h-159a8 8 0 1 1 0-16h159a8 8 0 0 1 0 16z"/><path d="m404.48 333.24h-159a8 8 0 1 1 0-16h159a8 8 0 0 1 0 16z"/></g><path d="m308.48 163.24h-75a8 8 0 1 1 0-16h75a8 8 0 0 1 0 16z" fill="#5e72e4"/><path d="m298.8 388.07c1.6141-6.835 9.198-9.0754 15.398-8.8248a65.728 65.728 0 0 1 11.611 1.8373c3.9841 0.89132 7.9295 1.9468 11.855 3.0662 7.1984 2.0527 14.323 4.5356 21.64 6.1406 6.0915 1.3362 12.711 2.1199 18.786 0.27517 5.8394-1.7732 10.793-6.1263 12.382-12.145 1.4972-5.6716-0.5584-11.873-6.0542-14.465-5.0117-2.3635-11.342-1.1616-13.826 4.1836-2.8007 6.0266 0 12.599 4.4325 16.96a49.668 49.668 0 0 0 8.2378 6.257 30.676 30.676 0 0 0 9.8637 4.4179c5.785 1.2356 12.676-0.58511 15.66-6.112a10.329 10.329 0 0 0 1.1718-4.0369c0.1766-1.9218-2.8245-1.9098-3 0-0.5058 5.5034-6.9507 8.0808-11.77 7.4771a23.924 23.924 0 0 1-9.1254-3.5417 53.472 53.472 0 0 1-7.5582-5.3329c-4.0878-3.5376-7.9197-9.359-5.1742-14.879 2.2355-4.495 8.0632-4.4502 11.608-1.5513 4.2925 3.5107 3.5271 9.8827 0.6959 14.052-3.1348 4.6163-8.8167 6.5514-14.174 6.7601-5.821 0.22678-11.593-1.109-17.157-2.6888-6.9126-1.963-13.756-4.1599-20.702-6.0079-3.9433-1.0492-7.9169-1.996-11.931-2.7328a39.377 39.377 0 0 0-11.57-0.80089c-6.2599 0.72286-12.65 4.3668-14.191 10.894-0.4434 1.8774 2.4486 2.6787 2.8928 0.79752z" fill="#3f3d56"/><g fill="#e9ecef"><path d="m605.3 557.68a458.03 458.03 0 0 0 4.318 58.855c0.095 0.685 0.1976 1.3699 0.2925 2.0549l184.4-1.0304c0.5414-0.68028 1.0743-1.3687 1.5907-2.0654 1.7216-2.3056 3.3351-4.6768 4.8164-7.1297 7.1195-11.817 10.379-25.653 7.1126-35.199l-0.059-0.14833a16.75 16.75 0 0 0-3.2692-5.6805c-7.4469-8.3826-22.504-6.9853-36.168-0.21914 12.256-13.415 22.014-30.343 22.756-45.453 0.727-14.738-6.9795-25.267-15.338-34.214-0.2743-0.29578-0.5485-0.58335-0.8227-0.87086-0.1331-0.14791-0.2743-0.28757-0.407-0.43548-6.5215-6.8186-14.124-13.54-25.129-12.727-12.07 0.89334-25.451 11.003-34.833 22.783-9.3825 11.772-15.618 25.145-21.937 38.197-6.3279 13.043-13.174 26.42-23.328 37.569 13.753-17.396 24.842-37.189 28.938-56.439 4.0962-19.25 0.4913-37.738-11.766-46.804a28.669 28.669 0 0 0-12.558-5.067c-0.5288-0.0879-1.066-0.15923-1.6116-0.22227-11.347-1.291-24.895 2.6334-36.422 12.014-12.694 10.329-21.495 25.641-25.874 40.176-4.3786 14.536-4.8453 28.529-4.7039 42.057z"/><path d="m725.94 617.95 3.5262-0.0197q1.6794-1.05 3.3747-2.0754c0.6996-0.44162 1.4074-0.86679 2.1155-1.3002q17.544-10.715 35.308-20.556 17.748-9.849 35.674-18.79a1.4778 1.4778 0 0 0 0.8495-1.6896 0.42594 0.42594 0 0 0-0.059-0.12352c-0.1667-0.31292-0.5392-0.443-1.083-0.17568-1.4658 0.735-2.9401 1.47-4.4059 2.2216q-17.975 9.0945-35.796 19.097-17.808 9.998-35.414 20.879c-0.2468 0.15-0.4939 0.30834-0.7407 0.45838-1.1193 0.69177-2.2304 1.3835-3.3497 2.0752z"/><path d="m680.48 618.2 2.1804-0.0122c0.4918-0.68822 0.9751-1.3764 1.4669-2.0647q17.332-24.304 34.656-48.608 28.371-39.79 56.724-79.579a1.4044 1.4044 0 0 0 0.2454-0.48041c0.1616-0.58731-0.2698-0.93177-0.8227-0.87086a1.6564 1.6564 0 0 0-1.1521 0.73324q-15.906 22.314-31.804 44.611-28.223 39.591-56.438 79.173c-1.1964 1.675-2.3928 3.3583-3.5892 5.0333-0.4918 0.68826-0.9836 1.3765-1.4669 2.0647z"/><path d="m631.9 605.54c0.1113 3.6747 0.3545 7.2908 0.6721 10.873q0.092 1.0278 0.1849 2.0555l2.2877-0.0128c-0.07-0.68508-0.1399-1.3702-0.2014-2.0554-0.4834-5.1758-0.8264-10.41-0.873-15.786a220.23 220.23 0 0 1 4.3356-44.392 276.4 276.4 0 0 1 13.428-46.119 316.72 316.72 0 0 1 21.97-45.63 1.2187 1.2187 0 0 0 0.2019-0.8105c-0.094-0.652-0.9625-0.84532-1.6115-0.22227a1.8938 1.8938 0 0 0-0.328 0.41479q-1.583 2.7219-3.1081 5.4601a316.5 316.5 0 0 0-21.028 45.79 275.09 275.09 0 0 0-12.518 46.189 217.27 217.27 0 0 0-3.4117 44.246z"/></g><path d="m409.03 388.78a2.4999 2.4999 0 0 1 1.3621-4.4096 41.289 41.289 0 0 1 16.193 1.6597l53.315 16.466a5.5 5.5 0 0 1-3.246 10.51l-53.315-16.466a41.292 41.292 0 0 1-14.309-7.7602z" fill="#3f3d56"/><path d="m627.57 457.18a10.743 10.743 0 0 1-4.868-15.737l-9.1385-47.792 23.291-1.8158 1.4059 46.747a10.801 10.801 0 0 1-10.691 18.597z" fill="#ffb8b8"/><path d="m612.13 432.51-23.723-110.48a17.5 17.5 0 1 1 34.22-7.3467l23.723 110.48a4.5056 4.5056 0 0 1-3.4548 5.3447l-25.421 5.458a4.4984 4.4984 0 0 1-5.3444-3.4551z" fill="#5e72e4"/><polygon transform="translate(200.02 34.245)" points="373.17 572.06 360.91 572.06 355.08 524.78 373.17 524.78" fill="#ffb8b8"/><path d="m552.18 602.81h23.644v14.887h-38.531a14.887 14.887 0 0 1 14.887-14.887z" fill="#2f2e41"/><polygon transform="translate(200.02 34.245)" points="414.17 571.06 401.91 571.06 396.08 523.78 414.17 523.78" fill="#ffb8b8"/><path d="m593.18 601.81h23.644v14.887h-38.531a14.887 14.887 0 0 1 14.887-14.887z" fill="#2f2e41"/><path d="m558.5 597.49a4.4692 4.4692 0 0 1-1.6162-3.0625l-14.253-156.78a4.5008 4.5008 0 0 1 4.313-4.9043l71.48-2.6807a4.5015 4.5015 0 0 1 4.6658 4.6621l-5.7139 156.18a4.5084 4.5084 0 0 1-4.0896 4.3164l-14.413 1.3106a4.4995 4.4995 0 0 1-4.8973-4.1826l-6.6144-99.217a1.4359 1.4359 0 0 0-1.4959-1.3994h-0.01a1.4366 1.4366 0 0 0-1.4924 1.4111l-5.9192 99.886a4.4791 4.4791 0 0 1-4.0442 4.2109l-12.591 1.2598a4.4699 4.4699 0 0 1-3.313-1.0078z" fill="#2f2e41"/><circle cx="586" cy="253.21" r="24.561" fill="#ffb8b8"/><path d="m538.7 438.71a4.4618 4.4618 0 0 1-1.0527-3.6787c4.5344-27.562 1.9787-68.074-0.9639-97.207a44.201 44.201 0 0 1 18.241-40.302l12.827-10.994a4.5697 4.5697 0 0 1 3.0574-1.082l31.866 0.91016a4.4832 4.4832 0 0 1 3.0535 1.3174l4.924 10.904 0.051 0.0371a44.07 44.07 0 0 1 17.915 37.69l-4.6904 96.937a4.5242 4.5242 0 0 1-4.3469 4.2803l-77.347 2.7178c-0.05 1e-3 -0.1 2e-3 -0.1495 2e-3a4.4893 4.4893 0 0 1-3.384-1.5323z" fill="#5e72e4"/><path d="m445.92 398.26a10.743 10.743 0 0 1 12.366-10.882l39.865-27.898 11.19 20.508-42.077 20.416a10.801 10.801 0 0 1-21.344-2.1427z" fill="#ffb8b8"/><path d="m479.47 403.11a4.4733 4.4733 0 0 1-2.9453-1.7852l-15.384-20.96a4.5064 4.5064 0 0 1 0.9648-6.291l91.095-66.863a17.5 17.5 0 0 1 20.71 28.216l-91.095 66.863a4.4689 4.4689 0 0 1-2.6529 0.87305 4.6023 4.6023 0 0 1-0.6921-0.0527z" fill="#5e72e4"/><path d="m587.26 275.07c3.2572-3.9936 2.9006-10.077 0.2864-14.518s-7.0519-7.4999-11.618-9.889c-4.5663-2.3891-9.4171-4.2678-13.714-7.1125-4.2972-2.8447-4.1098-14.887-5.254-19.912l2.729 0.909c-1.0489-1.3418-1.3853-5.3068-2.4342-6.6486 3.0837 0.30468 5.4549 3.2325 8.5385 3.5371l-1.7794-4.7764c10.574-0.65193 17.149 6.6961 27.723 6.0442 5.2392-0.323 10.929-0.52738 15.236 2.4731 3.7428 2.6074 5.6375 7.1203 6.8806 11.509 2.6692 9.4232 3.084 19.979-1.5262 28.62s-15.237 14.464-24.52 11.344z" fill="#2f2e41"/><g transform="translate(-741.68 42.005)"><g fill="#ffb7b7"><path d="m811.72 282.46-3.2671-20.101-9.2246-2.3193s-7.3214-2.2679-9.0326 12.563c-1.7112 14.831-0.3846 42.521-0.3846 42.521l-20.253 64.5a8.9582 9.0091 0 1 0 12.369 5.3653l26.334-60.588z" stroke-width=".76596"/><path d="m867.81 266.64-4.8429-19.776 7.5783-5.7756s5.848-4.9767 13.212 7.9873 16.955 38.954 16.955 38.954l43.809 51.323a8.9582 9.0091 0 1 1-9.2808 9.8185l-47.874-45.324z" stroke-width=".76596"/><polygon transform="matrix(.76379 0 0 .76813 701.21 158.61)" points="267.69 470.62 267.69 526.09 282.07 526.09 288.92 470.61"/></g><path d="m902.87 559.11 21.635-7.8e-4h7.7e-4a13.788 13.867 0 0 1 13.788 13.866v0.45059l-35.423 1e-3z" fill="#2f2e41" stroke-width=".76596"/><polygon transform="matrix(.76379 0 0 .76813 701.21 158.61)" points="87.013 470.62 87.016 526.09 101.4 526.09 108.24 470.61" fill="#ffb7b7"/><g fill="#2f2e41" stroke-width=".76596"><path d="m764.87 559.11 21.635-7.8e-4h7.6e-4a13.788 13.867 0 0 1 13.788 13.866v0.45059l-35.423 1e-3z"/><ellipse cx="835.05" cy="198.88" rx="29.713" ry="29.882"/><ellipse transform="matrix(.7051 -.70911 .7051 .70911 0 0)" cx="446.83" cy="695.33" rx="12.33" ry="9.2474"/><ellipse transform="matrix(.39095 -.92041 .91881 .39471 0 0)" cx="182.62" cy="852.54" rx="9.2655" ry="12.306"/></g><g stroke-width=".76596"><ellipse transform="matrix(.47757 -.87859 .87631 .48175 0 0)" cx="222.21" cy="832.9" rx="25.327" ry="25.25" fill="#ffb7b7"/><path d="m809.5 190.07a34.297 34.492 0 0 0 19.6 6.0918 21.017 21.137 0 0 1-8.3303 3.4466 69.158 69.551 0 0 0 28.249 0.15963 18.283 18.387 0 0 0 5.9136-2.0426 7.4839 7.5264 0 0 0 3.6502-4.9094c0.61977-3.5607-2.1391-6.7957-5.0062-8.9759a36.928 37.138 0 0 0-31.032-6.2362c-3.4664 0.90112-6.939 2.4236-9.1906 5.2233-2.2515 2.7996-2.9185 7.1157-0.77333 9.9986z" fill="#2f2e41"/><path d="m823.36 239-24.959 20.499 21.808 52.293 0.41599 8.367s-22.639 20.991-36.646 79.631c-14.007 58.639-42.298 136.56-42.298 136.56l56.597 13.924 39.351-132.65 50.163 104.07 7.1361 30.78 43.75-12.214-16.885-82.602-41.413-128.22 3.4007-35.422s7.5782-17.68-5.5869-36.399l-4.1294-17.589-21.376-3.6643z" fill="#2f2e41"/></g><path d="m938.5 154.73a39.908 36.45 0 0 1-9.9103-1.0402l-0.6393-0.15265-0.59493-0.26264c-21.509-9.5024-39.728-22.186-54.15-37.699a159.16 145.36 0 0 1-27.722-43.501 184.82 168.8 0 0 1-11.376-59.322c3e-3 -0.42478 4e-3 -0.75278 2e-3 -0.97868-0.15323-9.8345 5.6892-18.541 14.884-22.182 7.0373-2.7861 70.938-27.735 75.555-29.537 8.6839-4.1163 18.067-0.89672 19.569-0.33194 3.3687 1.2072 63.135 22.632 76.062 28.05 13.323 5.5836 17.015 15.878 17.096 21.08 0.3668 23.552-3.7561 45.62-12.254 65.594a165.87 151.5 0 0 1-29.122 44.26c-23.941 25.325-48.141 34.507-48.375 34.588a26.596 24.292 0 0 1-9.024 1.4365zm-5.9251-12.874c2.1168 0.40465 6.9847 0.9896 10.135-0.10644 4.0015-1.3921 24.221-11.305 42.952-31.117 25.879-27.374 38.694-61.529 38.091-101.52-0.06-0.80952-0.7796-6.5794-9.2141-10.114-12.677-5.3129-74.798-27.576-75.424-27.801l-0.17167-0.06382c-1.302-0.47857-5.4375-1.4685-8.2557-0.07259l-0.56476 0.24947c-0.6844 0.26717-68.516 26.749-75.75 29.613-5.0602 2.0033-6.7991 6.826-6.7392 10.671 4e-3 0.28101 4e-3 0.68988-2.7e-4 1.2183-0.15527 27.369 7.8258 94.605 84.943 129.04z" fill="#3f3d56" stroke-width=".73831"/><path d="m929.13-28.246s-66.409 24.136-73.524 26.759c-7.1152 2.6234-10.673 8.9197-10.673 15.216 0 6.2963-5.3365 88.454 84.197 128.18 0 0 8.126 1.9896 14.291 0 6.1651-1.9896 84.433-35.57 84.433-128.44 0 0 0-9.4444-12.452-14.691-12.452-5.2469-72.653-27.021-72.653-27.021s-7.393-2.8858-13.619 0z" fill="#5e72e4" stroke-width=".70088"/><path d="m937.12-16.59v154.94s84.054-37.126 83.568-127.42z" opacity=".2" stroke-width=".69556"/><path d="m1573.5 574.39h-824c-1.3333 0-1.3333-2 0-2h824c1.3333 0 1.3333 2 0 2z" fill="#3f3d56"/></g><g transform="translate(1117.2 12.03)"><path d="m-531.85 52.133v-13.067a18.921 18.921 0 1 0-37.842 0v13.067a9.8381 9.8381 0 0 0-9.3956 9.8232v30.879h56.634v-30.879a9.8381 9.8381 0 0 0-9.3956-9.8232zm-18.921-25.326a12.273 12.273 0 0 1 12.258 12.259v13.044h-24.517v-13.044a12.273 12.273 0 0 1 12.258-12.259z" fill="#e9ecef"/><path d="m-898.21 80.684v-15.068a22.64 21.818 0 1 0-45.28 0v15.068a11.772 11.344 0 0 0-11.242 11.327v35.607h67.764v-35.607a11.772 11.344 0 0 0-11.242-11.327zm-22.64-29.204a14.685 14.152 0 0 1 14.668 14.136v15.041h-29.335v-15.041a14.685 14.152 0 0 1 14.668-14.136z" fill="#fff" stroke-width="1.1746"/></g><g transform="translate(709.08 691.66)"><g stroke-width=".39654"><path d="m-14.691-444.08a30.374 29.267 0 0 1-7.5297-0.93853l-0.48474-0.12923-0.44965-0.21708c-16.256-7.8537-29.971-18.227-40.763-30.833a121.13 116.72 0 0 1-20.582-35.215 140.66 135.54 0 0 1-7.9544-47.747c0.0066-0.34102 0.01263-0.60433 0.01263-0.78574 0-7.8975 4.5495-14.827 11.59-17.654 5.3887-2.1635 54.315-21.528 57.85-22.927 6.6575-3.2143 13.76-0.53145 14.896-0.0623 2.5494 1.0044 47.779 18.83 57.553 23.315 10.073 4.622 12.761 12.925 12.761 17.103 0 18.913-3.3994 36.589-10.104 52.536a126.25 121.65 0 0 1-22.688 35.231c-18.52 20.083-37.046 27.202-37.225 27.265a20.243 19.505 0 0 1-6.8846 1.0592zm-4.3566-10.398c1.6061 0.34698 5.3039 0.86743 7.714 0.0203 3.0618-1.0759 18.567-8.8235 33.057-24.535 20.019-21.708 30.177-48.997 30.192-81.109-0.03573-0.65057-0.51522-5.2906-6.8923-8.2165-9.5846-4.3979-56.597-22.921-57.071-23.108l-0.1299-0.0531c-0.98522-0.39781-4.1207-1.2358-6.282-0.14441l-0.43274 0.1944c-0.52402 0.20739-52.46 20.762-57.999 22.985-3.8747 1.5556-5.2553 5.4095-5.2553 8.4975 0 0.22566-0.0066 0.5539-0.01462 0.97816-0.44268 21.972 4.834 76.038 63.114 104.49z" fill="#ccc"/><path d="m-20.148-596.71s-12.031 4.7614-25.182 9.9694c-14.297 5.6618-29.916 11.851-32.841 13.026-5.6152 2.2544-8.4228 7.665-8.4228 13.076 0 2.4684-0.87651 18.505 4.8792 38.457 4.8684 16.876 14.482 36.554 33.384 53.192 7.735 6.8084 17.025 13.108 28.183 18.498 0 0 6.4129 1.7097 11.278 0 2.6714-0.93876 22.497-10.062 39.834-31.309 14.238-17.45 26.798-43.077 26.798-79.064 0 0 0-8.1159-9.8265-12.625-9.8265-4.5088-57.336-23.221-57.336-23.221s-5.8344-2.4799-10.748 0z" fill="#e9ecef"/><path d="m-15.233-579.79v110.64s-52.876-24.525-52.408-89.002z" opacity=".1"/></g><polygon transform="matrix(.40397 0 0 .38925 -95.263 -606.26)" points="284.22 165.22 192.93 261.58 151.24 207.97 175.48 189.11 195.23 214.49 261.92 144.09" fill="#fff"/></g></svg>
