<?xml version="1.0" encoding="UTF-8" standalone="no"?>
<svg
   data-name="Layer 1"
   width="682"
   height="548.69531"
   viewBox="0 0 682 548.69532"
   version="1.1"
   id="svg224"
   sodipodi:docname="reports.svg"
   inkscape:version="1.2.1 (9c6d41e410, 2022-07-14)"
   xmlns:inkscape="http://www.inkscape.org/namespaces/inkscape"
   xmlns:sodipodi="http://sodipodi.sourceforge.net/DTD/sodipodi-0.dtd"
   xmlns="http://www.w3.org/2000/svg"
   xmlns:svg="http://www.w3.org/2000/svg">
  <defs
     id="defs228" />
  <sodipodi:namedview
     id="namedview226"
     pagecolor="#505050"
     bordercolor="#eeeeee"
     borderopacity="1"
     inkscape:showpageshadow="0"
     inkscape:pageopacity="0"
     inkscape:pagecheckerboard="0"
     inkscape:deskcolor="#505050"
     showgrid="false"
     inkscape:zoom="0.66514736"
     inkscape:cx="11.275697"
     inkscape:cy="463.807"
     inkscape:window-width="1920"
     inkscape:window-height="1001"
     inkscape:window-x="-9"
     inkscape:window-y="-9"
     inkscape:window-maximized="1"
     inkscape:current-layer="svg224" />
  <path
     d="m 431.47976,541.97452 -14.5923,-6.1443 -10.01026,-73.15137 H 273.57262 l -10.8504,72.85253 -13.05511,6.52747 a 3.10016,3.10016 0 0 0 1.38657,5.873 h 179.22343 a 3.1,3.1 0 0 0 1.20265,-5.95733 z"
     fill="#e6e6e6"
     id="path146" />
  <path
     d="M 668.37119,472.41133 H 13.54199 A 12.97344,12.97344 0 0 1 0.59769,459.43801 v -92.33949 h 680.7178 v 92.33952 a 12.97357,12.97357 0 0 1 -12.9443,12.97329 z"
     fill="#cccccc"
     id="path148" />
  <path
     d="M 682,410.74036 H 0 V 15.63909 A 15.65719,15.65719 0 0 1 15.63962,0 H 666.36017 A 15.65736,15.65736 0 0 1 682,15.63909 Z"
     fill="#3f3d56"
     id="path150" />
  <path
     d="M 641.26684,382.06387 H 40.73316 A 12.07024,12.07024 0 0 1 28.67616,370.0072 V 40.7332 a 12.07088,12.07088 0 0 1 12.057,-12.05741 h 600.53368 a 12.07088,12.07088 0 0 1 12.057,12.05741 v 329.274 a 12.07024,12.07024 0 0 1 -12.057,12.05667 z"
     fill="#ffffff"
     id="path152" />
  <path
     d="M 509.42,548.69494 H 171.97178 a 1.56681,1.56681 0 0 1 -1.53908,-1.13363 1.52911,1.52911 0 0 1 1.47725,-1.91893 h 337.385 a 1.61535,1.61535 0 0 1 1.61617,1.19368 1.52819,1.52819 0 0 1 -1.49112,1.85888 z"
     fill="#cccccc"
     id="path154" />
  <rect
     x="489.85974"
     y="81.909431"
     width="144.99594"
     height="110.7733"
     fill="#f2f2f2"
     id="rect156" />
  <rect
     x="497.06451"
     y="87.413689"
     width="130.58641"
     height="99.764771"
     fill="#ffffff"
     id="rect158" />
  <path
     d="m 564.651,161.41429 q 0.0259,2.9e-4 0.0519,-0.001 a 34.81675,34.81675 0 0 0 0.779,-69.488915 0.79424,0.79424 0 0 0 -0.60112,0.20836 0.78592,0.78592 0 0 0 -0.25678,0.57553 l -0.7612,67.902005 a 0.79707,0.79707 0 0 0 0.78826,0.80412 z"
     fill="#3f3d56"
     id="path160" />
  <path
     d="m 537.34562,103.15243 a 1.02524,1.02524 0 0 1 0.71962,0.30735 l 23.37584,23.90588 a 1.01418,1.01418 0 0 1 0.29094,0.72511 l -0.36424,32.49144 a 1.01059,1.01059 0 0 1 -0.33018,0.73984 1.026,1.026 0 0 1 -0.77126,0.26782 35.04446,35.04446 0 0 1 -23.69951,-58.09062 1.02636,1.02636 0 0 1 0.74091,-0.34657 q 0.0189,-4.5e-4 0.0379,-2.4e-4 z"
     fill="#e6e6e6"
     id="path162" />
  <path
     d="m 561.11555,91.646725 a 1.02931,1.02931 0 0 1 0.69948,0.28585 1.01135,1.01135 0 0 1 0.31394,0.74786 l -0.32864,29.315775 a 1.02077,1.02077 0 0 1 -1.75041,0.70223 l -20.3983,-20.86084 a 1.02291,1.02291 0 0 1 0.0549,-1.48163 35.11806,35.11806 0 0 1 21.34564,-8.707995 c 0.021,-0.001 0.0423,-0.001 0.0634,-0.001 z"
     fill="#5e72e4"
     id="path164" />
  <path
     d="m 550.60715,175.49492 a 6.25343,6.25343 0 1 1 -6.18294,-6.32313 6.26054,6.26054 0 0 1 6.18294,6.32313 z"
     fill="#5e72e4"
     id="path166" />
  <path
     d="m 568.47297,175.69519 a 6.25343,6.25343 0 1 1 -6.18294,-6.32312 6.26056,6.26056 0 0 1 6.18294,6.32312 z"
     fill="#3f3d56"
     id="path168" />
  <path
     d="m 586.33878,175.89553 a 6.25343,6.25343 0 1 1 -6.18294,-6.32314 6.26054,6.26054 0 0 1 6.18294,6.32314 z"
     fill="#e6e6e6"
     id="path170" />
  <rect
     x="488.33344"
     y="210.11636"
     width="144.99594"
     height="110.7733"
     fill="#f2f2f2"
     id="rect172" />
  <rect
     x="495.53821"
     y="215.62064"
     width="130.58641"
     height="99.764771"
     fill="#ffffff"
     id="rect174" />
  <circle
     cx="517.6947"
     cy="242.98811"
     r="5.42203"
     fill="#3f3d56"
     id="circle176" />
  <path
     d="m 604.81243,238.76882 a 3.67713,3.67713 0 1 1 0,7.35425 h -57.02558 a 3.677125,3.677125 0 1 1 0,-7.35425 h 57.02558 m 0,-0.9006 h -57.02558 a 4.57773,4.57773 0 1 0 0,9.15545 h 57.02558 a 4.57773,4.57773 0 1 0 0,-9.15545 z"
     fill="#3f3d56"
     id="path178" />
  <path
     d="m 582.31116,247.02366 h -42.9283 a 4.57772,4.57772 0 1 1 0,-9.15544 h 42.9283 a 4.57772,4.57772 0 0 1 0,9.15544 z"
     fill="#5e72e4"
     id="path180" />
  <circle
     cx="517.6947"
     cy="265.50302"
     r="5.42203"
     fill="#3f3d56"
     id="circle182" />
  <path
     d="m 604.81243,261.28372 a 3.67713,3.67713 0 1 1 0,7.35425 h -57.02558 a 3.677125,3.677125 0 1 1 0,-7.35425 h 57.02558 m 0,-0.9006 h -57.02558 a 4.577725,4.577725 0 1 0 0,9.15545 h 57.02558 a 4.577725,4.577725 0 1 0 0,-9.15545 z"
     fill="#3f3d56"
     id="path184" />
  <path
     d="m 598.52188,269.53852 h -59.139 a 4.57772,4.57772 0 1 1 0,-9.15544 h 59.139 a 4.57772,4.57772 0 0 1 0,9.15544 z"
     fill="#5e72e4"
     id="path186" />
  <circle
     cx="517.6947"
     cy="288.01791"
     r="5.42203"
     fill="#3f3d56"
     id="circle188" />
  <path
     d="m 604.81243,283.79863 a 3.67713,3.67713 0 1 1 0,7.35424 h -57.02558 a 3.677125,3.677125 0 1 1 0,-7.35424 h 57.02558 m 0,-0.9006 h -57.02558 a 4.577725,4.577725 0 1 0 0,9.15544 h 57.02558 a 4.577725,4.577725 0 1 0 0,-9.15544 z"
     fill="#3f3d56"
     id="path190" />
  <path
     d="m 563.39862,292.05345 h -24.01576 a 4.57772,4.57772 0 1 1 0,-9.15543 h 24.01576 a 4.57772,4.57772 0 0 1 0,9.15543 z"
     fill="#5e72e4"
     id="path192" />
  <rect
     x="51.188419"
     y="101.50783"
     width="405.09332"
     height="207.61032"
     fill="#f2f2f2"
     id="rect194" />
  <rect
     x="64.691521"
     y="111.82387"
     width="378.0871"
     height="186.97824"
     fill="#ffffff"
     id="rect196" />
  <path
     d="M 395.88787,270.27676 H 120.26962 a 0.8626,0.8626 0 0 1 -0.86256,-0.86255 V 137.31038 a 0.86256,0.86256 0 1 1 1.72512,0 v 131.24126 h 274.75569 a 0.86256,0.86256 0 0 1 0,1.72512 z"
     fill="#3f3d56"
     id="path198" />
  <path
     d="M 179.15725,260.78861 H 154.0887 a 2.56336,2.56336 0 0 1 -2.56051,-2.5603 v -34.55713 a 2.56337,2.56337 0 0 1 2.56051,-2.5603 h 25.06855 a 2.56337,2.56337 0 0 1 2.56051,2.5603 v 34.55713 a 2.56336,2.56336 0 0 1 -2.56051,2.5603 z"
     fill="#5e72e4"
     id="path200" />
  <path
     d="m 224.87289,260.78861 h -25.06855 a 2.56336,2.56336 0 0 1 -2.56051,-2.5603 v -67.33438 a 2.56336,2.56336 0 0 1 2.56051,-2.5603 h 25.06855 a 2.56336,2.56336 0 0 1 2.56051,2.5603 v 67.33438 a 2.56336,2.56336 0 0 1 -2.56051,2.5603 z"
     fill="#5e72e4"
     id="path202" />
  <path
     d="m 270.58853,260.78861 h -25.06855 a 2.56337,2.56337 0 0 1 -2.56051,-2.5603 v -34.55713 a 2.56337,2.56337 0 0 1 2.56051,-2.5603 h 25.06855 a 2.56337,2.56337 0 0 1 2.56052,2.5603 v 34.55713 a 2.56337,2.56337 0 0 1 -2.56052,2.5603 z"
     fill="#5e72e4"
     id="path204" />
  <path
     d="m 316.30418,260.78861 h -25.06856 a 2.50734,2.50734 0 0 1 -2.56052,-2.4443 v -80.50478 a 2.50734,2.50734 0 0 1 2.56052,-2.44431 h 25.06855 a 2.50734,2.50734 0 0 1 2.56051,2.44431 v 80.50475 a 2.50734,2.50734 0 0 1 -2.5605,2.44433 z"
     fill="#5e72e4"
     id="path206" />
  <path
     d="m 362.01982,260.78861 h -25.06855 a 2.56336,2.56336 0 0 1 -2.56051,-2.5603 V 154.66644 a 2.56336,2.56336 0 0 1 2.56051,-2.5603 h 25.06855 a 2.56336,2.56336 0 0 1 2.56051,2.5603 v 103.56187 a 2.56336,2.56336 0 0 1 -2.56051,2.5603 z"
     fill="#5e72e4"
     id="path208" />
  <circle
     cx="166.62299"
     cy="205.58481"
     r="5.1753602"
     fill="#3f3d56"
     id="circle210" />
  <circle
     cx="212.33862"
     cy="171.94501"
     r="5.1753602"
     fill="#3f3d56"
     id="circle212" />
  <circle
     cx="258.05426"
     cy="205.58481"
     r="5.1753602"
     fill="#3f3d56"
     id="circle214" />
  <circle
     cx="303.7699"
     cy="155.55637"
     r="5.1753602"
     fill="#3f3d56"
     id="circle216" />
  <circle
     cx="349.48557"
     cy="136.58006"
     r="5.1753602"
     fill="#3f3d56"
     id="circle218" />
  <polygon
     points="166.106,204.895 212.339,170.265 257.945,204.425 303.266,154.83 303.447,154.756 349.163,136.337 349.808,137.937 304.274,156.283 258.163,206.744 212.339,172.421 167.14,206.275 "
     fill="#3f3d56"
     id="polygon220" />
</svg>
