<?xml version="1.0" encoding="UTF-8" standalone="no"?>
<svg
   data-name="Layer 1"
   width="638.37537"
   height="580.91168"
   viewBox="0 0 638.37539 580.91166"
   version="1.1"
   id="svg132"
   sodipodi:docname="take_attendance.svg"
   inkscape:version="1.2.1 (9c6d41e410, 2022-07-14)"
   xmlns:inkscape="http://www.inkscape.org/namespaces/inkscape"
   xmlns:sodipodi="http://sodipodi.sourceforge.net/DTD/sodipodi-0.dtd"
   xmlns="http://www.w3.org/2000/svg"
   xmlns:svg="http://www.w3.org/2000/svg">
  <defs
     id="defs136" />
  <sodipodi:namedview
     id="namedview134"
     pagecolor="#505050"
     bordercolor="#eeeeee"
     borderopacity="1"
     inkscape:showpageshadow="0"
     inkscape:pageopacity="0"
     inkscape:pagecheckerboard="0"
     inkscape:deskcolor="#505050"
     showgrid="false"
     inkscape:zoom="0.69031194"
     inkscape:cx="83.295676"
     inkscape:cy="232.50358"
     inkscape:window-width="1920"
     inkscape:window-height="1001"
     inkscape:window-x="-9"
     inkscape:window-y="-9"
     inkscape:window-maximized="1"
     inkscape:current-layer="svg132" />
  <path
     d="m 425.38785,434.69662 a 115.853,115.853 0 0 1 -49.68994,95.19 114.44983,114.44983 0 0 1 -13.55029,8.15 c -1.55957,0.8 -3.12989,1.56 -4.7295,2.28 -1.44043,0.66 -2.89013,1.28 -4.36035,1.87 a 116.42052,116.42052 0 0 1 -57.56982,7.68 q -5.06984,-0.6 -10.01026,-1.65 c -0.13964,-0.03 -0.29,-0.06 -0.42968,-0.09 a 113.3187,113.3187 0 0 1 -20.15039,-6.27 116.01241,116.01241 0 1 1 160.49023,-107.16 z"
     fill="#f1f1f1"
     id="path70" />
  <path
     d="m 330.74771,413.0466 c -0.10009,-0.12 -0.21,-0.23 -0.31982,-0.34 a 33.4444,33.4444 0 0 0 -47.04,-0.48 c -0.0698,0.06 -0.12988,0.12 -0.18994,0.18 -0.0801,0.07 -0.1499,0.13995 -0.22022,0.21 a 33.42692,33.42692 0 0 0 -9.81982,23.68 v 21 a 4.50677,4.50677 0 0 0 4.5,4.5 h 58 a 4.50677,4.50677 0 0 0 4.5,-4.5 v -21 a 33.34842,33.34842 0 0 0 -9.4102,-23.25 z"
     fill="#2f2e41"
     id="path72" />
  <circle
     cx="308.00201"
     cy="437.0275"
     r="24.561029"
     fill="#ffb7b7"
     id="circle74" />
  <path
     d="m 333.81803,434.93661 -2.89991,-20.26 a 2.537,2.537 0 0 0 -0.89013,-1.59 2.62681,2.62681 0 0 0 -0.53028,-0.33 c -14.85009,-6.95 -29.90966,-6.95 -44.75976,-0.02 a 2.4484,2.4484 0 0 0 -0.5503,0.35 c -0.0596,0.05 -0.11962,0.11 -0.17968,0.17 a 2.53154,2.53154 0 0 0 -0.7002,1.51 l -1.93994,20.29 a 2.50543,2.50543 0 0 0 0.64014,1.92 2.47719,2.47719 0 0 0 1.43994,0.78 1.83844,1.83844 0 0 0 0.41015,0.04 h 4.91993 a 2.52263,2.52263 0 0 0 2.27,-1.44 l 2.12988,-4.56 a 1.49369,1.49369 0 0 1 2.83984,0.45 l 0.41992,3.36 a 2.51167,2.51167 0 0 0 2.48047,2.19 h 32.4297 a 2.40424,2.40424 0 0 0 1.21,-0.31995 2.53246,2.53246 0 0 0 0.68018,-0.54 2.50641,2.50641 0 0 0 0.58005,-2.00005 z"
     fill="#2f2e41"
     id="path76" />
  <path
     d="m 368.73795,506.58664 6.96,23.3 a 114.44983,114.44983 0 0 1 -13.55029,8.15 c -1.55957,0.8 -3.12989,1.56 -4.7295,2.28 l -7.21045,-30.91 -2.7998,-11.99006 18,-2 z"
     fill="#ffb7b7"
     id="path78" />
  <path
     d="m 285.90787,502.71664 -0.6001,31.48 -0.25976,13.93 a 113.3187,113.3187 0 0 1 -20.15039,-6.27 l 2.39018,-29.81999 0.6001,-7.52 z"
     fill="#ffb7b7"
     id="path80" />
  <path
     d="m 368.73795,506.58664 -18.08008,2.71 0.22021,2.97 2.17969,29.92 a 116.42052,116.42052 0 0 1 -57.56982,7.68 q -5.06984,-0.6 -10.01026,-1.65 c 1.48,-6.22 2.76026,-11.82 1.18018,-12.92 a 11.97931,11.97931 0 0 1 -1.3501,-1.1 c -7.37012,-7.03 -4.6499,-22.9 -4.6499,-22.9 l -13.37007,0.74001 -4.62988,0.25995 c 0,0 2,-32 11,-32 h 11 l 53,-5 c 0,0 15,-5 19,2 2.1001,3.67 5.83984,11.45 8.93018,18.03 2.7998,5.98 5.06982,10.97 5.06982,10.97 z"
     fill="#2f2e41"
     id="path82"
     style="fill:#f5365c;fill-opacity:1" />
  <path
     d="m 638.36858,117.27785 a 115.8475,115.8475 0 0 1 -48.88325,93.35228 c -0.25976,0.18 -0.52978,0.37 -0.7998,0.56 -0.27979,0.2 -0.56983,0.4 -0.85986,0.59 q -2.52027,1.74 -5.14014,3.33 -3.68994,2.25 -7.55029,4.23 c -0.0796,0.04 -0.16993,0.08 -0.25,0.12 q -2.21925,1.13991 -4.4795,2.16 c -0.0503,0.02 -0.0903,0.04 -0.14013,0.06 -0.3501,0.16 -0.72022,0.33 -1.08008,0.48 -2.79,1.24 -5.64014,2.37005 -8.54,3.37005 q -3.70533,1.305 -7.52,2.34 a 113.72947,113.72947 0 0 1 -15.8501,3.18 115.58789,115.58789 0 0 1 -13.75976,0.94 c -0.38037,0.01 -0.76026,0.01 -1.14014,0.01 -2.50977,0 -5.00977,-0.08 -7.48,-0.24 -2.16016,-0.14 -4.29981,-0.33 -6.41992,-0.59 -3.27,-0.39 -6.5,-0.91 -9.68018,-1.59 -0.13965,-0.02 -0.27978,-0.05 -0.41992,-0.08 -0.10986,-0.02 -0.23,-0.05 -0.33984,-0.07 -3.2002,-0.67 -6.3501,-1.49 -9.43995,-2.43 q -4.36523,-1.32 -8.57031,-2.98 c -0.71972,-0.28 -1.42969,-0.56 -2.14013,-0.86 -1.76954,-0.74 -3.51954,-1.51 -5.23975,-2.34 -0.5,-0.23 -0.98975,-0.47 -1.48,-0.71 -1.66016,-0.81 -3.29981,-1.66 -4.8999,-2.56 q -2.89527,-1.605 -5.68994,-3.37 c -2.3501,-1.48 -4.6504,-3.04 -6.88038,-4.69 A 116.0049,116.0049 0 0 1 524.02517,0.01166099 C 587.63306,0.89521099 639.05488,53.667501 638.36858,117.27785 Z"
     fill="#f1f1f1"
     id="path84" />
  <path
     d="m 498.03563,229.43012 c -3.2002,-0.67 -6.3501,-1.49 -9.43995,-2.43 l 10.60987,-65.79 10.98974,-0.34 19.93018,-0.63 10.22021,-0.32 c 0,0 7.25,31.86 12.77979,67.95 a 113.72947,113.72947 0 0 1 -15.8501,3.18 115.58789,115.58789 0 0 1 -13.75976,0.94 c -0.38037,0.01 -0.76026,0.01 -1.14014,0.01 -2.50977,0 -5.00977,-0.08 -7.48,-0.24 -2.16016,-0.14 -4.29981,-0.33 -6.41992,-0.59 -3.27,-0.39 -6.5,-0.91 -9.68018,-1.59 -0.13965,-0.02 -0.27978,-0.05 -0.41992,-0.08 -0.10984,-0.02 -0.22996,-0.05 -0.33982,-0.07 z"
     fill="#cbcbcb"
     id="path86" />
  <path
     d="m 498.79542,229.58014 c -0.13965,-0.02 -0.27978,-0.05 -0.41992,-0.08 -0.10986,-0.02 -0.23,-0.05 -0.33984,-0.07 -3.2002,-0.67 -6.3501,-1.49 -9.43995,-2.43 q -4.36523,-1.32 -8.57031,-2.98 c -0.71972,-0.28 -1.42969,-0.56 -2.14013,-0.86 -1.76954,-0.74 -3.51954,-1.51 -5.23975,-2.34 -0.5,-0.23 -0.98975,-0.47 -1.48,-0.71 l -0.87988,-49.26 27,-11.56995 c 0,0 0.0898,0.72 12.90966,1.59 2.43994,7.95995 -11.39988,68.70995 -11.39988,68.70995 z"
     fill="#2f2e41"
     id="path88" />
  <path
     d="m 579.49559,168.52014 -5.08985,26.75 0.4795,24.19 q -2.21925,1.13991 -4.4795,2.16 c -0.0503,0.02 -0.0903,0.04 -0.14013,0.06 -0.3501,0.16 -0.72022,0.33 -1.08008,0.48 -2.79,1.24 -5.64014,2.37005 -8.54,3.37005 q -3.70533,1.305 -7.52,2.34 a 113.72947,113.72947 0 0 1 -15.8501,3.18 115.58789,115.58789 0 0 1 -13.75976,0.94 l -0.53028,-42.87 c -1.11963,-13.82 2.59034,-22.96 7.14014,-28.88 24.25,-3.24 23.71,-3.53 23.71,-3.53 l 25.71,11.57 z"
     fill="#2f2e41"
     id="path90" />
  <path
     d="m 481.85542,174.71015 -1.83008,49.31 c -0.71972,-0.28 -1.42969,-0.56 -2.14013,-0.86 -1.76954,-0.74 -3.51954,-1.51 -5.23975,-2.34 -0.5,-0.23 -0.98975,-0.47 -1.48,-0.71 -1.66016,-0.81 -3.29981,-1.66 -4.8999,-2.56 q -2.89527,-1.605 -5.68994,-3.37 l 9.71,-43.33 z"
     fill="#2f2e41"
     id="path92" />
  <path
     d="m 589.48533,210.63013 c -0.25976,0.18 -0.52978,0.37 -0.7998,0.56 -0.27979,0.2 -0.56983,0.4 -0.85986,0.59 q -2.52027,1.74 -5.14014,3.33 -3.68994,2.25 -7.55029,4.23 c -0.0796,0.04 -0.16993,0.08 -0.25,0.12 q -2.28651,1.17447 -4.61685,2.22169 l -0.003,-0.002 -1.83008,-49.48 11.06006,-3.68 0.50976,-0.17 z"
     fill="#2f2e41"
     id="path94" />
  <ellipse
     cx="36.956654"
     cy="533.76111"
     rx="28.60264"
     ry="28.52916"
     transform="rotate(-73.65991)"
     fill="#9f616a"
     id="ellipse96" />
  <path
     d="m 493.86742,121.875 v -11.13124 c 0,0 -8.97669,-10.57234 0.89767,-13.235519 0,0 2.693,-26.63179 26.03241,-14.20362 0,0 32.3161,-5.32636 28.72543,13.3159 0,0 8.079,-4.8669 5.386,7.561279 l -5.20833,20.01961 c 0,0 2.51535,-13.22444 -5.56367,-14.99989 l -4.48835,-2.66318 c 0,0 -12.56737,12.42817 -31.41843,-2.66318 0,0 -8.079,-1.92825 -7.18135,6.06129 0.89765,7.98954 -7.18138,11.93855 -7.18138,11.93855 z"
     fill="#2f2e41"
     id="path98" />
  <path
     d="m 232.01722,116.88259 a 115.853,115.853 0 0 1 -49.68994,95.19 c -0.27979,0.2 -0.56983,0.4 -0.85986,0.59 q -2.52027,1.74 -5.14014,3.33 -3.68994,2.25 -7.55029,4.23 c -1.55957,0.8 -3.12989,1.56 -4.7295,2.28 -0.40039,0.18 -0.81006,0.37 -1.22021,0.54 -2.79,1.24 -5.64014,2.37 -8.54,3.37 a 114.20394,114.20394 0 0 1 -23.37012,5.52 116.29626,116.29626 0 0 1 -14.8999,0.95 c -2.50977,0 -5.00977,-0.08 -7.48,-0.24 -2.16016,-0.14 -4.29981,-0.33 -6.41992,-0.59 -3.41016,-0.41 -6.780277,-0.96 -10.100097,-1.67 -0.10986,-0.02 -0.23,-0.05 -0.33984,-0.07 a 113.3187,113.3187 0 0 1 -20.15039,-6.27 c -1.76954,-0.74 -3.51954,-1.51 -5.23975,-2.34 q -3.25488,-1.53 -6.37988,-3.27 a 116.00862,116.00862 0 1 1 172.109857,-101.55 z"
     fill="#f1f1f1"
     id="path100" />
  <circle
     cx="112.83067"
     cy="119.56828"
     r="25.90295"
     fill="#ffb8b8"
     id="circle102" />
  <path
     d="m 102.11732,232.05258 c -3.41016,-0.41 -6.780277,-0.96 -10.100097,-1.67 l 3.1499,-70.88 0.4502,-0.47 6.449697,-6.81 h 20.51026 l 7.56982,7.33 0.64014,0.63 16.18994,15.51 7.31006,50.72 a 114.20394,114.20394 0 0 1 -23.37012,5.52 116.29626,116.29626 0 0 1 -14.8999,0.95 c -2.50977,0 -5.00977,-0.08 -7.48,-0.24 -2.16014,-0.13999 -4.29979,-0.32999 -6.4199,-0.59 z"
     fill="#cbcbcb"
     id="path104" />
  <path
     d="m 66.287243,221.7026 q -3.25488,-1.53 -6.37988,-3.27 c -0.21,-19.2 -0.3501,-31.95 -0.3501,-31.95 l 2.43994,-1.49 a 0.80438,0.80438 0 0 1 0.0898,-0.04 l 27.68995,-16.82 5.81005,-9.44 0.0303,0.34 1.709997,19.9 a 346.74389,346.74389 0 0 1 11.21,53.71 c -2.16016,-0.14 -4.29981,-0.33 -6.41992,-0.59 -3.41016,-0.41 -6.780277,-0.96 -10.100097,-1.67 -0.10986,-0.02 -0.23,-0.05 -0.33984,-0.07 a 113.3187,113.3187 0 0 1 -20.15039,-6.27 c -1.76962,-0.74002 -3.51962,-1.50998 -5.23983,-2.34 z"
     fill="#2f2e41"
     id="path106" />
  <path
     d="m 154.28724,226.41262 a 114.20394,114.20394 0 0 1 -23.37012,5.52 91.26716,91.26716 0 0 1 -1.21,-19.55 c 2.16016,-34.53 -2.81982,-53.69 -0.65967,-53.69 l 1.09961,0.86 13.59033,10.74 17.88965,6.56 h 0.0103 l 12.31006,4.51 2.16992,0.80005 v 1.03 c 0.01,3.56 0.0298,16.02 0.21,32.8 q -3.68994,2.25 -7.55029,4.23 c -1.55957,0.8 -3.12989,1.56 -4.7295,2.28 -0.40039,0.18 -0.81006,0.37 -1.22021,0.54 -2.79004,1.23995 -5.64011,2.36995 -8.54004,3.36995 z"
     fill="#2f2e41"
     id="path108" />
  <path
     d="m 88.325003,127.6724 c 0,0 2.2008,-3.865 1.68916,-16.77648 -0.51164,-12.911478 19.149507,-5.60893 35.578467,-6.84062 16.42896,-1.23169 12.95124,21.55611 12.95124,21.55611 0,0 1.18525,-1.35461 3.72286,-12.35267 2.53761,-10.99806 -3.22412,-21.958078 -3.22412,-21.958078 -1.69691,-11.5569 -10.8421,-7.85291 -10.8421,-7.85291 4.40421,1.71452 3.55833,5.38054 3.55833,5.38054 -3.728,-6.53621 -12.8732,-2.83221 -12.8732,-2.83221 -12.197,-7.65394 -24.558607,2.42534 -24.558607,2.42534 -14.73463,3.34409 -6.09333,15.061928 -6.09333,15.061928 -14.8182,7.48846 0.0913,24.18905 0.0913,24.18905 z"
     fill="#2f2e41"
     id="path110" />
  <path
     d="m 47.337043,210.37258 c 0.38038,-8.79 0.5503,-14.46 0.3501,-15.25 -1.02978,-4.12 13.03028,-9.64 14.31006,-10.13 a 0.80438,0.80438 0 0 1 0.0898,-0.04 l 2.86036,1.53 1.33984,35.22 q -3.25488,-1.53 -6.37988,-3.27 a 115.18056,115.18056 0 0 1 -12.57032,-8.06 z"
     fill="#2f2e41"
     id="path112" />
  <path
     d="m 176.32728,215.99258 q -3.68994,2.25 -7.55029,4.23 c -1.55957,0.8 -3.12989,1.56 -4.7295,2.28 -0.40039,0.18 -0.81006,0.37 -1.22021,0.54 l -4.5,-44.43 2.62988,-1.92 c 0,0 0.24024,0.06 0.66992,0.16 h 0.0103 c 2.10986,0.52 8.58984,2.24006 12.31006,4.51 a 7.71388,7.71388 0 0 1 2.16992,1.83 2.22274,2.22274 0 0 1 0.50976,1.58 c -0.11963,1.16 1.88037,12.16 4.84034,27.89 q -2.52025,1.74001 -5.14014,3.33 z"
     fill="#2f2e41"
     id="path114" />
  <circle
     cx="522.37549"
     cy="227.92139"
     r="26.436319"
     fill="#5e72e4"
     id="circle120" />
  <polygon
     points="520.17,225.328 523.916,230.145 536.573,216.785 540.805,220.794 523.481,239.081 515.568,228.907 "
     fill="#ffffff"
     id="polygon122"
     transform="translate(-3.6245303,1.209938e-4)" />
  <circle
     cx="309.38785"
     cy="554.47534"
     r="26.436319"
     fill="#5e72e4"
     id="circle124" />
  <polygon
     points="126.573,218.848 130.805,222.857 113.481,241.144 105.568,230.97 110.17,227.391 113.916,232.208 "
     fill="#ffffff"
     id="polygon126"
     transform="translate(193.38785,324.4911)" />
  <circle
     cx="116.01722"
     cy="232.86684"
     r="26.436319"
     fill="#5e72e4"
     id="circle128" />
  <polygon
     points="331.573,570.848 335.805,574.857 318.481,593.144 310.568,582.97 315.17,579.391 318.916,584.208 "
     fill="#ffffff"
     id="polygon130"
     transform="translate(-204.98277,-347.66879)" />
</svg>
