<?xml version="1.0" encoding="UTF-8" standalone="no"?>
<svg
   data-name="Layer 1"
   width="212.34573"
   height="425.86145"
   viewBox="0 0 212.34573 425.86143"
   version="1.1"
   id="svg116"
   sodipodi:docname="view.svg"
   inkscape:version="1.2.1 (9c6d41e410, 2022-07-14)"
   xmlns:inkscape="http://www.inkscape.org/namespaces/inkscape"
   xmlns:sodipodi="http://sodipodi.sourceforge.net/DTD/sodipodi-0.dtd"
   xmlns="http://www.w3.org/2000/svg"
   xmlns:svg="http://www.w3.org/2000/svg">
  <defs
     id="defs120" />
  <sodipodi:namedview
     id="namedview118"
     pagecolor="#505050"
     bordercolor="#eeeeee"
     borderopacity="1"
     inkscape:showpageshadow="0"
     inkscape:pageopacity="0"
     inkscape:pagecheckerboard="0"
     inkscape:deskcolor="#505050"
     showgrid="false"
     inkscape:zoom="1.0752892"
     inkscape:cx="29.294445"
     inkscape:cy="215.29092"
     inkscape:window-width="1920"
     inkscape:window-height="1001"
     inkscape:window-x="-9"
     inkscape:window-y="-9"
     inkscape:window-maximized="1"
     inkscape:current-layer="svg116" />
  <path
     d="m 212.34573,101.20059 h -2.3399 V 37.09982 A 37.09977,37.09977 0 0 0 172.90609,0 H 37.09985 A 37.09977,37.09977 0 0 0 0,37.0997 v 351.66194 a 37.09979,37.09979 0 0 0 37.09975,37.09982 H 172.90591 A 37.0998,37.0998 0 0 0 210.0058,388.76179 V 146.82862 h 2.33993 z"
     fill="#3f3d56"
     id="path92" />
  <path
     d="m 173.74533,8.99449 h -17.7272 A 13.16291,13.16291 0 0 1 143.83107,27.12868 H 66.02944 A 13.16291,13.16291 0 0 1 53.84237,8.99446 H 37.28512 A 27.70571,27.70571 0 0 0 9.5794,36.70013 v 351.14594 a 27.70571,27.70571 0 0 0 27.70569,27.70573 h 136.46024 a 27.70571,27.70571 0 0 0 27.70573,-27.70569 v 0 V 36.70016 A 27.70568,27.70568 0 0 0 173.74533,8.99449 Z"
     fill="#ffffff"
     id="path94" />
  <path
     d="m 84.26703,137.26639 3.7733,13.07091 48.2194,-0.85068 -0.4225,-23.94912 C 135.5028,106.58092 122.10556,90.231284 103.14936,90.565704 84.19316,90.900124 72.13988,106.92596 72.4743,125.88254 l 2.7538,24.68079 7.86184,-0.1387 z"
     fill="#2f2e41"
     id="path96" />
  <circle
     cx="105.30411"
     cy="124.77155"
     r="21.63483"
     fill="#ffb6b6"
     id="circle98" />
  <path
     d="m 148.36773,158.51007 -0.49024,9.1 a 57.9288,57.9288 0 0 1 -80.28955,3.11 c -0.5,-0.44 -0.99023,-0.9 -1.47021,-1.37 3,-2.98 11.28027,-10.34 20.47021,-11.02 l 41.43994,-2.61005 c 0,0 15.69971,-1.83995 20.33985,2.79005 z"
     fill="#e4e4e4"
     id="path100"
     style="fill:#f5365c;fill-opacity:1" />
  <path
     d="m 128.98785,109.58008 a 8.39116,8.39116 0 0 0 -1.49024,-4.63 c -0.0996,-0.14 -0.19971,-0.27 -0.2998,-0.4 a 8.43088,8.43088 0 0 0 -6.76026,-3.23 l -15.5498,0.28 -15.54,0.27 a 8.41955,8.41955 0 0 0 -8.25,8.55 l 3.70019,7.45 2.12989,4.28 0.35009,-0.2 c 13.44971,-7.56 18.94971,-7.66 36.75,-0.63 l 0.35987,0.14 1.41015,-3.61 3.19971,-8.19 z"
     fill="#2f2e41"
     id="path102" />
  <path
     d="m 151.86773,163.02008 a 58.61855,58.61855 0 0 1 -16.06006,14.18 l -0.96973,-17.38 13.52979,-1.31 c 0,0 1.62012,-10e-6 3.5,4.51 z"
     fill="#e4e4e4"
     id="path104"
     style="fill:#f5365c;fill-opacity:1" />
  <path
     d="M 106.11773,186.37006 A 58.81825,58.81825 0 0 1 66.92388,171.46771 c -0.50977,-0.44824 -1.01318,-0.92041 -1.50586,-1.40332 a 58.39859,58.39859 0 0 1 -18.30029,-42.69433 59,59 0 0 1 118,0 58.36548,58.36548 0 0 1 -12.46192,36.26562 58.95633,58.95633 0 0 1 -46.53808,22.73438 z m 0,-115.999996 a 57.06468,57.06468 0 0 0 -57,56.999996 56.42575,56.42575 0 0 0 17.68921,41.25537 c 0.47778,0.46777 0.95483,0.91552 1.44165,1.34375 a 57.06813,57.06813 0 0 0 82.83105,-7.56494 56.38,56.38 0 0 0 12.03809,-35.03418 57.06468,57.06468 0 0 0 -57,-56.999996 z"
     fill="#3f3d56"
     id="path106" />
  <path
     d="M 154.313,224.45843 H 60.06304 a 7.1564392,7.89209 0 1 1 0,-15.78418 H 154.313 a 7.1564392,7.89209 0 1 1 0,15.78418 z"
     fill="#5e72e4"
     id="path108"
     style="stroke-width:0.952253" />
  <path
     d="M 175.1208,256.07782 H 36.46527 a 10.528172,7.89209 0 1 1 0,-15.78418 H 175.1208 a 10.528172,7.89209 0 1 1 0,15.78418 z"
     fill="#5e72e4"
     id="path405"
     style="fill:#cccccc;fill-opacity:1;stroke-width:1.15499" />
  <path
     d="M 175.1208,283.97729 H 36.46527 a 10.528172,7.89209 0 1 1 0,-15.78418 H 175.1208 a 10.528172,7.89209 0 1 1 0,15.78418 z"
     fill="#5e72e4"
     id="path407"
     style="fill:#cccccc;fill-opacity:1;stroke-width:1.15499" />
  <path
     d="M 174.19082,311.87676 H 35.53529 a 10.528172,7.89209 0 1 1 0,-15.78418 h 138.65553 a 10.528172,7.89209 0 1 1 0,15.78418 z"
     fill="#5e72e4"
     id="path409"
     style="fill:#cccccc;fill-opacity:1;stroke-width:1.15499" />
  <path
     d="M 176.05079,339.77623 H 37.39526 a 10.528172,7.89209 0 1 1 0,-15.78418 h 138.65553 a 10.528172,7.89209 0 1 1 0,15.78418 z"
     fill="#5e72e4"
     id="path411"
     style="fill:#cccccc;fill-opacity:1;stroke-width:1.15499" />
</svg>
